<svg preserveAspectRatio="none" width="100%" height="100%" overflow="visible" style="display: block;" viewBox="0 0 129 72.4245" fill="none" xmlns="http://www.w3.org/2000/svg">
<g id="Group 2131330182">
<g id="Vector">
<path fill-rule="evenodd" clip-rule="evenodd" d="M69.441 28.5718C84.0018 28.5718 86.3419 33.686 84.83 37.8446L82.3655 44.8145C81.6063 46.9697 83.0089 47.4515 84.0113 47.4517H86.7386C87.0071 47.4517 87.195 47.7217 87.1047 47.9744L84.3808 55.4704C84.2836 55.7346 84.0327 55.9116 83.7503 55.9116H73.2429C68.9353 55.9114 67.7194 54.0478 67.7816 52.5667C66.5561 53.5707 61.1596 56.4851 54.6199 56.4852H51.4451C43.9969 56.4852 38.8431 52.6141 40.6513 47.6418C42.4573 42.6723 46.4351 40.1392 56.0657 39.5179L70.4275 39.0869C71.8653 38.9431 72.4567 38.7105 72.848 37.5561C73.2595 36.1725 70.6457 35.3585 66.7799 35.3584H64.6255C60.9516 35.3586 57.9739 36.7792 57.1658 37.5697C56.9831 37.7503 56.7361 37.8444 56.4793 37.8446L45.455 37.7971C45.1844 37.7967 45.0071 37.5142 45.1228 37.271C46.8132 33.6873 53.0597 28.5718 66.6544 28.5718H69.441ZM70.1495 43.8081C68.4246 44.0051 65.6141 44.2946 62.5746 44.582C55.8048 45.2032 53.8696 45.8743 52.969 47.4042C52.1149 49.0777 53.4944 49.7937 57.5065 49.7937C64.531 49.7937 68.7629 47.3149 70.1173 45.013L70.5038 44.3546C70.6563 44.095 70.4481 43.7733 70.1495 43.8081Z" fill="var(--fill-0, #122654)"/>
<path d="M124.344 29.3712C124.566 29.3712 124.744 29.5514 124.744 29.7717V37.2914C124.744 37.5138 124.564 37.6919 124.344 37.6919H112.577C112.355 37.6922 112.177 37.874 112.177 38.0941V55.5416C112.177 55.764 111.997 55.9419 111.777 55.9421H100.519C100.297 55.9417 100.119 55.7615 100.119 55.5416V38.0941C100.119 37.8716 99.9388 37.692 99.7189 37.6919H87.9505C87.7283 37.6919 87.5505 37.5115 87.5505 37.2914V29.7717C87.5505 29.5491 87.7305 29.3712 87.9505 29.3712H124.344Z" fill="var(--fill-0, #122654)"/>
<path d="M37.6512 29.2337C37.924 29.2339 38.1441 29.4567 38.1444 29.7275L38.1461 29.7326V55.4449C38.1461 55.7184 37.9238 55.9387 37.6529 55.9387H26.7269C26.4539 55.9385 26.2336 55.716 26.2336 55.4449V47.6028C26.2335 47.3063 25.9799 47.0779 25.6861 47.1123C23.3316 47.4021 19.4276 47.5637 16.3738 47.5637C3.98702 47.5637 0 44.1649 0 35.1683V29.7309C0 29.4574 0.222357 29.2371 0.493244 29.2371H11.5328C11.8057 29.2374 12.0261 29.4599 12.0261 29.7309V34.2604C12.0262 38.4719 13.8615 39.3804 18.7417 39.3805C20.2581 39.3805 24.1548 39.265 25.7895 39.1004C26.0418 39.0749 26.2318 38.8615 26.2319 38.6066V29.7275C26.2322 29.4543 26.4545 29.2337 26.7252 29.2337H37.6512Z" fill="var(--fill-0, #122654)"/>
<path d="M23.6148 0.00509084C23.8369 0.00509084 24.0162 0.185666 24.0165 0.405599V7.35509C24.0165 7.57763 23.8348 7.7573 23.6148 7.7573H12.421C12.1989 7.75743 12.0211 7.93773 12.021 8.1578V26.179C12.0209 26.4012 11.8405 26.579 11.621 26.5795H0.400022C0.178166 26.5793 0.000429412 26.397 0 26.1773V0.405599C0.000340908 0.183459 0.180417 0.00525566 0.400022 0.00509084H23.6148Z" fill="var(--fill-0, #122654)"/>
<path d="M37.8359 0.00678831C38.058 0.00678831 38.2357 0.187312 38.236 0.407296V14.7492C38.236 15.1175 38.6871 15.2895 38.9326 15.019L52.3435 0.139159C52.4176 0.0557077 52.5267 0.00678831 52.6401 0.00678831H64.0814C64.3035 0.00678831 64.4828 0.187311 64.4831 0.407296V26.1773C64.4831 26.3998 64.3014 26.5795 64.0814 26.5795H52.8622C52.6399 26.5795 52.4621 26.3975 52.4621 26.1773V11.8693C52.4621 11.5032 52.011 11.3289 51.7655 11.5995L38.3546 26.4471C38.2782 26.5305 38.1714 26.5795 38.058 26.5795H26.6167C26.3944 26.5795 26.215 26.3975 26.215 26.1773V0.407296C26.2153 0.185 26.3969 0.00678831 26.6167 0.00678831H37.8359Z" fill="var(--fill-0, #122654)"/>
<path d="M91.0049 0.00509084C91.2266 0.00546348 91.4046 0.185893 91.4049 0.405599V7.35509C91.4049 7.5774 91.2245 7.75693 91.0049 7.7573H79.8094C79.5874 7.75754 79.4094 7.93779 79.4093 8.1578V26.179C79.4092 26.4012 79.229 26.5792 79.0093 26.5795H67.7884C67.5666 26.5792 67.3888 26.397 67.3884 26.1773V0.405599C67.3887 0.18353 67.5689 0.00536997 67.7884 0.00509084H91.0049Z" fill="var(--fill-0, #122654)"/>
<path fill-rule="evenodd" clip-rule="evenodd" d="M114.688 0C114.808 0.000181168 114.919 0.0661559 114.972 0.168009L128.965 26.1348C129.073 26.3388 128.918 26.5795 128.68 26.5795H115.352C115.227 26.5795 115.111 26.5101 115.06 26.4013L113.464 23.0801C113.41 22.9712 113.297 22.9002 113.172 22.9002H98.668C98.5407 22.9002 98.4263 22.9729 98.3731 23.0818L96.8137 26.3996C96.7627 26.5084 96.646 26.5795 96.5187 26.5795H84.4198C84.1836 26.5795 84.0281 26.3456 84.13 26.1416L97.2781 0.174798C97.3314 0.0681654 97.4453 0 97.568 0H114.688ZM106.123 7.99998C106.007 7.76405 105.653 7.76406 105.54 7.99998L102.124 15.1446C102.027 15.3462 102.182 15.5754 102.416 15.5757H109.309C109.543 15.5753 109.697 15.3443 109.601 15.1429L109.603 15.1446L106.123 7.99998Z" fill="var(--fill-0, #122654)"/>
</g>
<g id="Vector_2">
<path d="M51.5851 69.6925H52.9308V65.3905H54.5107V69.6925H55.8564V65.3905H57.4877V69.6925H58.242V72.4245H56.7435V71.0992H49.9537V65.3905H51.5851V69.6925Z" fill="var(--fill-0, #122654)"/>
<path fill-rule="evenodd" clip-rule="evenodd" d="M30.3092 65.268C32.5519 65.268 33.3576 66.1549 33.3576 68.2447C33.3576 70.4059 32.3381 71.2217 30.3299 71.2217C28.2909 71.2217 27.2714 70.2938 27.2714 68.2447C27.2714 66.1448 28.2398 65.2681 30.3092 65.268ZM30.2991 66.6241C29.3817 66.6241 28.9535 67.0011 28.9535 68.2447C28.9535 69.5496 29.4735 69.8657 30.3502 69.8657C31.2269 69.8657 31.6755 69.5292 31.6755 68.2447C31.6755 66.9807 31.237 66.6241 30.2991 66.6241Z" fill="var(--fill-0, #122654)"/>
<path fill-rule="evenodd" clip-rule="evenodd" d="M45.6611 65.268C47.9039 65.268 48.7092 66.1549 48.7092 68.2447C48.7092 70.406 47.6898 71.2217 45.6815 71.2217C43.6427 71.2217 42.6234 70.2938 42.6234 68.2447C42.6234 66.1448 43.5917 65.2681 45.6611 65.268ZM45.6511 66.6241C44.7336 66.6241 44.3055 67.0011 44.3054 68.2447C44.3054 69.5495 44.8252 69.8657 45.7018 69.8657C46.5786 69.8657 47.0271 69.5292 47.0271 68.2447C47.0271 66.9807 46.5889 66.6241 45.6511 66.6241Z" fill="var(--fill-0, #122654)"/>
<path fill-rule="evenodd" clip-rule="evenodd" d="M85.0568 65.268C87.2994 65.2681 88.1048 66.155 88.1049 68.2447C88.1049 70.4059 87.0854 71.2217 85.0771 71.2217C83.0382 71.2217 82.0187 70.2938 82.0187 68.2447C82.0187 66.1447 82.9873 65.268 85.0568 65.268ZM85.0464 66.6241C84.129 66.6241 83.7008 67.0011 83.7007 68.2447C83.7007 69.5496 84.2207 69.8657 85.0975 69.8657C85.9742 69.8657 86.4228 69.5292 86.4228 68.2447C86.4227 66.9807 85.9843 66.6241 85.0464 66.6241Z" fill="var(--fill-0, #122654)"/>
<path d="M100.048 65.268C100.873 65.268 101.424 65.4313 101.699 65.523V67.103C101.342 66.9195 100.904 66.6951 100.099 66.6951C99.0589 66.6952 98.5898 67.0929 98.5898 68.2347C98.5898 69.4172 99.0691 69.7943 100.17 69.7943C100.904 69.7943 101.434 69.5904 101.74 69.3661V70.926C101.434 71.0688 100.843 71.2217 100.027 71.2217C97.7947 71.2217 96.9077 70.2837 96.9077 68.3161C96.9077 66.2569 97.7947 65.2681 100.048 65.268Z" fill="var(--fill-0, #122654)"/>
<path fill-rule="evenodd" clip-rule="evenodd" d="M107.468 66.7973H104.665V67.5212C105.063 67.5008 105.317 67.5008 105.613 67.5008C107.173 67.5008 107.876 67.8474 107.876 69.2236C107.876 70.4469 107.244 71.1399 105.165 71.14C104.502 71.14 103.921 71.1298 103.034 71.0992V65.3905H107.468V66.7973ZM105.389 68.6222C105.103 68.6222 104.92 68.6322 104.634 68.6526V69.7332C104.869 69.7638 105.032 69.7639 105.287 69.7639C106.021 69.7639 106.215 69.6007 106.215 69.1522C106.215 68.7444 106.041 68.6222 105.389 68.6222Z" fill="var(--fill-0, #122654)"/>
<path d="M3.40828 68.0001L3.32684 69.0197L3.89788 68.0408L5.56961 65.3905H7.24168V71.0992H5.61033V68.459L5.6921 67.4394L5.14142 68.4079L3.41862 71.0992H1.77726V65.3905H3.40828V68.0001Z" fill="var(--fill-0, #122654)"/>
<path d="M10.462 68.0001L10.3806 69.0197L10.9516 68.0408L12.6233 65.3905H14.2954V71.0992H12.664V68.459L12.7458 67.4394L12.1951 68.4079L10.4723 71.0992H8.83097V65.3905H10.462V68.0001Z" fill="var(--fill-0, #122654)"/>
<path d="M26.0235 71.0992H24.3925V66.7973H22.4044V71.0992H20.7734V65.3905H26.0235V71.0992Z" fill="var(--fill-0, #122654)"/>
<path d="M38.0377 68.1122L39.1895 65.3905H41.3915V71.0992H39.8216V67.9697L39.8726 66.9705L39.4955 67.9494L38.6084 69.9575H37.3852L36.5085 67.9594L36.1107 66.9808L36.1721 67.9697V71.0992H34.6021V65.3905H36.8856L38.0377 68.1122Z" fill="var(--fill-0, #122654)"/>
<path d="M60.9984 67.5008H63.2308V65.3905H64.8618V71.0992H63.2308V68.9075H60.9984V71.0992H59.367V65.3905H60.9984V67.5008Z" fill="var(--fill-0, #122654)"/>
<path d="M68.0818 68.0001L68.0004 69.0197L68.5711 68.0408L70.2431 65.3905H71.9149V71.0992H70.2838V68.459L70.3653 67.4394L69.8149 68.4079L68.0921 71.0992H66.4508V65.3905H68.0818V68.0001Z" fill="var(--fill-0, #122654)"/>
<path d="M75.1355 67.5619H75.5433L76.9604 65.3905H78.8157L76.889 68.0615L78.9889 71.0992H77.0726L75.5637 68.8465H75.1355V71.0992H73.5045V65.3905H75.1355V67.5619Z" fill="var(--fill-0, #122654)"/>
<path d="M93.7158 66.7973H92.0337V71.0992H90.4024V66.7973H88.7306V65.3905H93.7158V66.7973Z" fill="var(--fill-0, #122654)"/>
<path d="M113.545 66.7973H110.813V67.5922H113.188V68.8361H110.813V69.6925H113.545V71.0992H109.182V65.3905H113.545V66.7973Z" fill="var(--fill-0, #122654)"/>
<path fill-rule="evenodd" clip-rule="evenodd" d="M117.043 65.3495C118.97 65.3495 119.684 65.8798 119.684 67.409C119.684 68.9381 118.868 69.6211 117.023 69.6211C116.819 69.6211 116.686 69.6111 116.483 69.6111V71.0992H114.852V65.3905C115.698 65.3701 116.065 65.3495 117.043 65.3495ZM117.003 66.6748C116.799 66.6748 116.686 66.6748 116.483 66.6951V68.2754C116.697 68.2856 116.799 68.2958 117.023 68.2958C117.767 68.2958 118.022 67.9796 118.022 67.4801C118.022 66.9705 117.828 66.6748 117.003 66.6748Z" fill="var(--fill-0, #122654)"/>
<path fill-rule="evenodd" clip-rule="evenodd" d="M125.834 71.0992H124.183L123.826 70.0389H121.736L121.38 71.0992H119.779L121.859 65.3905H123.765L125.834 71.0992ZM122.165 68.7443H123.388L122.776 66.9401L122.165 68.7443Z" fill="var(--fill-0, #122654)"/>
<path d="M17.498 66.9768C18.2526 66.9768 18.865 67.5893 18.865 68.3438C18.865 69.0984 18.2526 69.7109 17.498 69.7109C16.7434 69.7109 16.131 69.0984 16.131 68.3438C16.131 67.5893 16.7434 66.9768 17.498 66.9768Z" fill="var(--fill-0, #122654)"/>
</g>
</g>
</svg>
