<svg preserveAspectRatio="none" width="100%" height="100%" overflow="visible" style="display: block;" viewBox="0 0 36.0911 36.772" fill="none" xmlns="http://www.w3.org/2000/svg">
<path id="Vector" fill-rule="evenodd" clip-rule="evenodd" d="M25.8766 6.71624L29.3907 4.08292C26.1793 1.43245 22.1776 0 18.0497 0C15.679 0 13.3334 0.471766 11.1476 1.39814C9.23084 2.20444 7.47379 3.34525 5.94372 4.76055C4.06897 6.47607 2.57253 8.57757 1.55529 10.9278C0.521232 13.2695 0 15.817 0 18.3817C0 20.792 0.462383 23.1852 1.37033 25.4153C2.16059 27.3625 3.27871 29.1552 4.66586 30.7163C6.35566 32.6291 8.42378 34.1473 10.7273 35.1938C12.9635 36.2059 15.3847 36.7463 17.8312 36.772C17.9068 36.772 17.9741 36.772 18.0497 36.772C20.4205 36.772 22.7661 36.3003 24.9519 35.3739C26.8602 34.5676 28.6257 33.4268 30.1558 32.0201C32.0305 30.3046 33.527 28.1945 34.5442 25.8528C35.5699 23.5025 36.0911 20.9636 36.0911 18.3903C36.0911 17.2838 35.9986 16.1859 35.8052 15.0965L31.9212 18.0129V18.3903C31.9212 20.3632 31.5177 22.3188 30.7274 24.1287C29.9372 25.93 28.7854 27.5512 27.3478 28.8721C26.1709 29.9615 24.8173 30.8364 23.3461 31.454C21.6647 32.1659 19.8572 32.5261 18.0329 32.5261C16.0909 32.5261 14.1741 32.1144 12.4003 31.3081C10.6264 30.5018 9.03748 29.3353 7.74281 27.8685C6.67513 26.6762 5.81762 25.2953 5.21232 23.8028C4.51454 22.0872 4.15304 20.2431 4.16145 18.3903C4.16145 18.1501 4.16145 17.9185 4.17826 17.687C4.26233 15.9543 4.65746 14.2473 5.35523 12.6605C6.05301 11.0651 7.02822 9.62404 8.23882 8.39744C9.52509 7.09365 11.0552 6.04719 12.7365 5.33525C14.4179 4.62331 16.2254 4.25448 18.0413 4.25448C18.2767 4.25448 18.5037 4.25448 18.7307 4.27163C21.278 4.40029 23.7497 5.2409 25.8598 6.71624H25.8766ZM32.3332 7.14512C33.1907 8.27736 33.9137 9.50395 34.4938 10.7992L18.0497 23.1423L11.1813 18.7506V13.4754L18.0497 17.8585L32.3248 7.13654L32.3332 7.14512Z" fill="var(--fill-0, white)"/>
</svg>
