<svg preserveAspectRatio="none" width="100%" height="100%" overflow="visible" style="display: block;" viewBox="0 0 29.0521 29.0521" fill="none" xmlns="http://www.w3.org/2000/svg">
<path id="Star 24" d="M12.093 1.69396C12.9288 -0.564656 16.1233 -0.564652 16.9591 1.69396L19.3538 8.16556C19.6165 8.87566 20.1764 9.43553 20.8865 9.69829L27.3581 12.093C29.6167 12.9288 29.6167 16.1233 27.3581 16.9591L20.8865 19.3538C20.1764 19.6165 19.6165 20.1764 19.3538 20.8865L16.9591 27.3581C16.1233 29.6167 12.9288 29.6167 12.093 27.3581L9.69829 20.8865C9.43553 20.1764 8.87566 19.6165 8.16556 19.3538L1.69396 16.9591C-0.564656 16.1233 -0.564652 12.9288 1.69396 12.093L8.16556 9.69829C8.87566 9.43553 9.43553 8.87566 9.69829 8.16556L12.093 1.69396Z" fill="var(--fill-0, #13AFED)"/>
</svg>
