<svg preserveAspectRatio="none" width="100%" height="100%" overflow="visible" style="display: block;" viewBox="0 0 482.442 347.537" fill="none" xmlns="http://www.w3.org/2000/svg">
<g id="&#208;&#154;&#208;&#190;&#208;&#189;&#209;&#132;&#208;&#181;&#209;&#130;&#209;&#130;&#208;&#184;">
<path id="Star 23" d="M323.698 81.4266C327.658 79.0053 332.493 82.817 331.063 87.2328L328.816 94.1697C328.367 95.558 328.546 97.0735 329.307 98.3185L333.111 104.539C335.533 108.499 331.721 113.334 327.305 111.904L320.368 109.658C318.98 109.208 317.464 109.388 316.219 110.149L309.998 113.953C306.038 116.374 301.203 112.562 302.633 108.147L304.88 101.21C305.329 99.8213 305.15 98.3058 304.389 97.0608L300.585 90.8399C298.164 86.88 301.976 82.0449 306.391 83.4749L313.328 85.7213C314.717 86.1709 316.232 85.9916 317.477 85.2303L323.698 81.4266Z" fill="var(--fill-0, #F16DA0)"/>
<path id="Star 25" d="M387.148 94.5787C388.379 90.1034 394.513 89.5746 396.492 93.7733L399.6 100.369C400.222 101.689 401.39 102.672 402.797 103.059L409.827 104.992C414.303 106.223 414.831 112.358 410.633 114.336L404.037 117.445C402.717 118.067 401.734 119.235 401.347 120.642L399.414 127.672C398.183 132.147 392.048 132.676 390.07 128.478L386.961 121.882C386.339 120.562 385.172 119.579 383.765 119.192L376.734 117.258C372.259 116.027 371.73 109.893 375.929 107.914L382.524 104.806C383.844 104.184 384.827 103.016 385.214 101.609L387.148 94.5787Z" fill="var(--fill-0, #01D701)"/>
<path id="Star 26" d="M118.698 252.427C122.658 250.005 127.493 253.817 126.063 258.233L123.816 265.17C123.367 266.558 123.546 268.073 124.307 269.318L128.111 275.539C130.533 279.499 126.721 284.334 122.305 282.904L115.368 280.658C113.98 280.208 112.464 280.388 111.219 281.149L104.998 284.953C101.038 287.374 96.2034 283.562 97.6334 279.147L99.8798 272.21C100.329 270.821 100.15 269.306 99.3888 268.061L95.5851 261.84C93.1638 257.88 96.9755 253.045 101.391 254.475L108.328 256.721C109.717 257.171 111.232 256.992 112.477 256.23L118.698 252.427Z" fill="var(--fill-0, #01D701)"/>
<path id="Star 27" d="M76.6979 127.427C80.6578 125.005 85.493 128.817 84.0629 133.233L81.8165 140.17C81.3669 141.558 81.5462 143.073 82.3075 144.318L86.1112 150.539C88.5325 154.499 84.7208 159.334 80.305 157.904L73.3681 155.658C71.9798 155.208 70.4643 155.388 69.2193 156.149L62.9984 159.953C59.0385 162.374 54.2034 158.562 55.6334 154.147L57.8798 147.21C58.3294 145.821 58.1501 144.306 57.3888 143.061L53.5851 136.84C51.1638 132.88 54.9755 128.045 59.3913 129.475L66.3282 131.721C67.7166 132.171 69.232 131.992 70.477 131.23L76.6979 127.427Z" fill="var(--fill-0, #01D701)"/>
<path id="Star 28" d="M169.495 273.606C170.991 272.691 172.818 274.131 172.277 275.8L171.429 278.42C171.259 278.945 171.327 279.517 171.614 279.988L173.051 282.338C173.966 283.834 172.526 285.661 170.858 285.121L168.237 284.272C167.712 284.102 167.14 284.17 166.669 284.457L164.319 285.894C162.823 286.809 160.997 285.369 161.537 283.701L162.385 281.08C162.555 280.556 162.488 279.983 162.2 279.513L160.763 277.162C159.848 275.666 161.288 273.84 162.956 274.38L165.577 275.229C166.102 275.398 166.674 275.331 167.145 275.043L169.495 273.606Z" fill="var(--fill-0, #F16DA0)"/>
<path id="Star 30" d="M74.4949 204.606C75.9909 203.691 77.8176 205.131 77.2774 206.8L76.4286 209.42C76.2588 209.945 76.3265 210.517 76.6141 210.988L78.0512 213.338C78.9659 214.834 77.5259 216.661 75.8576 216.121L73.2369 215.272C72.7124 215.102 72.1398 215.17 71.6695 215.457L69.3193 216.894C67.8232 217.809 65.9965 216.369 66.5368 214.701L67.3855 212.08C67.5553 211.556 67.4876 210.983 67.2 210.513L65.7629 208.162C64.8482 206.666 66.2882 204.84 67.9565 205.38L70.5772 206.229C71.1017 206.398 71.6743 206.331 72.1446 206.043L74.4949 204.606Z" fill="var(--fill-0, #01D701)"/>
<path id="Star 33" d="M37.4949 245.606C38.9909 244.691 40.8176 246.131 40.2774 247.8L39.4286 250.42C39.2588 250.945 39.3265 251.517 39.6141 251.988L41.0512 254.338C41.9659 255.834 40.5259 257.661 38.8576 257.121L36.2369 256.272C35.7124 256.102 35.1398 256.17 34.6695 256.457L32.3193 257.894C30.8232 258.809 28.9965 257.369 29.5368 255.701L30.3855 253.08C30.5553 252.556 30.4876 251.983 30.2 251.513L28.7629 249.162C27.8482 247.666 29.2882 245.84 30.9565 246.38L33.5772 247.229C34.1017 247.398 34.6743 247.331 35.1446 247.043L37.4949 245.606Z" fill="var(--fill-0, #F16DA0)"/>
<path id="Star 34" d="M452.495 138.606C453.991 137.691 455.818 139.131 455.277 140.8L454.429 143.42C454.259 143.945 454.327 144.517 454.614 144.988L456.051 147.338C456.966 148.834 455.526 150.661 453.858 150.121L451.237 149.272C450.712 149.102 450.14 149.17 449.669 149.457L447.319 150.894C445.823 151.809 443.997 150.369 444.537 148.701L445.385 146.08C445.555 145.556 445.488 144.983 445.2 144.513L443.763 142.162C442.848 140.666 444.288 138.84 445.956 139.38L448.577 140.229C449.102 140.398 449.674 140.331 450.145 140.043L452.495 138.606Z" fill="var(--fill-0, #01D701)"/>
<path id="Star 31" d="M291.495 9.60607C292.991 8.69131 294.818 10.1314 294.277 11.7996L293.429 14.4204C293.259 14.9449 293.327 15.5174 293.614 15.9878L295.051 18.338C295.966 19.8341 294.526 21.6608 292.858 21.1205L290.237 20.2718C289.712 20.1019 289.14 20.1697 288.669 20.4573L286.319 21.8943C284.823 22.8091 282.997 21.369 283.537 19.7008L284.385 17.08C284.555 16.5555 284.488 15.983 284.2 15.5126L282.763 13.1624C281.848 11.6663 283.288 9.83966 284.956 10.3799L287.577 11.2286C288.102 11.3985 288.674 11.3307 289.145 11.0431L291.495 9.60607Z" fill="var(--fill-0, #F16DA0)"/>
<path id="Star 32" d="M356.495 126.606C357.991 125.691 359.818 127.131 359.277 128.8L358.429 131.42C358.259 131.945 358.327 132.517 358.614 132.988L360.051 135.338C360.966 136.834 359.526 138.661 357.858 138.121L355.237 137.272C354.712 137.102 354.14 137.17 353.669 137.457L351.319 138.894C349.823 139.809 347.997 138.369 348.537 136.701L349.385 134.08C349.555 133.556 349.488 132.983 349.2 132.513L347.763 130.162C346.848 128.666 348.288 126.84 349.956 127.38L352.577 128.229C353.102 128.398 353.674 128.331 354.145 128.043L356.495 126.606Z" fill="var(--fill-0, #13AFED)"/>
<path id="Star 29" d="M27.9271 294.67C27.0132 290.12 32.2538 286.888 35.9098 289.747L41.6531 294.24C42.8025 295.139 44.2874 295.491 45.7181 295.204L52.867 293.768C57.4177 292.854 60.6495 298.095 57.7898 301.751L53.2973 307.494C52.3982 308.643 52.0462 310.128 52.3335 311.559L53.7692 318.708C54.683 323.259 49.4425 326.49 45.7865 323.631L40.0432 319.138C38.8937 318.239 37.4089 317.887 35.9782 318.174L28.8293 319.61C24.2786 320.524 21.0468 315.283 23.9065 311.627L28.3989 305.884C29.298 304.735 29.6501 303.25 29.3628 301.819L27.9271 294.67Z" fill="var(--fill-0, #13AFED)"/>
<path id="Star 24" d="M446.872 218.504C450.646 215.802 455.745 219.252 454.639 223.76L452.902 230.842C452.554 232.259 452.843 233.758 453.693 234.944L457.938 240.873C460.64 244.646 457.19 249.745 452.682 248.64L445.6 246.903C444.183 246.555 442.684 246.844 441.498 247.694L435.57 251.939C431.796 254.641 426.697 251.191 427.802 246.683L429.539 239.601C429.887 238.184 429.598 236.685 428.749 235.499L424.503 229.57C421.801 225.797 425.252 220.698 429.76 221.803L436.841 223.54C438.259 223.888 439.757 223.599 440.943 222.749L446.872 218.504Z" fill="var(--fill-0, #13AFED)"/>
<path id="Vector 234257108" d="M139.605 157.072C142.308 157.13 189.52 155.55 175.435 181.529C161.351 207.508 140.557 196.388 146.132 188.702C151.707 181.015 194.777 176.483 197.012 198.131C199.248 219.779 180.856 231.735 181.09 220.957C181.411 206.11 211.497 195.322 222 209.863" stroke="var(--stroke-0, #F16DA0)" stroke-width="6"/>
<path id="Vector 234257109" d="M443.454 121.467C441.179 120.005 400.094 96.6922 425.674 81.8956C451.255 67.099 463.178 87.4427 454.409 91.0852C445.64 94.7276 406.545 76.0963 415.946 56.4681C425.347 36.8399 447.275 36.2517 441.447 45.3203C433.417 57.8134 402.127 51.2979 400.766 33.4125" stroke="var(--stroke-0, #F16DA0)" stroke-width="6"/>
<path id="Vector 234257110" d="M102.454 112.467C100.179 111.005 59.0938 87.6922 84.6742 72.8956C110.255 58.099 122.178 78.4427 113.409 82.0852C104.64 85.7276 65.5455 67.0963 74.9464 47.4681C84.3474 27.8399 106.275 27.2517 100.447 36.3203C92.4174 48.8134 61.1274 42.2979 59.7659 24.4125" stroke="var(--stroke-0, #01D701)" stroke-width="6"/>
</g>
</svg>
