<svg preserveAspectRatio="none" width="100%" height="100%" overflow="visible" style="display: block;" viewBox="0 0 727.743 883.211" fill="none" xmlns="http://www.w3.org/2000/svg">
<g id="BG Decor" opacity="0.5">
<path id="Union" opacity="0.15" d="M312.76 497.937C303.087 514.691 281.662 520.432 264.908 510.759C259.923 507.881 251.403 499.377 241.89 488.844C240.872 487.716 239.145 487.592 237.939 488.516C236.733 489.441 236.413 491.137 237.239 492.413C244.952 504.324 250.967 514.749 252.46 520.318C254.949 529.656 253.43 539.129 248.948 546.892C244.466 554.654 237.013 560.721 227.691 563.219C208.998 568.228 189.785 557.135 184.776 538.443C183.279 532.883 183.274 520.853 183.995 506.688C184.072 505.169 182.946 503.86 181.438 503.662C179.932 503.464 178.499 504.436 178.181 505.922C175.209 519.793 172.085 531.41 169.202 536.403C159.529 553.157 138.103 558.898 121.349 549.225C104.596 539.553 98.8549 518.127 108.527 501.373C111.411 496.379 119.916 487.869 130.44 478.36C131.568 477.34 131.693 475.612 130.768 474.405C129.842 473.198 128.145 472.877 126.867 473.703C114.954 481.41 104.528 487.422 98.9735 488.91C80.2812 493.918 61.0678 482.826 56.0593 464.134C53.5625 454.809 55.0892 445.322 59.571 437.56C64.0526 429.797 71.4974 423.746 80.8282 421.233C86.3915 419.749 98.4318 419.743 112.608 420.464C114.128 420.541 115.437 419.415 115.636 417.906C115.834 416.398 114.862 414.964 113.375 414.646C99.495 411.672 87.869 408.546 82.8832 405.667C66.1295 395.994 60.3884 374.568 70.0612 357.815C79.7339 341.061 101.16 335.32 117.913 344.993C122.901 347.872 131.426 356.382 140.945 366.921C141.962 368.048 143.686 368.173 144.891 367.249C146.096 366.325 146.416 364.631 145.591 363.356C137.879 351.436 131.862 340.997 130.364 335.435C127.874 326.097 129.394 316.624 133.875 308.861C138.357 301.099 145.81 295.032 155.132 292.534C173.829 287.518 193.042 298.61 198.047 317.31C199.535 322.867 199.547 334.917 198.832 349.101C198.756 350.615 199.878 351.919 201.381 352.117C202.884 352.314 204.313 351.346 204.63 349.864C207.608 335.98 210.734 324.346 213.62 319.348C223.292 302.595 244.718 296.854 261.472 306.526C278.226 316.199 283.966 337.625 274.294 354.379C271.414 359.367 262.901 367.895 252.363 377.419C251.239 378.435 251.115 380.157 252.037 381.359C252.959 382.562 254.649 382.881 255.922 382.058C267.848 374.347 278.288 368.334 283.846 366.844C302.543 361.828 321.755 372.92 326.76 391.62C329.256 400.945 327.731 410.431 323.249 418.194C318.768 425.956 311.322 432.008 301.991 434.521C296.421 436.012 284.376 436.02 270.199 435.302C268.684 435.226 267.378 436.348 267.181 437.853C266.983 439.356 267.952 440.785 269.435 441.103C283.32 444.078 294.951 447.205 299.938 450.085C316.692 459.758 322.433 481.183 312.76 497.937Z" fill="var(--fill-0, #00ADEE)"/>
<path id="Union_2" opacity="0.15" d="M667.31 778.538C658.967 792.989 640.486 797.941 626.034 789.598C621.734 787.115 614.386 779.78 606.18 770.694C605.301 769.722 603.812 769.614 602.772 770.412C601.731 771.21 601.455 772.672 602.168 773.773C608.821 784.047 614.009 793.039 615.297 797.843C617.444 805.897 616.133 814.069 612.268 820.765C608.402 827.46 601.973 832.694 593.932 834.848C577.808 839.169 561.235 829.6 556.915 813.477C555.623 808.682 555.619 798.304 556.241 786.086C556.307 784.776 555.336 783.647 554.036 783.476C552.736 783.305 551.5 784.143 551.226 785.425C548.663 797.39 545.968 807.41 543.481 811.718C535.137 826.169 516.656 831.121 502.205 822.778C487.753 814.434 482.801 795.953 491.145 781.502C493.632 777.194 500.968 769.853 510.046 761.651C511.019 760.771 511.127 759.281 510.329 758.24C509.53 757.198 508.066 756.921 506.964 757.634C496.688 764.282 487.695 769.467 482.904 770.751C466.78 775.071 450.207 765.503 445.887 749.38C443.733 741.337 445.05 733.154 448.916 726.458C452.782 719.762 459.204 714.542 467.252 712.374C472.051 711.095 482.436 711.089 494.665 711.711C495.975 711.778 497.105 710.807 497.276 709.505C497.447 708.205 496.609 706.968 495.326 706.693C483.354 704.128 473.325 701.431 469.025 698.948C454.573 690.605 449.621 672.123 457.965 657.672C466.308 643.221 484.789 638.269 499.241 646.612C503.543 649.096 510.896 656.436 519.107 665.527C519.984 666.499 521.472 666.606 522.511 665.81C523.55 665.013 523.826 663.552 523.114 662.452C516.462 652.17 511.272 643.165 509.98 638.368C507.833 630.313 509.143 622.142 513.009 615.446C516.875 608.75 523.304 603.517 531.345 601.362C547.472 597.035 564.045 606.604 568.362 622.734C569.645 627.527 569.656 637.921 569.039 650.155C568.974 651.461 569.941 652.587 571.238 652.757C572.534 652.927 573.767 652.092 574.041 650.814C576.609 638.837 579.305 628.803 581.794 624.492C590.138 610.041 608.619 605.089 623.07 613.432C637.522 621.776 642.474 640.257 634.13 654.708C631.646 659.011 624.303 666.367 615.213 674.582C614.244 675.459 614.137 676.944 614.932 677.981C615.727 679.018 617.186 679.294 618.283 678.584C628.57 671.933 637.576 666.745 642.37 665.461C658.497 661.134 675.069 670.702 679.386 686.832C681.54 694.875 680.224 703.058 676.358 709.753C672.492 716.449 666.07 721.669 658.021 723.836C653.217 725.123 642.827 725.13 630.598 724.511C629.291 724.444 628.165 725.413 627.995 726.711C627.824 728.007 628.66 729.24 629.939 729.514C641.916 732.08 651.949 734.778 656.25 737.262C670.702 745.605 675.654 764.086 667.31 778.538Z" fill="var(--fill-0, #00ADEE)"/>
<path id="Union_3" opacity="0.15" d="M637.484 249.092C628.269 265.052 607.857 270.522 591.897 261.307C587.148 258.565 579.032 250.464 569.969 240.43C568.999 239.355 567.354 239.236 566.205 240.117C565.056 240.998 564.751 242.614 565.538 243.829C572.886 255.177 578.616 265.108 580.038 270.413C582.409 279.309 580.962 288.334 576.693 295.729C572.423 303.124 565.322 308.903 556.442 311.283C538.634 316.055 520.331 305.487 515.559 287.68C514.133 282.384 514.128 270.923 514.815 257.428C514.888 255.981 513.816 254.735 512.38 254.546C510.944 254.358 509.579 255.283 509.276 256.699C506.445 269.913 503.469 280.98 500.722 285.737C491.507 301.697 471.096 307.167 455.136 297.952C439.175 288.737 433.706 268.326 442.921 252.365C445.667 247.608 453.77 239.5 463.796 230.441C464.871 229.47 464.99 227.824 464.108 226.674C463.226 225.524 461.609 225.218 460.392 226.006C449.043 233.348 439.111 239.074 433.819 240.492C416.012 245.263 397.708 234.696 392.937 216.889C390.558 208.006 392.013 198.968 396.282 191.573C400.552 184.178 407.644 178.413 416.533 176.019C421.833 174.606 433.303 174.6 446.808 175.287C448.256 175.36 449.503 174.288 449.693 172.85C449.882 171.414 448.956 170.048 447.539 169.744C434.316 166.911 423.24 163.933 418.491 161.191C402.53 151.976 397.061 131.564 406.276 115.604C415.49 99.6435 435.902 94.1744 451.862 103.389C456.614 106.132 464.735 114.239 473.803 124.279C474.772 125.352 476.415 125.471 477.562 124.592C478.71 123.711 479.015 122.098 478.229 120.883C470.882 109.528 465.15 99.5825 463.723 94.2836C461.352 85.3883 462.799 76.363 467.068 68.968C471.338 61.5732 478.438 55.7935 487.319 53.4138C505.131 48.6351 523.434 59.2027 528.201 77.0173C529.619 82.3114 529.631 93.7904 528.95 107.302C528.877 108.745 529.946 109.988 531.378 110.176C532.81 110.364 534.171 109.441 534.474 108.03C537.31 94.8026 540.288 83.7202 543.037 78.9589C552.252 62.9985 572.663 57.5292 588.624 66.744C604.584 75.9588 610.053 96.3701 600.839 112.331C598.095 117.083 589.985 125.207 579.946 134.28C578.875 135.248 578.757 136.888 579.635 138.034C580.514 139.18 582.124 139.484 583.337 138.7C594.697 131.354 604.644 125.625 609.939 124.206C627.75 119.427 646.053 129.994 650.82 147.809C653.199 156.692 651.746 165.729 647.476 173.124C643.207 180.519 636.114 186.284 627.225 188.678C621.918 190.099 610.443 190.107 596.937 189.423C595.494 189.35 594.25 190.419 594.062 191.852C593.874 193.285 594.797 194.646 596.21 194.949C609.437 197.782 620.518 200.762 625.269 203.505C641.229 212.72 646.698 233.131 637.484 249.092Z" fill="var(--fill-0, #00ADEE)"/>
</g>
</svg>
