<svg preserveAspectRatio="none" width="100%" height="100%" overflow="visible" style="display: block;" viewBox="0 0 245.462 157.458" fill="none" xmlns="http://www.w3.org/2000/svg">
<path id="Vector 234258187" d="M28.863 2.88362C29.6826 0.651614 32.1275 -0.52511 34.3832 0.226796L82.2218 16.1732C82.8119 16.3699 83.4371 16.4392 84.0559 16.3765L126.092 12.1195C126.399 12.0885 126.702 12.0253 126.995 11.9309L138.766 8.14747C140.647 7.5428 142.701 8.26678 143.787 9.91755L169.037 48.2979C169.304 48.7042 169.637 49.0634 170.022 49.3609L217.395 85.9672C217.681 86.1884 217.994 86.3735 218.325 86.5182L242.772 97.1856C245.435 98.3479 246.295 101.725 244.56 104.056C227.596 126.848 190.868 182.746 163.255 144.333C161.872 142.41 142.751 90.0551 84.5871 85.9188C44.0261 83.0343 17.679 85.3481 5.44651 87.0128C1.9918 87.483 -0.926505 84.0158 0.275219 80.7429L28.863 2.88362Z" fill="var(--fill-0, #D9D9D9)"/>
</svg>
