<svg preserveAspectRatio="none" width="100%" height="100%" overflow="visible" style="display: block;" viewBox="0 0 265.252 251.588" fill="none" xmlns="http://www.w3.org/2000/svg">
<g id="Group 2136141820">
<path id="Vector 234258255" d="M38.626 202.719C38.627 152.719 129.626 66.2191 226.626 66.2191" stroke="var(--stroke-0, #FF64A2)" stroke-width="77.25" stroke-linecap="round"/>
<path id="&#209;&#129;&#208;&#190;&#209;&#129;&#208;&#181;&#208;&#180;&#209;&#129;&#208;&#186;&#208;&#184;&#208;&#185;" d="M45.6819 169.462C44.8996 169.942 44.1512 170.58 43.4368 171.378C42.7082 172.141 42.058 173.198 41.486 174.549C40.706 176.39 40.5165 177.932 40.9174 179.173C41.3184 180.414 42.5011 181.451 44.4656 182.283C46.4545 183.125 48.0957 183.284 49.389 182.76C50.6928 182.212 51.8127 180.833 52.7486 178.623C53.2166 177.518 53.5165 176.4 53.6482 175.268C53.7658 174.102 53.7161 173.125 53.4992 172.338L58.6926 174.537C58.7623 175.262 58.7104 176.239 58.5371 177.469C58.3987 178.684 57.9759 180.127 57.2687 181.797C56.4367 183.761 55.5279 185.36 54.5422 186.593C53.5424 187.792 52.4203 188.663 51.1761 189.208C49.9319 189.752 48.5461 189.947 47.0187 189.793C45.4914 189.639 43.7701 189.156 41.8548 188.345C38.417 186.889 36.2324 184.936 35.3011 182.485C34.3451 180.024 34.668 176.903 36.2695 173.122C36.9975 171.403 37.6923 170.104 38.3538 169.226C39.0154 168.348 39.6287 167.652 40.1938 167.138L45.6819 169.462ZM50.9618 168.167C47.7369 166.082 45.8875 163.712 45.4135 161.056C44.9171 158.385 45.7185 155.426 47.8176 152.179C49.9891 148.82 52.347 146.867 54.8911 146.32C57.4129 145.759 60.3198 146.543 63.6119 148.671C66.904 150.798 68.8016 153.168 69.3045 155.779C69.7995 158.354 68.9758 161.298 66.8332 164.613C64.6327 168.017 62.2492 169.985 59.6826 170.517C57.1161 171.049 54.2091 170.266 50.9618 168.167ZM54.6575 162.744C56.3819 163.859 57.8908 164.374 59.184 164.289C60.4548 164.189 61.597 163.356 62.6103 161.788C63.5803 160.287 63.872 158.952 63.4856 157.781C63.0992 156.611 61.999 155.439 60.185 154.267L60.0171 154.158C58.1806 152.971 56.6455 152.423 55.4115 152.515C54.192 152.584 53.0611 153.425 52.0187 155.037C50.9909 156.627 50.6998 158.011 51.1455 159.188C51.5832 160.328 52.7091 161.485 54.5231 162.657L54.6575 162.744ZM74.8781 129.141C73.9854 129.353 73.0753 129.727 72.1478 130.262C71.2179 130.761 70.2707 131.562 69.3065 132.667C67.9916 134.174 67.3313 135.58 67.3256 136.885C67.3199 138.189 68.1208 139.543 69.7283 140.945C71.3559 142.365 72.8658 143.028 74.2579 142.933C75.6676 142.818 77.1614 141.856 78.7393 140.047C79.5282 139.143 80.1615 138.174 80.6392 137.14C81.1143 136.068 81.3714 135.124 81.4104 134.309L85.6602 138.017C85.5006 138.727 85.1469 139.639 84.5991 140.754C84.0889 141.866 83.2378 143.105 82.0456 144.471C80.643 146.079 79.2814 147.315 77.9605 148.18C76.6372 149.007 75.2995 149.486 73.9475 149.616C72.5956 149.746 71.218 149.5 69.8148 148.877C68.4116 148.254 66.9264 147.259 65.359 145.892C62.5459 143.438 61.0786 140.901 60.957 138.283C60.8153 135.646 62.0944 132.781 64.7943 129.686C66.0215 128.28 67.0862 127.262 67.9885 126.634C68.8907 126.005 69.6903 125.535 70.3872 125.223L74.8781 129.141ZM86.2161 126.18C87.3874 127.385 88.5981 127.942 89.8482 127.848C91.1001 127.717 92.4947 126.951 94.0318 125.55C94.6033 125.029 95.1389 124.468 95.6385 123.869C96.1202 123.249 96.5454 122.627 96.9141 122.002C97.2648 121.358 97.5482 120.738 97.7645 120.144C98.0004 119.532 98.1584 118.973 98.2384 118.467L101.903 122.487C101.815 123.182 101.342 124.207 100.487 125.565C99.6313 126.922 98.3758 128.355 96.7204 129.865C95.1438 131.302 93.642 132.346 92.2151 132.998C90.8078 133.631 89.4359 133.907 88.0994 133.827C86.7629 133.746 85.443 133.308 84.1396 132.511C82.8361 131.715 81.5107 130.578 80.1634 129.1C77.6482 126.341 76.5081 123.646 76.7431 121.014C76.9798 118.345 78.4481 115.779 81.1479 113.318C82.626 111.97 84.0194 111.025 85.3281 110.481C86.6565 109.92 87.9316 109.695 89.1534 109.808C90.3948 109.903 91.5748 110.307 92.6933 111.02C93.8136 111.694 94.9037 112.613 95.9637 113.775L97.7153 115.697L86.2161 126.18ZM84.2661 116.916C83.0836 117.994 82.4582 119.069 82.3897 120.142C82.3212 121.215 82.7694 122.34 83.7343 123.517L90.5629 117.292C89.6124 116.21 88.6304 115.608 87.6167 115.485C86.6048 115.325 85.4879 115.802 84.2661 116.916ZM101.327 117.721L103.397 116.214C103.122 114.568 102.397 112.688 101.222 110.574C100.047 108.461 98.5765 106.168 96.8095 103.694L95.524 101.859L109.788 91.4802L119.343 104.611L121.93 102.729L128.143 111.267L123.389 114.727L120.329 110.522L109.267 118.571L112.327 122.776L107.54 126.259L101.327 117.721ZM107.766 99.5798L103.303 102.828L104.071 103.951C105.063 105.405 105.953 106.901 106.742 108.438C107.515 109.953 108.071 111.329 108.41 112.566L114.168 108.377L107.766 99.5798ZM135.279 83.6902C134.365 83.6092 133.383 83.6763 132.334 83.8914C131.294 84.07 130.142 84.5312 128.878 85.275C127.154 86.2893 126.083 87.4144 125.666 88.6502C125.248 89.886 125.58 91.4232 126.662 93.2619C127.757 95.1235 128.98 96.2293 130.331 96.5792C131.705 96.9157 133.426 96.4754 135.494 95.2582C136.529 94.6497 137.436 93.9303 138.216 93.1C139.006 92.2332 139.548 91.4192 139.842 90.658L142.702 95.5188C142.327 96.1422 141.703 96.896 140.831 97.7804C139.995 98.6742 138.796 99.5809 137.233 100.501C135.394 101.582 133.712 102.325 132.185 102.728C130.668 103.095 129.248 103.126 127.924 102.822C126.601 102.518 125.371 101.849 124.237 100.815C123.102 99.7806 122.008 98.3671 120.953 96.5745C119.06 93.3569 118.47 90.4866 119.182 87.9636C119.881 85.4176 122 83.1033 125.539 81.0206C127.148 80.074 128.48 79.4451 129.535 79.134C130.589 78.8229 131.496 78.6294 132.256 78.5536L135.279 83.6902ZM151.266 83.1919L148.77 84.3703L152.322 91.8937L146.571 94.6093L137.349 75.0773L143.101 72.3618L146.584 79.7406L148.899 78.6475L149.865 69.1681L156.52 66.0256L154.743 78.1886L166.646 85.1306L159.629 88.4438L151.266 83.1919ZM161.488 64.0658L167.486 61.9494L170.64 70.889C170.924 71.6937 171.156 72.4319 171.336 73.1034C171.533 73.741 171.704 74.3452 171.848 74.9162L171.962 74.8763C172.101 74.1485 172.237 73.4925 172.37 72.9082C172.52 72.29 172.694 71.6206 172.892 70.9003L175.898 58.9812L181.594 56.9713L188.78 77.3401L182.782 79.4565L179.801 71.0072C179.491 70.1271 179.215 69.3054 178.974 68.5421C178.724 67.7537 178.518 67.0488 178.355 66.4275L178.28 66.4542C178.164 67.0887 178.041 67.7403 177.909 68.4089C177.793 69.0435 177.637 69.7209 177.438 70.4413L174.37 82.4247L168.674 84.4346L161.488 64.0658ZM188.268 55.0565L194.474 53.6679L196.544 62.919C196.73 63.7518 196.873 64.5123 196.972 65.2005C197.091 65.8569 197.189 66.4772 197.265 67.0613L197.382 67.0351C197.607 66.3291 197.82 65.6939 198.022 65.1296C198.244 64.5334 198.496 63.8895 198.778 63.1978L203.179 51.7203L209.074 50.4015L213.789 71.4801L207.582 72.8688L205.626 64.125C205.422 63.2142 205.246 62.3656 205.098 61.5791C204.943 60.7665 204.822 60.0422 204.734 59.406L204.656 59.4234C204.466 60.0398 204.266 60.6721 204.056 61.3203C203.866 61.9366 203.63 62.5906 203.347 63.2823L198.877 74.8164L192.982 76.1351L188.268 55.0565ZM197.996 49.8058C197.059 50.0154 196.135 50.0992 195.224 50.0571C194.333 49.9832 193.504 49.7588 192.737 49.3839C191.996 49.0031 191.337 48.4401 190.761 47.6947C190.178 46.9233 189.753 45.939 189.485 44.742L193.935 43.7463C194.197 44.9174 194.624 45.7237 195.214 46.1654C195.799 46.5811 196.482 46.7015 197.263 46.5269C198.043 46.3522 198.623 45.9493 199.001 45.3182C199.373 44.6611 199.428 43.7471 199.166 42.576L203.538 41.5979C203.806 42.7949 203.841 43.8665 203.643 44.8126C203.438 45.7327 203.069 46.5257 202.535 47.1917C202.027 47.8519 201.373 48.4082 200.572 48.8606C199.792 49.2811 198.933 49.5962 197.996 49.8058Z" fill="var(--fill-0, white)"/>
</g>
</svg>
