<svg preserveAspectRatio="none" width="100%" height="100%" overflow="visible" style="display: block;" viewBox="0 0 303.69 311.749" fill="none" xmlns="http://www.w3.org/2000/svg">
<g id="Group 2136141820">
<path id="Vector 234258255" d="M38.6264 255.238C40.5109 192.871 118.608 87.7188 221.274 93.3937" stroke="var(--stroke-0, #FF64A2)" stroke-width="77.25" stroke-linecap="round"/>
<path id="&#208;&#191;&#209;&#131;&#209;&#136;&#208;&#184;&#209;&#129;&#209;&#130;&#209;&#139;&#208;&#185;" d="M32.8268 229.736L40.3595 210.519L60.4698 218.401L58.1487 224.323L43.2149 218.47L40.3244 225.843L55.2582 231.696L52.9371 237.618L32.8268 229.736ZM66.5955 211.743C66.8806 211.23 66.9676 210.744 66.8564 210.286C66.7581 209.804 66.3776 209.226 65.7148 208.553L42.2376 206.163L45.7367 199.871L60.4062 202.214L50.1495 191.935L53.3376 186.201L68.1686 202.823C69.3518 204.152 70.2734 205.321 70.9335 206.328C71.6065 207.313 72.0555 208.234 72.2805 209.091C72.5418 209.938 72.6024 210.735 72.4622 211.48C72.335 212.203 72.0511 212.961 71.6105 213.753C71.3124 214.289 70.9547 214.822 70.5375 215.353C70.1566 215.874 69.8055 216.258 69.4842 216.507L64.6443 213.77C64.9759 213.558 65.3167 213.274 65.6665 212.92C66.0396 212.578 66.3492 212.185 66.5955 211.743ZM55.976 182.444L59.7888 177.353L72.7871 187.088L76.1683 182.574L63.17 172.839L67.0068 167.717L80.0051 177.451L83.3863 172.937L70.388 163.202L74.2008 158.112L91.4891 171.06L73.2643 195.392L55.976 182.444ZM78.7407 152.769L83.1499 148.185L89.9821 154.757C90.5971 155.348 91.136 155.904 91.5987 156.423C92.0607 156.904 92.4846 157.367 92.8704 157.812L92.9536 157.726C92.7512 157.013 92.5783 156.366 92.435 155.784C92.2909 155.164 92.1458 154.488 91.9996 153.756L89.3337 141.756L93.521 137.403L109.088 152.376L104.679 156.96L98.2216 150.749C97.5489 150.102 96.9335 149.492 96.3755 148.918C95.7982 148.325 95.2974 147.788 94.8731 147.306L94.8176 147.364C94.9994 147.983 95.1815 148.62 95.364 149.277C95.5457 149.896 95.7097 150.571 95.856 151.304L98.4952 163.389L94.3079 167.742L78.7407 152.769ZM116.121 126.156C115.208 126.245 114.256 126.493 113.264 126.898C112.276 127.265 111.229 127.931 110.124 128.896C108.617 130.211 107.772 131.515 107.59 132.806C107.408 134.098 108.018 135.547 109.421 137.155C110.841 138.782 112.248 139.643 113.64 139.737C115.052 139.814 116.662 139.063 118.47 137.485C119.375 136.696 120.133 135.821 120.746 134.861C121.362 133.864 121.745 132.963 121.894 132.161L125.603 136.41C125.348 137.092 124.874 137.948 124.181 138.978C123.525 140.011 122.514 141.123 121.147 142.316C119.54 143.719 118.024 144.759 116.598 145.437C115.175 146.078 113.785 146.371 112.428 146.317C111.07 146.263 109.739 145.832 108.433 145.025C107.127 144.218 105.79 143.032 104.422 141.465C101.967 138.652 100.857 135.94 101.091 133.329C101.307 130.698 102.963 128.032 106.057 125.331C107.463 124.104 108.656 123.24 109.635 122.739C110.614 122.239 111.469 121.881 112.202 121.666L116.121 126.156ZM124.003 118.583L118.404 122.786L115.066 118.339L131.381 106.091L134.719 110.537L129.121 114.74L138.751 127.567L133.633 131.41L124.003 118.583ZM143.975 105.368C144.49 104.984 144.906 104.693 145.223 104.496C145.548 104.262 145.983 103.976 146.526 103.638C148.065 102.679 149.44 102.011 150.651 101.635C151.861 101.258 152.941 101.151 153.891 101.314C154.863 101.462 155.727 101.866 156.484 102.526C157.263 103.172 157.997 104.049 158.688 105.159C159.365 106.245 159.801 107.324 159.997 108.396C160.216 109.453 160.135 110.509 159.754 111.563C159.374 112.616 158.659 113.689 157.612 114.782C156.587 115.86 155.168 116.963 153.357 118.09C152.135 118.851 151.005 119.508 149.966 120.06C148.965 120.621 147.888 121.213 146.737 121.836L135.32 103.5L140.719 100.138L143.975 105.368ZM149.615 114.578C149.924 114.417 150.209 114.27 150.472 114.138C150.722 113.983 151.038 113.786 151.423 113.546C152.782 112.7 153.528 111.906 153.662 111.163C153.805 110.383 153.601 109.551 153.051 108.668C152.798 108.261 152.527 107.927 152.239 107.666C151.937 107.383 151.598 107.217 151.222 107.169C150.855 107.083 150.421 107.118 149.92 107.273C149.406 107.405 148.809 107.682 148.13 108.105C147.835 108.288 147.559 108.476 147.302 108.667C147.044 108.859 146.73 109.086 146.359 109.349L149.615 114.578ZM153.385 92.2519L158.784 88.8901L170.201 107.226L164.801 110.587L153.385 92.2519ZM164.734 85.5684L170.43 82.7382L174.648 91.2277C175.028 91.9919 175.348 92.6963 175.609 93.3409C175.882 93.9498 176.125 94.5288 176.338 95.0779L176.445 95.0245C176.495 94.2852 176.55 93.6175 176.611 93.0214C176.685 92.3895 176.776 91.704 176.885 90.9649L178.419 78.7688L183.828 76.081L193.439 95.4243L187.743 98.2544L183.756 90.2306C183.341 89.3948 182.967 88.6127 182.635 87.8844C182.291 87.1323 182.001 86.4577 181.764 85.8609L181.692 85.8965C181.655 86.5404 181.611 87.2021 181.562 87.8818C181.524 88.5257 181.451 89.2172 181.342 89.9563L179.754 102.224L174.345 104.912L164.734 85.5684ZM172.928 78.147C172.068 78.5742 171.191 78.8762 170.296 79.0528C169.413 79.1938 168.555 79.1738 167.72 78.9928C166.91 78.8 166.136 78.4105 165.398 77.8243C164.648 77.2143 164 76.36 163.454 75.2615L167.538 73.2323C168.072 74.3069 168.679 74.9882 169.358 75.2761C170.025 75.5401 170.717 75.4941 171.433 75.1381C172.15 74.7821 172.616 74.2525 172.833 73.5495C173.037 72.8225 172.872 71.9217 172.338 70.8471L176.351 68.8535C176.896 69.952 177.186 70.9843 177.219 71.9503C177.241 72.8925 177.072 73.7508 176.712 74.525C176.376 75.2874 175.873 75.9838 175.204 76.6143C174.547 77.2089 173.788 77.7198 172.928 78.147Z" fill="var(--fill-0, white)"/>
</g>
</svg>
