<svg preserveAspectRatio="none" width="100%" height="100%" overflow="visible" style="display: block;" viewBox="0 0 444.619 344.618" fill="none" xmlns="http://www.w3.org/2000/svg">
<path id="Vector 234258260" d="M274.042 0.563473L333.883 8.9525L376.947 41.3901V49.2198L400.436 56.4903L396.521 76.0647V111.858L436.23 154.362C438.839 173.937 444.059 213.757 444.059 216.441C444.059 219.126 438.839 254.471 436.23 271.809L395.403 298.654C397.64 304.433 397.304 317.109 378.066 321.584C358.827 326.058 354.763 325.312 355.136 324.38C352.526 329.227 341.937 338.585 320.461 337.243C314.868 341.158 298.873 347.534 279.634 341.717L272.364 337.802C247.01 339.107 189.145 338.362 160.51 324.939C124.717 308.161 100.668 303.128 74.942 282.994C49.2156 262.86 0.559269 164.429 0.559269 154.362C0.559269 146.309 61.706 61.5238 92.2793 20.1379L274.042 0.563473Z" fill="var(--fill-0, #D9D9D9)" stroke="var(--stroke-0, black)" stroke-width="1.11854"/>
</svg>
