<svg preserveAspectRatio="none" width="100%" height="100%" overflow="visible" style="display: block;" viewBox="0 0 60.9234 60.8382" fill="none" xmlns="http://www.w3.org/2000/svg">
<path id="Vector" fill-rule="evenodd" clip-rule="evenodd" d="M43.6809 11.1118L49.6129 6.75507C44.1918 2.36995 37.4367 0 30.4688 0C26.4668 0 22.5075 0.780523 18.8177 2.31319C15.5821 3.64717 12.6161 5.53462 10.0333 7.87619C6.86861 10.7145 4.34255 14.1913 2.6254 18.0798C0.879863 21.954 0 26.1688 0 30.412C0 34.3998 0.780523 38.3592 2.31319 42.0489C3.64717 45.2703 5.53462 48.2363 7.87619 50.8192C10.7286 53.9838 14.2197 56.4957 18.1081 58.227C21.883 59.9016 25.9701 60.7957 30.0998 60.8382C30.2275 60.8382 30.3411 60.8382 30.4688 60.8382C34.4707 60.8382 38.4301 60.0577 42.1199 58.5251C45.3413 57.1911 48.3215 55.3036 50.9043 52.9762C54.069 50.138 56.595 46.6469 58.3122 42.7727C60.0435 38.8842 60.9234 34.6836 60.9234 30.4262C60.9234 28.5955 60.7673 26.779 60.4409 24.9767L53.8845 29.8018V30.4262C53.8845 33.6902 53.2033 36.9258 51.8693 39.9202C50.5353 42.9004 48.5911 45.5826 46.1644 47.768C44.1776 49.5703 41.8928 51.0178 39.4093 52.0396C36.5711 53.2175 33.5199 53.8135 30.4404 53.8135C27.1622 53.8135 23.9266 53.1323 20.9322 51.7984C17.9378 50.4644 15.2557 48.5344 13.0702 46.1076C11.2679 44.135 9.8204 41.8502 8.79863 39.3809C7.62075 36.5427 7.01052 33.4915 7.02471 30.4262C7.02471 30.0289 7.02471 29.6457 7.05309 29.2625C7.19501 26.3959 7.862 23.5718 9.03988 20.9464C10.2178 18.3068 11.864 15.9227 13.9075 13.8933C16.0788 11.7362 18.6616 10.0049 21.4999 8.82701C24.3381 7.64913 27.3893 7.0389 30.4546 7.0389C30.852 7.0389 31.2351 7.0389 31.6183 7.06728C35.9183 7.28015 40.0905 8.6709 43.6525 11.1118H43.6809ZM54.5799 11.8214C56.0274 13.6946 57.2478 15.724 58.227 17.8669L30.4688 38.2882L18.8745 31.0223V22.2946L30.4688 29.5464L54.5657 11.8072L54.5799 11.8214Z" fill="var(--fill-0, white)"/>
</svg>
