<svg preserveAspectRatio="none" width="100%" height="100%" overflow="visible" style="display: block;" viewBox="0 0 367.243 367.251" fill="none" xmlns="http://www.w3.org/2000/svg">
<path id="Union" opacity="0.2" d="M183.621 0C208.972 0 229.526 20.5544 229.526 45.9061C229.526 53.4499 225.457 68.6903 219.737 86.3884C219.125 88.2832 220.114 90.3241 221.954 91.0867C223.794 91.8497 225.928 91.1017 226.835 89.328C235.299 72.7706 243.188 59.113 248.531 53.7703C257.497 44.8271 269.244 40.3436 280.99 40.3436C292.735 40.3437 304.504 44.8274 313.447 53.7703C331.379 71.7024 331.379 100.776 313.447 118.708C308.119 124.05 294.469 131.939 277.922 140.402C276.147 141.309 275.4 143.444 276.163 145.285C276.926 147.125 278.967 148.115 280.862 147.502C298.55 141.786 313.781 137.72 321.338 137.72C346.689 137.72 367.243 158.274 367.243 183.626C367.243 208.977 346.689 229.532 321.338 229.532C313.781 229.532 298.55 225.455 280.863 219.743C278.966 219.13 276.924 220.12 276.16 221.961C275.396 223.803 276.144 225.94 277.92 226.848C294.471 235.318 308.125 243.212 313.454 248.541C331.385 266.473 331.385 295.546 313.454 313.478C304.508 322.421 292.741 326.905 280.995 326.905C269.249 326.905 257.503 322.421 248.537 313.478C243.209 308.137 235.313 294.476 226.842 277.915C225.934 276.14 223.798 275.392 221.956 276.155C220.115 276.917 219.124 278.96 219.737 280.857C225.456 298.558 229.526 313.801 229.526 321.345C229.526 346.697 208.972 367.251 183.621 367.251C158.27 367.251 137.716 346.697 137.716 321.345C137.716 313.798 141.788 298.547 147.512 280.839C148.124 278.946 147.136 276.908 145.298 276.146C143.46 275.384 141.328 276.131 140.422 277.902C131.948 294.465 124.042 308.133 118.712 313.478C109.746 322.421 97.999 326.905 86.253 326.905C74.5072 326.905 62.7384 322.421 53.7955 313.478C35.8524 295.546 35.8524 266.473 53.7955 248.541C59.1273 243.211 72.7937 235.301 89.3586 226.819C91.1269 225.913 91.8722 223.785 91.1116 221.95C90.3512 220.115 88.3158 219.128 86.4258 219.739C68.7182 225.457 53.4676 229.532 45.905 229.532C20.5539 229.532 0 208.977 0 183.626C0 158.274 20.5539 137.72 45.905 137.72C53.4536 137.72 68.7094 141.793 86.4222 147.512C88.3119 148.122 90.3471 147.135 91.1076 145.301C91.8684 143.466 91.1233 141.338 89.3552 140.433C72.7906 131.951 59.1245 124.042 53.7929 118.711C35.8497 100.778 35.8497 71.7064 53.7929 53.7742C62.7387 44.8311 74.5043 40.3463 86.2503 40.3463C97.9963 40.3463 109.742 44.8311 118.708 53.7742C124.05 59.1187 131.952 72.7834 140.426 89.3431C141.331 91.113 143.461 91.8589 145.298 91.0975C147.133 90.3365 148.12 88.3 147.509 86.4094C141.787 68.7021 137.716 53.4527 137.716 45.9061C137.716 20.5544 158.27 0 183.621 0Z" fill="var(--fill-0, white)"/>
</svg>
