<svg preserveAspectRatio="none" width="100%" height="100%" overflow="visible" style="display: block;" viewBox="0 0 347.997 348.005" fill="none" xmlns="http://www.w3.org/2000/svg">
<path id="Union" opacity="0.2" d="M173.998 0C198.021 0 217.498 19.4772 217.498 43.5003C217.498 50.6488 213.642 65.0906 208.222 81.8612C207.641 83.6566 208.579 85.5906 210.322 86.3133C212.066 87.0362 214.088 86.3275 214.947 84.6467C222.968 68.957 230.444 56.0151 235.506 50.9524C244.002 42.4779 255.134 38.2294 266.264 38.2294C277.394 38.2295 288.546 42.4782 297.021 50.9524C314.013 67.9448 314.013 95.4945 297.021 112.487C291.972 117.549 279.037 125.024 263.357 133.044C261.676 133.904 260.967 135.927 261.69 137.671C262.413 139.415 264.347 140.352 266.143 139.772C282.904 134.355 297.337 130.502 304.498 130.502C328.52 130.502 347.997 149.979 347.997 174.003C347.997 198.026 328.52 217.503 304.498 217.503C297.337 217.503 282.904 213.64 266.144 208.227C264.347 207.646 262.411 208.585 261.688 210.329C260.964 212.075 261.673 214.099 263.355 214.96C279.039 222.986 291.978 230.466 297.027 235.516C314.018 252.508 314.019 280.058 297.027 297.05C288.55 305.525 277.4 309.773 266.269 309.773C255.139 309.773 244.009 305.524 235.513 297.05C230.463 291.989 222.981 279.044 214.954 263.351C214.094 261.669 212.07 260.959 210.324 261.683C208.579 262.405 207.641 264.341 208.221 266.138C213.641 282.912 217.498 297.356 217.498 304.505C217.498 328.528 198.021 348.005 173.998 348.005C149.976 348.005 130.499 328.528 130.499 304.505C130.499 297.353 134.357 282.902 139.781 266.121C140.361 264.328 139.425 262.396 137.684 261.674C135.942 260.952 133.922 261.66 133.063 263.338C125.033 279.033 117.542 291.985 112.491 297.05C103.995 305.525 92.8632 309.773 81.7328 309.773C70.6026 309.773 59.4505 305.524 50.9763 297.05C33.9735 280.058 33.9736 252.508 50.9763 235.516C56.0286 230.465 68.9789 222.97 84.6757 214.932C86.3514 214.074 87.0576 212.058 86.3368 210.318C85.6162 208.58 83.6875 207.645 81.8966 208.223C65.117 213.642 50.6656 217.503 43.4993 217.503C19.4768 217.503 0 198.026 0 174.003C0 149.979 19.4768 130.502 43.4993 130.502C50.6523 130.502 65.1087 134.362 81.8932 139.781C83.6839 140.359 85.6123 139.424 86.3331 137.686C87.054 135.947 86.3479 133.931 84.6725 133.073C68.9759 125.036 56.0261 117.542 50.9738 112.489C33.971 95.497 33.971 67.9486 50.9738 50.9562C59.4508 42.4817 70.5998 38.2319 81.7303 38.2319C92.8607 38.2319 103.991 42.4817 112.487 50.9562C117.549 56.0206 125.037 68.9691 133.067 84.661C133.925 86.3381 135.943 87.0449 137.683 86.3234C139.423 85.6023 140.358 83.6726 139.779 81.881C134.357 65.1017 130.499 50.6515 130.499 43.5003C130.499 19.4772 149.976 0 173.998 0Z" fill="var(--fill-0, white)"/>
</svg>
