<svg preserveAspectRatio="none" width="100%" height="100%" overflow="visible" style="display: block;" viewBox="0 0 341.803 341.811" fill="none" xmlns="http://www.w3.org/2000/svg">
<path id="Union" opacity="0.2" d="M170.902 0C194.497 0 213.627 19.1306 213.627 42.7261C213.627 49.7473 209.84 63.9321 204.516 80.4042C203.946 82.1677 204.867 84.0672 206.579 84.777C208.292 85.4872 210.278 84.791 211.122 83.1401C218.999 67.7297 226.342 55.0182 231.315 50.0455C239.66 41.7219 250.593 37.549 261.525 37.549C272.457 37.5491 283.411 41.7222 291.734 50.0455C308.424 66.7355 308.424 93.7949 291.734 110.485C286.776 115.457 274.071 122.799 258.67 130.676C257.018 131.521 256.322 133.508 257.033 135.221C257.743 136.934 259.643 137.854 261.406 137.284C277.869 131.964 292.045 128.18 299.078 128.18C322.673 128.18 341.803 147.31 341.803 170.906C341.803 194.501 322.673 213.632 299.078 213.632C292.045 213.632 277.869 209.838 261.407 204.521C259.642 203.951 257.741 204.872 257.03 206.586C256.319 208.3 257.015 210.289 258.668 211.134C274.073 219.017 286.781 226.365 291.74 231.324C308.429 248.014 308.43 275.074 291.74 291.763C283.414 300.087 272.462 304.26 261.53 304.26C250.598 304.26 239.666 300.087 231.321 291.763C226.361 286.792 219.012 274.078 211.128 258.664C210.283 257.011 208.295 256.315 206.581 257.025C204.867 257.735 203.945 259.636 204.515 261.402C209.839 277.876 213.627 292.063 213.627 299.085C213.627 322.681 194.497 341.811 170.902 341.811C147.307 341.811 128.177 322.681 128.177 299.085C128.177 292.061 131.966 277.867 137.294 261.385C137.863 259.623 136.943 257.726 135.233 257.017C133.522 256.308 131.538 257.003 130.695 258.652C122.807 274.067 115.45 286.789 110.488 291.763C102.144 300.087 91.2105 304.26 80.2781 304.26C69.346 304.26 58.3924 300.087 50.0691 291.763C33.3688 275.073 33.3689 248.014 50.0691 231.324C55.0314 226.363 67.7512 219.002 83.1686 211.107C84.8145 210.264 85.5081 208.283 84.8001 206.575C84.0924 204.868 82.198 203.949 80.439 204.517C63.958 209.84 49.7639 213.632 42.7251 213.632C19.1301 213.632 0 194.501 0 170.906C0 147.31 19.1301 128.18 42.7251 128.18C49.7508 128.18 63.9499 131.971 80.4356 137.293C82.1945 137.861 84.0886 136.943 84.7965 135.235C85.5046 133.528 84.811 131.547 83.1655 130.705C67.7483 122.811 55.0289 115.45 50.0666 110.487C33.3664 93.7974 33.3664 66.7393 50.0666 50.0492C58.3927 41.7256 69.3433 37.5515 80.2757 37.5515C91.208 37.5515 102.14 41.7256 110.485 50.0492C115.457 55.0235 122.811 67.7416 130.698 83.1542C131.541 84.8015 133.524 85.4957 135.233 84.787C136.941 84.0788 137.86 82.1834 137.291 80.4237C131.966 63.943 128.177 49.75 128.177 42.7261C128.177 19.1306 147.307 0 170.902 0Z" fill="var(--fill-0, white)"/>
</svg>
