<svg preserveAspectRatio="none" width="100%" height="100%" overflow="visible" style="display: block;" viewBox="0 0 167.842 167.846" fill="none" xmlns="http://www.w3.org/2000/svg">
<path id="Union" opacity="0.2" d="M83.9212 0C95.5075 0 104.901 9.39407 104.901 20.9806C104.901 24.4284 103.042 31.3938 100.427 39.4825C100.148 40.3484 100.6 41.2812 101.44 41.6297C102.281 41.9784 103.257 41.6366 103.671 40.8259C107.54 33.2586 111.145 27.0166 113.587 24.5748C117.685 20.4875 123.053 18.4384 128.422 18.4384C133.79 18.4384 139.169 20.4877 143.256 24.5748C151.451 32.7705 151.451 46.0579 143.256 54.2535C140.821 56.6951 134.583 60.3004 127.02 64.1685C126.209 64.5832 125.867 65.559 126.216 66.4003C126.564 67.2411 127.497 67.6934 128.363 67.4135C136.448 64.8008 143.409 62.9425 146.862 62.9425C158.448 62.9426 167.842 72.3366 167.842 83.9232C167.842 95.5097 158.448 104.904 146.862 104.904C143.409 104.904 136.448 103.041 128.364 100.43C127.497 100.15 126.564 100.602 126.215 101.444C125.865 102.286 126.207 103.262 127.019 103.677C134.583 107.548 140.824 111.156 143.259 113.592C151.454 121.787 151.454 135.075 143.259 143.27C139.17 147.358 133.793 149.407 128.424 149.407C123.056 149.407 117.688 147.357 113.59 143.27C111.155 140.829 107.546 134.586 103.675 127.017C103.26 126.205 102.283 125.863 101.441 126.212C100.6 126.561 100.147 127.494 100.427 128.361C103.041 136.451 104.901 143.418 104.901 146.866C104.901 158.452 95.5075 167.846 83.9212 167.846C72.3348 167.846 62.9411 158.452 62.941 146.866C62.941 143.416 64.8019 136.446 67.418 128.353C67.6975 127.488 67.246 126.556 66.4063 126.208C65.5662 125.86 64.5918 126.201 64.1775 127.011C60.3045 134.58 56.6915 140.827 54.2553 143.27C50.1576 147.358 44.7889 149.407 39.4205 149.407C34.0523 149.407 28.6736 147.357 24.5864 143.27C16.3857 135.075 16.3858 121.787 24.5864 113.592C27.0232 111.156 33.2692 107.541 40.8399 103.664C41.6481 103.25 41.9887 102.277 41.6411 101.439C41.2935 100.6 40.3633 100.149 39.4995 100.428C31.4066 103.042 24.4365 104.904 20.9801 104.904C9.39384 104.904 0 95.5097 0 83.9232C0 72.3366 9.39384 62.9426 20.9801 62.9425C24.4301 62.9425 31.4025 64.8041 39.4979 67.4179C40.3616 67.6967 41.2917 67.2457 41.6393 66.4073C41.987 65.5687 41.6464 64.5963 40.8384 64.1825C33.2678 60.3062 27.0219 56.6916 24.5852 54.2548C16.3845 46.0592 16.3845 32.7723 24.5852 24.5767C28.6737 20.4893 34.051 18.4396 39.4193 18.4396C44.7877 18.4396 50.1558 20.4893 54.2535 24.5767C56.6952 27.0193 60.3065 33.2645 64.1794 40.8328C64.5933 41.6417 65.5667 41.9826 66.4061 41.6346C67.2449 41.2868 67.696 40.3561 67.4168 39.492C64.8016 31.3992 62.941 24.4297 62.941 20.9806C62.9411 9.39407 72.3348 0 83.9212 0Z" fill="var(--fill-0, white)"/>
</svg>
