<svg preserveAspectRatio="none" width="100%" height="100%" overflow="visible" style="display: block;" viewBox="0 0 194.976 18.1472" fill="none" xmlns="http://www.w3.org/2000/svg">
<g id="sberinsurance H">
<g id="Group 2131327911">
<path id="Vector" d="M81.7128 13.3611C81.5496 13.5545 81.3577 13.7217 81.1438 13.857C80.8706 14.0325 80.5798 14.1788 80.276 14.2934C79.4992 14.5905 78.6741 14.7414 77.8424 14.7384C77.0143 14.7495 76.1906 14.6173 75.4075 14.3479C74.7169 14.1091 74.0836 13.7291 73.5479 13.2322C73.0241 12.7359 72.6142 12.1319 72.3466 11.4618C72.0472 10.705 71.8997 9.89657 71.9127 9.08276C71.9038 8.30838 72.0466 7.53975 72.333 6.82023C72.6038 6.149 73.0136 5.54269 73.5355 5.04121C74.0761 4.52817 74.7162 4.13154 75.4162 3.87585C76.2041 3.59136 77.037 3.4515 77.8746 3.46302C78.6276 3.44726 79.378 3.55703 80.095 3.78783C80.5911 3.94408 81.0637 4.16722 81.4996 4.45109V7.16612C81.1169 6.63111 80.6229 6.18533 80.0516 5.85944C79.7316 5.67712 79.3912 5.53314 79.0375 5.43049C78.6599 5.31923 78.2682 5.26368 77.8746 5.2656C77.3245 5.25747 76.7777 5.35294 76.2629 5.54702C75.8077 5.71944 75.3934 5.98504 75.0468 6.32682C74.7069 6.66977 74.4459 7.08268 74.2818 7.5368C74.1014 8.03838 74.0128 8.56836 74.0202 9.10135C74.0186 9.60767 74.1024 10.1106 74.2682 10.589C74.4207 11.0455 74.6707 11.4633 75.0008 11.8135C75.3309 12.1638 75.7332 12.438 76.1799 12.6173C76.7053 12.8298 77.2669 12.9385 77.8337 12.9371C78.2782 12.9412 78.7215 12.8887 79.1528 12.7809C79.5325 12.6855 79.8992 12.5443 80.245 12.3606C80.5605 12.1935 80.8524 11.9851 81.1128 11.7408C81.3534 11.5129 81.5582 11.25 81.7203 10.961L81.7128 13.3611Z" fill="var(--fill-0, #122654)"/>
<path id="Vector_2" d="M91.9067 5.43132H88.2234V14.5595H86.2733V5.43132H82.652V3.63618H91.9067V5.43132Z" fill="var(--fill-0, #122654)"/>
<path id="Vector_3" d="M95.5671 11.1577V14.5595H93.6158V3.63618H97.2519C98.9793 3.63618 100.23 3.9457 101.005 4.56475C101.779 5.18379 102.167 6.10739 102.167 7.33556C102.167 8.61497 101.751 9.57205 100.919 10.2068C100.087 10.8415 98.8644 11.1585 97.2519 11.1577H95.5671ZM95.5671 5.43132V9.36378H97.392C98.3086 9.36378 98.9954 9.20509 99.4525 8.88772C99.9095 8.57034 100.138 8.03725 100.139 7.28845C100.139 6.61156 99.926 6.13302 99.4996 5.85284C99.0731 5.57265 98.3809 5.43215 97.423 5.43132H95.5671Z" fill="var(--fill-0, #122654)"/>
<path id="Vector_4" d="M113.472 14.5595H111.397L110.348 11.9697H105.342L104.312 14.5595H102.328L106.76 3.63618H108.984L113.472 14.5595ZM109.629 10.1746L107.839 5.69663L106.045 10.1746H109.629Z" fill="var(--fill-0, #122654)"/>
<path id="Vector_5" d="M117.979 9.00425L114.281 3.63618H116.621L119.414 7.77195L122.379 3.63618H124.642L120.741 8.89515L124.783 14.5595H122.457L119.351 10.1597L116.356 14.5595H114.077L117.979 9.00425Z" fill="var(--fill-0, #122654)"/>
<path id="Vector_6" d="M125.177 9.08201C125.169 8.30825 125.309 7.54009 125.591 6.81949C125.855 6.15056 126.256 5.54448 126.769 5.04046C127.296 4.52926 127.924 4.13252 128.611 3.87511C129.385 3.59002 130.205 3.45007 131.03 3.46228C131.845 3.4525 132.656 3.58465 133.425 3.85279C134.113 4.09064 134.743 4.47083 135.274 4.96856C135.793 5.46526 136.198 6.06945 136.46 6.73891C136.752 7.49491 136.895 8.30021 136.882 9.11053C136.891 9.88474 136.75 10.6534 136.468 11.3743C136.204 12.0431 135.802 12.6491 135.29 13.1533C134.761 13.6647 134.131 14.0603 133.44 14.315C132.669 14.5998 131.852 14.7401 131.03 14.729C130.216 14.7385 129.406 14.6094 128.635 14.3472C127.947 14.1132 127.316 13.7354 126.785 13.2389C126.266 12.7406 125.861 12.1353 125.599 11.4648C125.308 10.7047 125.165 9.89589 125.177 9.08201ZM127.238 9.09813C127.236 9.60767 127.32 10.1139 127.486 10.5957C127.638 11.0487 127.885 11.4638 128.211 11.8132C128.548 12.1663 128.954 12.4454 129.405 12.6326C130.438 13.0293 131.58 13.0377 132.62 12.6562C133.065 12.481 133.469 12.215 133.806 11.8751C134.141 11.5307 134.399 11.1186 134.562 10.6664C134.745 10.1639 134.835 9.63266 134.829 9.09813C134.83 8.58819 134.746 8.0816 134.581 7.59929C134.429 7.14681 134.181 6.73214 133.856 6.3831C133.519 6.02959 133.112 5.75045 132.662 5.56363C132.139 5.35092 131.579 5.24714 131.015 5.25866C130.478 5.25189 129.944 5.34826 129.442 5.54256C128.993 5.71505 128.587 5.98296 128.251 6.32778C127.916 6.67261 127.659 7.08613 127.499 7.53978C127.32 8.04047 127.232 8.56895 127.238 9.10061V9.09813Z" fill="var(--fill-0, #122654)"/>
<path id="Vector_7" d="M139.003 14.5595V3.63618H143.746C146.201 3.63618 147.429 4.54119 147.429 6.35121C147.429 6.97604 147.299 7.49632 147.039 7.91204C146.778 8.32777 146.367 8.64514 145.805 8.86416C146.48 8.97822 146.976 9.246 147.293 9.66751C147.609 10.089 147.765 10.6589 147.76 11.3771C147.773 11.8769 147.672 12.3731 147.464 12.8276C147.272 13.2271 146.979 13.5692 146.613 13.8194C146.206 14.0897 145.751 14.2802 145.272 14.381C144.684 14.5064 144.085 14.5662 143.484 14.5595H139.003ZM143.466 8.25545C144.09 8.25545 144.581 8.12528 144.94 7.86493C145.114 7.74269 145.255 7.57859 145.349 7.38773C145.443 7.19688 145.488 6.98539 145.479 6.77272C145.489 6.5823 145.452 6.39233 145.372 6.21943C145.291 6.04653 145.17 5.89597 145.018 5.78093C144.712 5.55117 144.21 5.4367 143.513 5.43752H140.953V8.25545H143.466ZM143.606 12.7656C144.355 12.7656 144.906 12.6416 145.26 12.3937C145.613 12.1458 145.79 11.7581 145.79 11.2308C145.79 10.7002 145.603 10.3258 145.229 10.1076C144.854 9.88943 144.324 9.78033 143.637 9.78033H140.953V12.7557L143.606 12.7656Z" fill="var(--fill-0, #122654)"/>
<path id="Vector_8" d="M159.884 14.5595H157.807L156.762 11.9697H151.757L150.727 14.5595H148.744L153.176 3.63618H155.391L159.884 14.5595ZM156.041 10.1746L154.249 5.69663L152.455 10.1746H156.041Z" fill="var(--fill-0, #122654)"/>
<path id="Vector_9" d="M169.429 9.83116H163.452V14.5595H161.502V3.63618H163.452V8.03725H169.429V3.63618H171.379V14.5595H169.429V9.83116Z" fill="var(--fill-0, #122654)"/>
<path id="Vector_10" d="M176.249 11.7974L182.211 3.63618H184.334V14.5595H182.382V6.27435L176.391 14.5595H174.299V3.63618H176.249V11.7974Z" fill="var(--fill-0, #122654)"/>
<path id="Vector_11" d="M194.228 9.83116H189.203V12.7656H194.976V14.5595H187.252V3.63618H194.805V5.43132H189.203V8.03478H194.228V9.83116Z" fill="var(--fill-0, #122654)"/>
</g>
<path id="Vector_12" d="M52.8668 5.41588L55.3336 3.59315H47.0738V14.5165H55.3336V12.692H49.4348V9.90403H54.4761V8.07945H49.4348V5.41588H52.8668Z" fill="var(--fill-0, #122654)"/>
<path id="Vector_13" d="M40.8351 7.84743H37.9747V5.41588H42.552L45.0188 3.59315H35.6156V14.5165H40.5325C43.2852 14.5165 44.8777 13.2655 44.8777 11.0845C44.8777 8.90357 43.4466 7.84928 40.8369 7.84928L40.8351 7.84743ZM40.423 12.692H37.9729V9.67016H40.4397C41.9413 9.67016 42.6392 10.1713 42.6392 11.1903C42.6392 12.2094 41.8875 12.692 40.423 12.692Z" fill="var(--fill-0, #122654)"/>
<path id="Vector_14" d="M62.0209 3.59315H57.5328V14.5165H59.8919V11.4242H62.0376C64.8979 11.4242 66.6854 9.92259 66.6854 7.50961C66.6854 5.09663 64.8979 3.59501 62.0191 3.59501L62.0209 3.59315ZM61.9671 9.59962H59.8752V5.41588H61.9671C63.4873 5.41588 64.3095 6.16762 64.3095 7.50775C64.3095 8.84789 63.4873 9.59962 61.9671 9.59962Z" fill="var(--fill-0, #122654)"/>
<path id="Vector_15" d="M31.5732 12.1663C30.9477 12.506 30.2498 12.6842 29.5351 12.6842C27.408 12.6842 25.8693 11.164 25.8693 9.07214C25.8693 6.98027 27.4061 5.4601 29.5351 5.4601C30.3036 5.44153 31.0553 5.67541 31.6808 6.13944L33.3792 4.88841L33.2716 4.78075C32.2878 3.92321 30.9662 3.45732 29.4628 3.45732C27.8368 3.45732 26.3519 4.01231 25.279 5.01277C24.2062 6.05035 23.5992 7.49814 23.6345 8.99975C23.6159 10.5199 24.2062 11.9863 25.279 13.0573C26.4057 14.1116 27.9073 14.7018 29.4442 14.6666C31.1426 14.6666 32.6256 14.0763 33.6279 13.0034L32.1077 11.8768L31.5713 12.1626L31.5732 12.1663Z" fill="var(--fill-0, #122654)"/>
<g id="Shape">
<path id="Vector_16" d="M16.2531 3.53161C16.6814 4.08526 17.0476 4.69022 17.3405 5.33507L9.07277 11.4281L5.61832 9.26265V6.65828L9.07277 8.82372L16.2531 3.53161Z" fill="var(--fill-0, #122654)"/>
<path id="Vector_17" d="M18.1475 9.07433C18.1475 8.51926 18.0977 7.97629 18.0022 7.44829L16.0491 8.88765C16.0505 8.94964 16.0519 9.01163 16.0519 9.07362C16.0519 12.9214 12.9217 16.0516 9.07393 16.0516C5.22615 16.0516 2.09592 12.9214 2.09592 9.07362C2.09592 5.22585 5.22615 2.09562 9.07393 2.09562C10.5318 2.09562 11.8871 2.54524 13.0079 3.31336L14.7729 2.01296C13.2153 0.753884 11.233 5.66244e-06 9.07393 5.66244e-06C4.06256 5.66244e-06 0.000312462 4.06225 0.000312462 9.07362C0.000312462 14.085 4.06256 18.1472 9.07393 18.1472C14.0853 18.1472 18.1475 14.0857 18.1475 9.07433Z" fill="var(--fill-0, #122654)"/>
</g>
</g>
</svg>
