<svg preserveAspectRatio="none" width="100%" height="100%" overflow="visible" style="display: block;" viewBox="0 0 175.024 16.2902" fill="none" xmlns="http://www.w3.org/2000/svg">
<g id="sberinsurance H">
<g id="Group 2131327911">
<path id="Vector" d="M73.3506 11.9938C73.204 12.1674 73.0318 12.3175 72.8398 12.4389C72.5946 12.5965 72.3334 12.7278 72.0608 12.8307C71.3634 13.0974 70.6228 13.2329 69.8762 13.2302C69.1329 13.2401 68.3934 13.1215 67.6905 12.8796C67.0706 12.6653 66.5021 12.3242 66.0212 11.8781C65.551 11.4326 65.1831 10.8904 64.9428 10.2889C64.674 9.60948 64.5417 8.88381 64.5533 8.15328C64.5453 7.45815 64.6735 6.76817 64.9306 6.12228C65.1737 5.51974 65.5416 4.97548 66.0101 4.52531C66.4953 4.06478 67.0699 3.70873 67.6983 3.47921C68.4056 3.22383 69.1532 3.09829 69.9051 3.10863C70.5811 3.09448 71.2547 3.19302 71.8983 3.4002C72.3437 3.54046 72.7679 3.74076 73.1592 3.99559V6.43278C72.8157 5.95252 72.3722 5.55235 71.8593 5.25981C71.5721 5.09615 71.2665 4.96691 70.949 4.87476C70.6101 4.77488 70.2584 4.72502 69.9051 4.72674C69.4113 4.71944 68.9205 4.80514 68.4584 4.97936C68.0497 5.13414 67.6779 5.37256 67.3667 5.67936C67.0616 5.98722 66.8273 6.35788 66.68 6.76552C66.518 7.21577 66.4385 7.69152 66.4452 8.16997C66.4437 8.62447 66.519 9.07596 66.6678 9.50541C66.8047 9.91516 67.0291 10.2902 67.3254 10.6046C67.6217 10.919 67.9829 11.1652 68.3838 11.3261C68.8554 11.5169 69.3596 11.6144 69.8684 11.6132C70.2674 11.6169 70.6653 11.5698 71.0525 11.473C71.3934 11.3873 71.7226 11.2606 72.0329 11.0957C72.3162 10.9457 72.5782 10.7586 72.8119 10.5393C73.0279 10.3347 73.2117 10.0987 73.3572 9.83928L73.3506 11.9938Z" fill="var(--fill-0, #122654)"/>
<path id="Vector_2" d="M82.5014 4.8755H79.1951V13.0696H77.4445V4.8755H74.1938V3.26406H82.5014V4.8755Z" fill="var(--fill-0, #122654)"/>
<path id="Vector_3" d="M85.787 10.0159V13.0696H84.0354V3.26406H87.2994C88.85 3.26406 89.9729 3.54191 90.6681 4.0976C91.3633 4.6533 91.7112 5.48239 91.712 6.58487C91.712 7.73335 91.3384 8.59249 90.5913 9.16228C89.8442 9.73207 88.7469 10.0166 87.2994 10.0159H85.787ZM85.787 4.8755V8.40553H87.4252C88.248 8.40553 88.8645 8.26308 89.2748 7.97819C89.6851 7.69329 89.8906 7.21476 89.8913 6.54258C89.8913 5.93495 89.6999 5.50539 89.3171 5.25388C88.9342 5.00237 88.3129 4.87624 87.453 4.8755H85.787Z" fill="var(--fill-0, #122654)"/>
<path id="Vector_4" d="M101.86 13.0696H99.997L99.0555 10.7448H94.5618L93.637 13.0696H91.8564L95.8349 3.26406H97.8314L101.86 13.0696ZM98.4101 9.13335L96.8031 5.11365L95.1928 9.13335H98.4101Z" fill="var(--fill-0, #122654)"/>
<path id="Vector_5" d="M105.906 8.0828L102.586 3.26406H104.687L107.194 6.9766L109.855 3.26406H111.887L108.385 7.98486L112.013 13.0696H109.925L107.138 9.11999L104.449 13.0696H102.403L105.906 8.0828Z" fill="var(--fill-0, #122654)"/>
<path id="Vector_6" d="M112.368 8.1526C112.36 7.45802 112.486 6.76847 112.739 6.12161C112.976 5.52114 113.336 4.97707 113.796 4.52464C114.27 4.06575 114.833 3.70961 115.45 3.47854C116.145 3.22262 116.881 3.09699 117.621 3.10795C118.353 3.09918 119.081 3.2178 119.771 3.45851C120.389 3.67201 120.954 4.0133 121.431 4.46009C121.897 4.90596 122.261 5.44832 122.496 6.04927C122.758 6.72791 122.886 7.45081 122.874 8.1782C122.882 8.87319 122.756 9.5632 122.502 10.2103C122.266 10.8106 121.905 11.3546 121.445 11.8073C120.97 12.2663 120.405 12.6214 119.785 12.85C119.093 13.1057 118.359 13.2317 117.621 13.2217C116.89 13.2302 116.163 13.1143 115.471 12.879C114.854 12.6689 114.288 12.3298 113.811 11.8841C113.345 11.4368 112.981 10.8934 112.746 10.2915C112.484 9.60924 112.356 8.88319 112.368 8.1526ZM114.217 8.16707C114.216 8.62447 114.291 9.07887 114.44 9.51142C114.576 9.91799 114.798 10.2906 115.091 10.6043C115.393 10.9212 115.758 11.1718 116.162 11.3399C117.09 11.696 118.115 11.7035 119.048 11.361C119.448 11.2038 119.811 10.965 120.113 10.6599C120.414 10.3507 120.646 9.98079 120.792 9.57485C120.956 9.12381 121.037 8.6469 121.031 8.16707C121.033 7.70931 120.957 7.25457 120.809 6.82161C120.672 6.41544 120.45 6.0432 120.158 5.72988C119.856 5.41255 119.491 5.16197 119.086 4.99427C118.617 4.80333 118.114 4.71017 117.608 4.72051C117.125 4.71443 116.646 4.80094 116.196 4.97535C115.793 5.13019 115.428 5.37069 115.127 5.68022C114.826 5.98976 114.596 6.36096 114.452 6.76819C114.291 7.21764 114.212 7.69204 114.217 8.1693V8.16707Z" fill="var(--fill-0, #122654)"/>
<path id="Vector_7" d="M124.778 13.0696V3.26406H129.035C131.24 3.26406 132.342 4.07646 132.342 5.70125C132.342 6.26214 132.225 6.72917 131.991 7.10236C131.758 7.47554 131.388 7.76044 130.884 7.95704C131.49 8.05943 131.935 8.29981 132.219 8.67818C132.504 9.05656 132.643 9.56811 132.639 10.2128C132.651 10.6615 132.56 11.1069 132.373 11.5149C132.201 11.8735 131.938 12.1806 131.61 12.4052C131.244 12.6478 130.835 12.8189 130.405 12.9093C129.878 13.0219 129.34 13.0756 128.801 13.0696H124.778ZM128.784 7.41062C129.344 7.41062 129.785 7.29377 130.107 7.06007C130.264 6.95033 130.39 6.80303 130.475 6.6317C130.559 6.46038 130.599 6.27053 130.591 6.07963C130.6 5.9087 130.567 5.73816 130.495 5.58295C130.423 5.42775 130.314 5.29259 130.177 5.18933C129.903 4.98308 129.452 4.88032 128.826 4.88106H126.528V7.41062H128.784ZM128.91 11.4593C129.582 11.4593 130.077 11.348 130.394 11.1254C130.712 10.9028 130.871 10.5549 130.871 10.0815C130.871 9.60521 130.703 9.26912 130.366 9.07325C130.03 8.87739 129.554 8.77946 128.938 8.77946H126.528V11.4503L128.91 11.4593Z" fill="var(--fill-0, #122654)"/>
<path id="Vector_8" d="M143.522 13.0696H141.658L140.72 10.7448H136.227L135.302 13.0696H133.522L137.5 3.26406H139.489L143.522 13.0696ZM140.072 9.13335L138.464 5.11365L136.854 9.13335H140.072Z" fill="var(--fill-0, #122654)"/>
<path id="Vector_9" d="M152.09 8.82508H146.725V13.0696H144.975V3.26406H146.725V7.21476H152.09V3.26406H153.841V13.0696H152.09V8.82508Z" fill="var(--fill-0, #122654)"/>
<path id="Vector_10" d="M158.213 10.5901L163.565 3.26406H165.47V13.0696H163.718V5.63225L158.34 13.0696H156.462V3.26406H158.213V10.5901Z" fill="var(--fill-0, #122654)"/>
<path id="Vector_11" d="M174.351 8.82508H169.841V11.4592H175.023V13.0696H168.089V3.26406H174.87V4.8755H169.841V7.21253H174.351V8.82508Z" fill="var(--fill-0, #122654)"/>
</g>
<path id="Vector_12" d="M47.4565 4.86165L49.6709 3.22544H42.2563V13.031H49.6709V11.3931H44.3757V8.8905H48.9011V7.25264H44.3757V4.86165H47.4565Z" fill="var(--fill-0, #122654)"/>
<path id="Vector_13" d="M36.6559 7.04436H34.0883V4.86165H38.1971L40.4115 3.22544H31.9706V13.031H36.3843C38.8553 13.031 40.2849 11.908 40.2849 9.9502C40.2849 7.99243 39.0002 7.04603 36.6576 7.04603L36.6559 7.04436ZM36.286 11.3931H34.0866V8.68056H36.301C37.649 8.68056 38.2755 9.13044 38.2755 10.0452C38.2755 10.9599 37.6006 11.3931 36.286 11.3931Z" fill="var(--fill-0, #122654)"/>
<path id="Vector_14" d="M55.6738 3.22544H51.645V13.031H53.7627V10.2551H55.6888C58.2564 10.2551 59.861 8.90717 59.861 6.74111C59.861 4.57506 58.2564 3.22711 55.6721 3.22711L55.6738 3.22544ZM55.6255 8.61725H53.7477V4.86165H55.6255C56.9901 4.86165 57.7282 5.53646 57.7282 6.73945C57.7282 7.94244 56.9901 8.61725 55.6255 8.61725Z" fill="var(--fill-0, #122654)"/>
<path id="Vector_15" d="M28.3422 10.9213C27.7807 11.2262 27.1542 11.3862 26.5127 11.3862C24.6032 11.3862 23.222 10.0216 23.222 8.14375C23.222 6.26595 24.6016 4.90134 26.5127 4.90134C27.2025 4.88467 27.8773 5.09461 28.4388 5.51116L29.9634 4.38815L29.8667 4.29151C28.9837 3.52173 27.7973 3.10351 26.4477 3.10351C24.9881 3.10351 23.6552 3.6017 22.6921 4.49978C21.729 5.43119 21.1842 6.73082 21.2159 8.07877C21.1992 9.44338 21.729 10.7597 22.6921 11.7211C23.7035 12.6675 25.0514 13.1973 26.431 13.1657C27.9556 13.1657 29.2869 12.6358 30.1866 11.6727L28.822 10.6614L28.3405 10.918L28.3422 10.9213Z" fill="var(--fill-0, #122654)"/>
<g id="Shape">
<path id="Vector_16" d="M14.5894 3.1702C14.9738 3.66719 15.3026 4.21024 15.5655 4.78911L8.14381 10.2586L5.04287 8.31476V5.9769L8.14381 7.92075L14.5894 3.1702Z" fill="var(--fill-0, #122654)"/>
<path id="Vector_17" d="M16.2903 8.14572C16.2903 7.64744 16.2456 7.16004 16.1598 6.68608L14.4066 7.97813C14.4079 8.03378 14.4092 8.08943 14.4092 8.14508C14.4092 11.5991 11.5993 14.409 8.14524 14.409C4.69123 14.409 1.88132 11.5991 1.88132 8.14508C1.88132 4.69106 4.69123 1.88116 8.14524 1.88116C9.45393 1.88116 10.6705 2.28477 11.6767 2.97429L13.261 1.80696C11.8628 0.676731 10.0833 0 8.14524 0C3.64671 0 0.000167159 3.64654 0.000167159 8.14508C0.000167159 12.6436 3.64671 16.2902 8.14524 16.2902C12.6438 16.2902 16.2903 12.6443 16.2903 8.14572Z" fill="var(--fill-0, #122654)"/>
</g>
</g>
</svg>
