<svg preserveAspectRatio="none" width="100%" height="100%" overflow="visible" style="display: block;" viewBox="0 0 216.997 78.0514" fill="none" xmlns="http://www.w3.org/2000/svg">
<g id="Group 2136141777">
<path id="Star 20" opacity="0.3" d="M172.758 7.95312C174.399 2.90346 181.543 2.90357 183.184 7.95312L188.441 24.1338C188.506 24.3318 188.69 24.4657 188.898 24.4658H205.912C211.221 24.4661 213.429 31.2609 209.134 34.3818L195.37 44.3818C195.202 44.5043 195.131 44.7208 195.195 44.9189L200.452 61.0996C202.093 66.1494 196.313 70.3485 192.018 67.2275L178.254 57.2275C178.085 57.1051 177.857 57.1053 177.688 57.2275L163.925 67.2275C159.629 70.3485 153.849 66.1494 155.49 61.0996L160.747 44.9189C160.811 44.7209 160.741 44.5043 160.572 44.3818L146.809 34.3818C142.513 31.2609 144.721 24.4658 150.03 24.4658H167.043C167.251 24.4658 167.437 24.332 167.501 24.1338L172.758 7.95312Z" fill="url(#paint0_linear_1_817)" stroke="var(--stroke-0, white)" stroke-width="5"/>
<path id="Star 21" opacity="0.3" d="M104.141 7.95312C105.781 2.90346 112.925 2.90357 114.566 7.95312L119.824 24.1338C119.889 24.3318 120.073 24.4657 120.281 24.4658H137.295C142.604 24.4661 144.812 31.2609 140.517 34.3818L126.753 44.3818C126.584 44.5043 126.514 44.7208 126.578 44.9189L131.835 61.0996C133.476 66.1494 127.696 70.3485 123.4 67.2275L109.637 57.2275C109.468 57.1051 109.24 57.1053 109.071 57.2275L95.3076 67.2275C91.012 70.3485 85.2323 66.1494 86.873 61.0996L92.1299 44.9189C92.1941 44.7209 92.1235 44.5043 91.9551 44.3818L78.1914 34.3818C73.8958 31.2609 76.1034 24.4658 81.4131 24.4658H98.4258C98.6342 24.4658 98.8194 24.332 98.8838 24.1338L104.141 7.95312Z" fill="url(#paint1_linear_1_817)" stroke="var(--stroke-0, white)" stroke-width="5"/>
<path id="Star 22" opacity="0.3" d="M33.8125 7.95312C35.4533 2.90346 42.5974 2.90357 44.2383 7.95312L49.4961 24.1338C49.5605 24.3318 49.7449 24.4657 49.9531 24.4658H66.9668C72.2762 24.4661 74.4839 31.2609 70.1885 34.3818L56.4248 44.3818C56.2563 44.5043 56.1857 44.7208 56.25 44.9189L61.5068 61.0996C63.1476 66.1494 57.3679 70.3485 53.0723 67.2275L39.3086 57.2275C39.1401 57.1051 38.9117 57.1053 38.7432 57.2275L24.9795 67.2275C20.6839 70.3485 14.9041 66.1494 16.5449 61.0996L21.8018 44.9189C21.8659 44.7209 21.7954 44.5043 21.627 44.3818L7.86328 34.3818C3.56767 31.2609 5.77529 24.4658 11.085 24.4658H28.0977C28.3061 24.4658 28.4912 24.332 28.5557 24.1338L33.8125 7.95312Z" fill="url(#paint2_linear_1_817)" stroke="var(--stroke-0, white)" stroke-width="5"/>
</g>
<defs>
<linearGradient id="paint0_linear_1_817" x1="177.971" y1="0" x2="177.971" y2="78.0514" gradientUnits="userSpaceOnUse">
<stop stop-color="#57FF43"/>
<stop offset="1" stop-color="#00ADEE"/>
</linearGradient>
<linearGradient id="paint1_linear_1_817" x1="109.354" y1="0" x2="109.354" y2="78.0514" gradientUnits="userSpaceOnUse">
<stop stop-color="#57FF43"/>
<stop offset="1" stop-color="#00ADEE"/>
</linearGradient>
<linearGradient id="paint2_linear_1_817" x1="39.0257" y1="0" x2="39.0257" y2="78.0514" gradientUnits="userSpaceOnUse">
<stop stop-color="#57FF43"/>
<stop offset="1" stop-color="#00ADEE"/>
</linearGradient>
</defs>
</svg>
