<svg preserveAspectRatio="xMidYMid meet" width="72" height="78" viewBox="0 0 72.2762 78.0514" fill="none" xmlns="http://www.w3.org/2000/svg">
  <path d="M33.8125 7.95312C35.4533 2.90346 42.5974 2.90357 44.2383 7.95312L49.4961 24.1338C49.5605 24.3318 49.7449 24.4657 49.9531 24.4658H66.9668C72.2762 24.4661 74.4839 31.2609 70.1885 34.3818L56.4248 44.3818C56.2563 44.5043 56.1857 44.7208 56.25 44.9189L61.5068 61.0996C63.1476 66.1494 57.3679 70.3485 53.0723 67.2275L39.3086 57.2275C39.1401 57.1051 38.9117 57.1053 38.7432 57.2275L24.9795 67.2275C20.6839 70.3485 14.9041 66.1494 16.5449 61.0996L21.8018 44.9189C21.8659 44.7209 21.7954 44.5043 21.627 44.3818L7.86328 34.3818C3.56767 31.2609 5.77529 24.4658 11.085 24.4658H28.0977C28.3061 24.4658 28.4912 24.332 28.5557 24.1338L33.8125 7.95312Z" fill="url(#paint0_linear_rating_star)" stroke="white" stroke-width="5"/>
  <defs>
    <linearGradient id="paint0_linear_rating_star" x1="39.0257" y1="0" x2="39.0257" y2="78.0514" gradientUnits="userSpaceOnUse">
      <stop stop-color="#57FF43"/>
      <stop offset="1" stop-color="#00ADEE"/>
    </linearGradient>
  </defs>
</svg>
