<svg preserveAspectRatio="none" width="100%" height="100%" overflow="visible" style="display: block;" viewBox="0 0 194.956 70.1237" fill="none" xmlns="http://www.w3.org/2000/svg">
<g id="Group 2136141777">
<path id="Star 20" d="M155.212 7.14551C156.686 2.60872 163.104 2.60866 164.578 7.14551L169.302 21.6826C169.359 21.8606 169.526 21.9814 169.713 21.9814H184.998C189.768 21.9817 191.751 28.0857 187.892 30.8896L175.526 39.874C175.375 39.9841 175.311 40.1794 175.369 40.3574L180.093 54.8936C181.567 59.4304 176.374 63.2034 172.514 60.3994L160.149 51.415C159.998 51.305 159.792 51.305 159.64 51.415L147.275 60.3994C143.416 63.2034 138.223 59.4304 139.697 54.8936L144.421 40.3574C144.479 40.1795 144.415 39.9841 144.263 39.874L131.897 30.8896C128.038 28.0857 130.021 21.9815 134.792 21.9814H150.077C150.264 21.9814 150.43 21.8606 150.488 21.6826L155.212 7.14551Z" fill="url(#paint0_linear_1_842)" stroke="var(--stroke-0, white)" stroke-width="4.49215"/>
<path id="Star 21" d="M93.5639 7.14551C95.0381 2.60872 101.456 2.60866 102.93 7.14551L107.654 21.6826C107.712 21.8606 107.878 21.9814 108.065 21.9814H123.35C128.12 21.9817 130.104 28.0857 126.245 30.8896L113.878 39.874C113.727 39.9841 113.663 40.1794 113.721 40.3574L118.445 54.8936C119.919 59.4304 114.726 63.2034 110.867 60.3994L98.5014 51.415C98.35 51.305 98.1442 51.305 97.9927 51.415L85.6274 60.3994C81.7681 63.2034 76.5752 59.4304 78.0493 54.8936L82.7729 40.3574C82.8308 40.1795 82.767 39.9841 82.6157 39.874L70.2495 30.8896C66.3902 28.0857 68.3737 21.9815 73.144 21.9814H88.4292C88.6164 21.9814 88.7824 21.8606 88.8403 21.6826L93.5639 7.14551Z" fill="url(#paint1_linear_1_842)" stroke="var(--stroke-0, white)" stroke-width="4.49215"/>
<path id="Star 22" d="M30.379 7.14551C31.8532 2.60872 38.2711 2.60866 39.7452 7.14551L44.4689 21.6826C44.5268 21.8606 44.6928 21.9814 44.88 21.9814H60.1652C64.9352 21.9817 66.9187 28.0857 63.0597 30.8896L50.6935 39.874C50.5421 39.9841 50.4784 40.1794 50.5363 40.3574L55.2599 54.8936C56.734 59.4304 51.5411 63.2034 47.6818 60.3994L35.3165 51.415C35.165 51.305 34.9592 51.305 34.8077 51.415L22.4425 60.3994C18.5832 63.2034 13.3903 59.4304 14.8644 54.8936L19.588 40.3574C19.6458 40.1795 19.582 39.9841 19.4308 39.874L7.06458 30.8896C3.20528 28.0857 5.18878 21.9815 9.95911 21.9814H25.2443C25.4314 21.9814 25.5975 21.8606 25.6554 21.6826L30.379 7.14551Z" fill="url(#paint2_linear_1_842)" stroke="var(--stroke-0, white)" stroke-width="4.49215"/>
</g>
<defs>
<linearGradient id="paint0_linear_1_842" x1="159.895" y1="-2.46009e-06" x2="159.895" y2="70.1237" gradientUnits="userSpaceOnUse">
<stop stop-color="#57FF43"/>
<stop offset="1" stop-color="#00ADEE"/>
</linearGradient>
<linearGradient id="paint1_linear_1_842" x1="98.2469" y1="-2.46009e-06" x2="98.2469" y2="70.1237" gradientUnits="userSpaceOnUse">
<stop stop-color="#57FF43"/>
<stop offset="1" stop-color="#00ADEE"/>
</linearGradient>
<linearGradient id="paint2_linear_1_842" x1="35.062" y1="-2.46009e-06" x2="35.062" y2="70.1237" gradientUnits="userSpaceOnUse">
<stop stop-color="#57FF43"/>
<stop offset="1" stop-color="#00ADEE"/>
</linearGradient>
</defs>
</svg>
