<svg preserveAspectRatio="none" width="100%" height="100%" overflow="visible" style="display: block;" viewBox="0 0 51.0354 51.0354" fill="none" xmlns="http://www.w3.org/2000/svg">
<path id="Star 19" d="M24.0224 1.04104C24.5361 -0.347012 26.4993 -0.347014 27.0129 1.04104L32.9656 17.1278C33.1271 17.5642 33.4711 17.9083 33.9075 18.0698L49.9943 24.0224C51.3824 24.5361 51.3824 26.4993 49.9944 27.0129L33.9075 32.9656C33.4712 33.1271 33.1271 33.4711 32.9656 33.9075L27.0129 49.9943C26.4993 51.3824 24.5361 51.3824 24.0224 49.9944L18.0698 33.9075C17.9083 33.4712 17.5642 33.1271 17.1278 32.9656L1.04104 27.0129C-0.347012 26.4993 -0.347014 24.5361 1.04104 24.0224L17.1278 18.0698C17.5642 17.9083 17.9083 17.5642 18.0698 17.1278L24.0224 1.04104Z" fill="var(--fill-0, #FF64A2)"/>
</svg>
