<svg preserveAspectRatio="none" width="100%" height="100%" overflow="visible" style="display: block;" viewBox="0 0 28.0918 28.0918" fill="none" xmlns="http://www.w3.org/2000/svg">
<path id="Star 19" d="M12.5507 1.04104C13.0643 -0.347011 15.0275 -0.347016 15.5412 1.04104L18.3954 8.75448C18.5569 9.19088 18.901 9.53496 19.3374 9.69644L27.0508 12.5507C28.4389 13.0643 28.4389 15.0275 27.0508 15.5412L19.3374 18.3954C18.901 18.5569 18.5569 18.901 18.3954 19.3374L15.5412 27.0508C15.0275 28.4389 13.0643 28.4389 12.5507 27.0508L9.69644 19.3374C9.53496 18.901 9.19088 18.5569 8.75449 18.3954L1.04104 15.5412C-0.347011 15.0275 -0.347016 13.0643 1.04104 12.5507L8.75448 9.69644C9.19088 9.53496 9.53496 9.19088 9.69644 8.75448L12.5507 1.04104Z" fill="var(--fill-0, #FF64A2)"/>
</svg>
