<svg preserveAspectRatio="none" width="100%" height="100%" overflow="visible" style="display: block;" viewBox="0 0 377.48 35.1337" fill="none" xmlns="http://www.w3.org/2000/svg">
<g id="sberinsurance H">
<g id="Group 2131327911">
<path id="Vector" d="M158.199 25.8676C157.882 26.2419 157.511 26.5657 157.097 26.8276C156.568 27.1674 156.005 27.4506 155.417 27.6725C153.913 28.2478 152.315 28.5399 150.705 28.5342C149.102 28.5555 147.507 28.2997 145.991 27.7781C144.654 27.3157 143.428 26.5801 142.391 25.618C141.377 24.6572 140.583 23.4878 140.065 22.1905C139.486 20.7252 139.2 19.1601 139.225 17.5846C139.208 16.0854 139.484 14.5973 140.039 13.2043C140.563 11.9047 141.357 10.7309 142.367 9.76002C143.414 8.76676 144.653 7.99886 146.008 7.50385C147.534 6.95307 149.146 6.6823 150.768 6.7046C152.225 6.67408 153.678 6.8866 155.066 7.33344C156.027 7.63594 156.942 8.06795 157.786 8.61753V13.8739C157.045 12.8381 156.088 11.9751 154.982 11.3441C154.363 10.9912 153.704 10.7124 153.019 10.5137C152.288 10.2983 151.53 10.1907 150.768 10.1944C149.703 10.1787 148.644 10.3635 147.647 10.7393C146.766 11.0731 145.964 11.5873 145.293 12.249C144.635 12.913 144.129 13.7124 143.812 14.5916C143.463 15.5626 143.291 16.5887 143.305 17.6206C143.302 18.6008 143.465 19.5746 143.785 20.5008C144.081 21.3845 144.565 22.1934 145.204 22.8715C145.843 23.5495 146.622 24.0805 147.487 24.4275C148.504 24.839 149.591 25.0493 150.688 25.0467C151.549 25.0547 152.407 24.9531 153.242 24.7443C153.977 24.5595 154.687 24.2863 155.357 23.9306C155.968 23.6072 156.533 23.2036 157.037 22.7305C157.503 22.2894 157.899 21.7804 158.213 21.2208L158.199 25.8676Z" fill="var(--fill-0, #122654)"/>
<path id="Vector_2" d="M177.933 10.5153H170.803V28.1878H167.027V10.5153H160.016V7.0399H177.933V10.5153Z" fill="var(--fill-0, #122654)"/>
<path id="Vector_3" d="M185.022 21.6017V28.1878H181.244V7.0399H188.284C191.628 7.0399 194.05 7.63914 195.549 8.83763C197.048 10.0361 197.799 11.8242 197.8 14.202C197.8 16.679 196.995 18.5319 195.383 19.7608C193.772 20.9897 191.405 21.6033 188.284 21.6017H185.022ZM185.022 10.5153V18.1287H188.555C190.329 18.1287 191.659 17.8215 192.544 17.207C193.429 16.5926 193.872 15.5605 193.874 14.1108C193.874 12.8003 193.461 11.8738 192.635 11.3314C191.809 10.789 190.469 10.5169 188.615 10.5153H185.022Z" fill="var(--fill-0, #122654)"/>
<path id="Vector_4" d="M219.686 28.1878H215.668L213.637 23.1739H203.945L201.951 28.1878H198.11L206.691 7.0399H210.997L219.686 28.1878ZM212.245 19.6984L208.779 11.029L205.306 19.6984H212.245Z" fill="var(--fill-0, #122654)"/>
<path id="Vector_5" d="M228.41 17.4326L221.25 7.0399H225.782L231.189 15.0469L236.928 7.0399H241.311L233.758 17.2214L241.582 28.1878H237.079L231.067 19.6696L225.268 28.1878H220.857L228.41 17.4326Z" fill="var(--fill-0, #122654)"/>
<path id="Vector_6" d="M242.348 17.5831C242.332 16.0851 242.604 14.5979 243.15 13.2028C243.66 11.9077 244.437 10.7343 245.43 9.75855C246.451 8.76885 247.665 8.00074 248.996 7.50239C250.495 6.95044 252.082 6.67949 253.679 6.70313C255.257 6.68421 256.826 6.94005 258.316 7.45919C259.648 7.91966 260.867 8.65573 261.895 9.61934C262.901 10.581 263.685 11.7507 264.192 13.0468C264.757 14.5104 265.034 16.0695 265.008 17.6383C265.026 19.1372 264.753 20.6254 264.206 22.021C263.695 23.3158 262.919 24.4891 261.926 25.4653C260.902 26.4553 259.682 27.2212 258.345 27.7142C256.852 28.2657 255.271 28.5374 253.679 28.5159C252.103 28.5343 250.535 28.2843 249.042 27.7766C247.71 27.3236 246.489 26.5922 245.461 25.6309C244.455 24.6663 243.671 23.4943 243.164 22.1962C242.6 20.7247 242.323 19.1588 242.348 17.5831ZM246.337 17.6143C246.334 18.6008 246.496 19.5808 246.817 20.5137C247.112 21.3906 247.59 22.1942 248.221 22.8707C248.873 23.5543 249.66 24.0947 250.533 24.4572C252.533 25.2253 254.745 25.2415 256.756 24.5028C257.619 24.1637 258.401 23.6488 259.053 22.9907C259.702 22.3239 260.202 21.526 260.517 20.6505C260.871 19.6777 261.045 18.6492 261.033 17.6143C261.036 16.6271 260.874 15.6463 260.553 14.7125C260.258 13.8365 259.78 13.0337 259.149 12.3579C258.498 11.6735 257.711 11.1331 256.838 10.7714C255.827 10.3596 254.742 10.1587 253.65 10.181C252.609 10.1679 251.575 10.3545 250.605 10.7306C249.735 11.0646 248.949 11.5833 248.299 12.2508C247.65 12.9184 247.153 13.719 246.843 14.5973C246.497 15.5666 246.326 16.5898 246.337 17.6191V17.6143Z" fill="var(--fill-0, #122654)"/>
<path id="Vector_7" d="M269.114 28.1878V7.0399H278.297C283.051 7.0399 285.428 8.79203 285.428 12.2963C285.428 13.506 285.176 14.5132 284.672 15.3181C284.168 16.123 283.372 16.7374 282.284 17.1614C283.591 17.3822 284.551 17.9007 285.164 18.7167C285.777 19.5328 286.079 20.6361 286.069 22.0266C286.095 22.9942 285.899 23.9549 285.495 24.8348C285.125 25.6082 284.557 26.2705 283.849 26.7549C283.06 27.2782 282.179 27.6471 281.252 27.8422C280.115 28.0849 278.954 28.2008 277.791 28.1878H269.114ZM277.755 15.9829C278.963 15.9829 279.914 15.7309 280.609 15.2269C280.946 14.9902 281.218 14.6725 281.401 14.303C281.583 13.9335 281.67 13.5241 281.653 13.1123C281.672 12.7437 281.601 12.3759 281.445 12.0411C281.29 11.7064 281.054 11.4149 280.76 11.1922C280.168 10.7474 279.197 10.5257 277.846 10.5273H272.89V15.9829H277.755ZM278.026 24.7148C279.476 24.7148 280.543 24.4748 281.228 23.9947C281.913 23.5147 282.255 22.7642 282.255 21.7434C282.255 20.7161 281.893 19.9912 281.168 19.5688C280.443 19.1464 279.416 18.9352 278.086 18.9352H272.89V24.6956L278.026 24.7148Z" fill="var(--fill-0, #122654)"/>
<path id="Vector_8" d="M309.541 28.1878H305.521L303.497 23.1739H293.808L291.813 28.1878H287.973L296.554 7.0399H300.843L309.541 28.1878ZM302.101 19.6984L298.632 11.029L295.159 19.6984H302.101Z" fill="var(--fill-0, #122654)"/>
<path id="Vector_9" d="M328.02 19.0336H316.448V28.1878H312.673V7.0399H316.448V15.5605H328.02V7.0399H331.795V28.1878H328.02V19.0336Z" fill="var(--fill-0, #122654)"/>
<path id="Vector_10" d="M341.224 22.8402L352.766 7.0399H356.875V28.1878H353.098V12.1475L341.498 28.1878H337.448V7.0399H341.224V22.8402Z" fill="var(--fill-0, #122654)"/>
<path id="Vector_11" d="M376.031 19.0336H366.303V24.7148H377.48V28.1878H362.525V7.0399H377.149V10.5153H366.303V15.5557H376.031V19.0336Z" fill="var(--fill-0, #122654)"/>
</g>
<path id="Vector_12" d="M102.352 10.4853L107.128 6.95642H91.1363V28.1044H107.128V24.572H95.7073V19.1745H105.467V15.642H95.7073V10.4853H102.352Z" fill="var(--fill-0, #122654)"/>
<path id="Vector_13" d="M79.0581 15.1928H73.5205V10.4853H82.3822L87.158 6.95642H68.9531V28.1044H78.4724C83.8016 28.1044 86.8849 25.6824 86.8849 21.46C86.8849 17.2376 84.1143 15.1964 79.0617 15.1964L79.0581 15.1928ZM78.2604 24.572H73.5169V18.7217H78.2927C81.1999 18.7217 82.5511 19.6919 82.5511 21.6648C82.5511 23.6377 81.0957 24.572 78.2604 24.572Z" fill="var(--fill-0, #122654)"/>
<path id="Vector_14" d="M120.075 6.95642H111.386V28.1044H115.953V22.1176H120.107C125.645 22.1176 129.106 19.2104 129.106 14.5388C129.106 9.8672 125.645 6.96002 120.071 6.96002L120.075 6.95642ZM119.971 18.5851H115.921V10.4853H119.971C122.914 10.4853 124.506 11.9407 124.506 14.5352C124.506 17.1297 122.914 18.5851 119.971 18.5851Z" fill="var(--fill-0, #122654)"/>
<path id="Vector_15" d="M61.1256 23.5543C59.9145 24.2119 58.5634 24.5569 57.1798 24.5569C53.0616 24.5569 50.0826 21.6138 50.0826 17.5639C50.0826 13.514 53.0581 10.5709 57.1798 10.5709C58.6676 10.5349 60.123 10.9877 61.334 11.8861L64.6221 9.46405L64.4137 9.25562C62.5091 7.5954 59.9505 6.69342 57.0397 6.69342C53.8918 6.69342 51.0169 7.76789 48.9399 9.70481C46.8628 11.7136 45.6877 14.5166 45.756 17.4237C45.72 20.3669 46.8628 23.2058 48.9399 25.2792C51.1211 27.3204 54.0283 28.4631 57.0038 28.3948C60.2919 28.3948 63.1631 27.2521 65.1036 25.175L62.1605 22.9937L61.122 23.5471L61.1256 23.5543Z" fill="var(--fill-0, #122654)"/>
<g id="Shape">
<path id="Vector_16" d="M31.4662 6.83726C32.2953 7.90915 33.0044 9.08036 33.5714 10.3288L17.5648 22.1251L10.8769 17.9327V12.8906L17.5648 17.0829L31.4662 6.83726Z" fill="var(--fill-0, #122654)"/>
<path id="Vector_17" d="M35.1339 17.5682C35.1339 16.4935 35.0374 15.4423 34.8525 14.4201L31.0713 17.2067C31.074 17.3268 31.0768 17.4468 31.0768 17.5668C31.0768 25.0162 25.0165 31.0764 17.5671 31.0764C10.1177 31.0764 4.05751 25.0162 4.05751 17.5668C4.05751 10.1174 10.1177 4.05717 17.5671 4.05717C20.3896 4.05717 23.0135 4.92764 25.1835 6.41476L28.6005 3.89714C25.5849 1.45953 21.7471 0 17.5671 0C7.86498 0 0.000344669 7.86464 0.000344669 17.5668C0.000344669 27.269 7.86498 35.1336 17.5671 35.1336C27.2693 35.1336 35.1339 27.2703 35.1339 17.5682Z" fill="var(--fill-0, #122654)"/>
</g>
</g>
</svg>
