<svg preserveAspectRatio="none" width="100%" height="100%" overflow="visible" style="display: block;" viewBox="0 0 405.619 405.629" fill="none" xmlns="http://www.w3.org/2000/svg">
<path id="Union" opacity="0.2" d="M202.81 0C230.81 0 253.511 22.7023 253.512 50.7032C253.512 59.0353 249.018 75.8685 242.7 95.416C242.023 97.5087 243.116 99.7629 245.148 100.605C247.18 101.448 249.537 100.622 250.539 98.6627C259.888 80.3751 268.601 65.2903 274.502 59.3892C284.405 49.5115 297.379 44.5595 310.353 44.5595C323.326 44.5596 336.325 49.5119 346.202 59.3892C366.008 79.1953 366.008 111.307 346.202 131.113C340.318 137.013 325.241 145.726 306.964 155.074C305.005 156.076 304.179 158.434 305.022 160.468C305.864 162.5 308.119 163.592 310.212 162.916C329.749 156.602 346.571 152.111 354.917 152.111C382.917 152.111 405.619 174.813 405.619 202.814C405.619 230.815 382.917 253.517 354.917 253.518C346.571 253.518 329.748 249.015 310.213 242.706C308.118 242.029 305.862 243.123 305.019 245.156C304.175 247.191 305.001 249.551 306.962 250.554C325.243 259.909 340.324 268.628 346.209 274.513C366.014 294.319 366.015 326.431 346.209 346.237C336.329 356.114 323.332 361.066 310.359 361.066C297.386 361.066 284.412 356.114 274.509 346.237C268.624 340.337 259.903 325.249 250.547 306.957C249.544 304.996 247.185 304.17 245.15 305.013C243.116 305.855 242.022 308.111 242.699 310.206C249.016 329.757 253.512 346.593 253.512 354.926C253.511 382.927 230.81 405.629 202.81 405.629C174.809 405.629 152.108 382.927 152.108 354.926C152.108 346.59 156.605 329.745 162.927 310.186C163.602 308.096 162.511 305.844 160.482 305.003C158.452 304.161 156.097 304.986 155.096 306.943C145.736 325.236 137.005 340.333 131.117 346.237C121.214 356.114 108.24 361.066 95.2664 361.066C82.2932 361.066 69.2945 356.114 59.4172 346.237C39.5989 326.431 39.599 294.319 59.4172 274.513C65.306 268.626 80.4006 259.89 98.6965 250.521C100.65 249.521 101.473 247.171 100.633 245.144C99.7928 243.117 97.5447 242.027 95.4573 242.701C75.8992 249.018 59.055 253.518 50.702 253.518C22.7018 253.517 0 230.815 0 202.814C0 174.813 22.7018 152.111 50.702 152.111C59.0395 152.111 75.8895 156.61 95.4533 162.927C97.5405 163.601 99.7883 162.511 100.628 160.484C101.469 158.458 100.646 156.108 98.6928 155.108C80.3972 145.74 65.303 137.005 59.4142 131.116C39.596 111.31 39.596 79.1997 59.4142 59.3936C69.2948 49.5159 82.29 44.5625 95.2634 44.5625C108.237 44.5625 121.21 49.5159 131.113 59.3936C137.013 65.2966 145.741 80.3892 155.1 98.6794C156.101 100.634 158.453 101.458 160.481 100.617C162.509 99.7766 163.599 97.5273 162.924 95.4391C156.604 75.8814 152.108 59.0385 152.108 50.7032C152.108 22.7023 174.809 0 202.81 0Z" fill="var(--fill-0, white)"/>
</svg>
