<svg preserveAspectRatio="none" width="100%" height="100%" overflow="visible" style="display: block;" viewBox="0 0 116.639 137.637" fill="none" xmlns="http://www.w3.org/2000/svg">
<path id="Vector 234257108 (Stroke)" d="M83.2959 7.69475L88.3418 14.3715L90.4521 17.1635L87.6602 19.2738C82.1758 23.4189 80.1445 31.7202 82.3242 41.3129C92.4168 43.011 100.604 47.4429 105.938 52.4828L106.615 53.141C109.992 56.5235 113.204 61.2589 113.139 66.5151C113.098 69.7838 111.727 73.1166 108.696 75.3969H108.695C105.957 77.4567 102.699 78.0287 99.877 78.0287C91.9735 78.0287 85.2001 74.0665 80.1377 68.9526C76.5285 65.3065 73.5225 60.8295 71.2354 56.0024C70.259 56.055 69.2608 56.1424 68.2422 56.2699C63.6334 56.8471 60.3426 59.4131 57.873 64.0307C56.1279 67.2939 54.9043 71.4465 54.2188 76.1576C70.0285 86.2017 76.3854 99.0557 75.7373 110.418C75.3919 116.473 72.9568 122.211 68.6436 125.847C66.451 127.696 63.6482 129.079 60.4229 129.353C57.1274 129.633 53.9329 128.704 51.1992 126.81C48.2625 124.775 46.2319 121.645 44.8164 118.832C43.3101 115.839 42.0596 112.306 41.0703 108.55C39.2457 101.624 38.1478 93.327 38.2021 85.019C35.6881 84.0281 33.7805 83.7283 32.3467 83.767C30.615 83.8138 29.3769 84.3559 28.376 85.099C25.7277 87.0658 23.2703 91.4855 21.5283 98.3891C18.1206 111.894 18.9717 128.147 18.9717 130.637V134.137H3.60352V130.637C3.60346 129.313 2.62442 110.494 6.62793 94.6283C8.59206 86.8448 12.151 78.0044 19.2129 72.7602C25.0685 68.4118 32.1185 67.3554 39.8311 69.4057C40.795 64.9763 42.2422 60.6703 44.3213 56.7826C48.6069 48.7697 55.7447 42.3468 66.333 41.0209C66.4407 41.0074 66.5489 40.9957 66.6563 40.9828C64.891 28.9917 67.2703 15.4196 78.3926 7.0131L81.1855 4.90275L83.2959 7.69475ZM54.2295 95.7719C54.6396 98.9408 55.2228 101.944 55.9316 104.635C56.7324 107.675 57.647 110.142 58.5439 111.924C58.8417 112.516 59.1135 112.979 59.3438 113.334C59.7947 112.595 60.29 111.358 60.3936 109.543C60.5747 106.367 59.4274 101.279 54.2295 95.7719Z" fill="var(--fill-0, #FF64A2)" stroke="var(--stroke-0, white)" stroke-width="7"/>
</svg>
