<svg preserveAspectRatio="none" width="100%" height="100%" overflow="visible" style="display: block;" viewBox="0 0 52.4716 52.4716" fill="none" xmlns="http://www.w3.org/2000/svg">
<path id="Star 21" d="M19.2352 8.37385C21.6399 1.87535 30.8314 1.87538 33.2362 8.37385L36.0955 16.1014C36.1426 16.2285 36.2429 16.3288 36.3699 16.3758L44.0975 19.2352C50.5961 21.6399 50.5961 30.8314 44.0975 33.2362L36.3699 36.0955C36.2429 36.1426 36.1426 36.2429 36.0955 36.3699L33.2362 44.0975C30.8315 50.5961 21.6399 50.5961 19.2352 44.0975L16.3758 36.3699C16.3287 36.2429 16.2285 36.1425 16.1014 36.0955L8.37385 33.2362C1.8754 30.8314 1.87533 21.6399 8.37385 19.2352L16.1014 16.3758C16.2285 16.3288 16.3288 16.2285 16.3758 16.1014L19.2352 8.37385Z" fill="var(--fill-0, #01D701)" stroke="var(--stroke-0, white)" stroke-width="7"/>
</svg>
