<svg preserveAspectRatio="none" width="100%" height="100%" overflow="visible" style="display: block;" viewBox="0 0 105.201 105.201" fill="none" xmlns="http://www.w3.org/2000/svg">
<path id="Star 19" d="M42.753 10.3565C46.1357 1.21507 59.0657 1.21504 62.4483 10.3565L70.6397 32.4933C70.9942 33.4512 71.7492 34.2071 72.7071 34.5616L94.8448 42.753C103.986 46.1357 103.986 59.0657 94.8448 62.4483L72.7071 70.6397C71.7494 70.9943 70.9943 71.7494 70.6397 72.7071L62.4483 94.8448C59.0657 103.986 46.1357 103.986 42.753 94.8448L34.5616 72.7071C34.2071 71.7492 33.4512 70.9942 32.4933 70.6397L10.3565 62.4483C1.21507 59.0657 1.21504 46.1357 10.3565 42.753L32.4933 34.5616C33.4513 34.2071 34.2071 33.4513 34.5616 32.4933L42.753 10.3565Z" fill="var(--fill-0, #FF64A2)" stroke="var(--stroke-0, white)" stroke-width="7"/>
</svg>
