<svg preserveAspectRatio="none" width="100%" height="100%" overflow="visible" style="display: block;" viewBox="0 0 277 25.7815" fill="none" xmlns="http://www.w3.org/2000/svg">
<g id="sberinsurance H">
<g id="Group 2131327911">
<path id="Vector" d="M116.088 18.9819C115.857 19.2566 115.584 19.4942 115.28 19.6864C114.892 19.9357 114.479 20.1435 114.047 20.3063C112.944 20.7285 111.771 20.9429 110.59 20.9386C109.413 20.9543 108.243 20.7666 107.131 20.3838C106.15 20.0446 105.25 19.5047 104.489 18.7987C103.745 18.0937 103.162 17.2356 102.782 16.2836C102.357 15.2084 102.147 14.0599 102.166 12.9037C102.153 11.8036 102.356 10.7116 102.763 9.68937C103.147 8.73575 103.73 7.87439 104.471 7.16193C105.239 6.43307 106.148 5.86958 107.143 5.50633C108.262 5.10216 109.446 4.90347 110.636 4.91983C111.705 4.89743 112.771 5.05339 113.79 5.38128C114.495 5.60326 115.166 5.92027 115.786 6.32357V10.1808C115.242 9.42069 114.54 8.78737 113.728 8.32438C113.274 8.06536 112.79 7.86082 112.288 7.71498C111.751 7.55691 111.195 7.478 110.636 7.48073C109.854 7.46917 109.077 7.6048 108.346 7.88054C107.699 8.12549 107.111 8.50283 106.618 8.98838C106.135 9.47561 105.764 10.0622 105.531 10.7074C105.275 11.42 105.149 12.1729 105.16 12.9301C105.157 13.6494 105.276 14.364 105.512 15.0436C105.729 15.6921 106.084 16.2857 106.553 16.7833C107.022 17.2808 107.593 17.6705 108.228 17.9251C108.974 18.2271 109.772 18.3814 110.577 18.3795C111.209 18.3854 111.839 18.3108 112.451 18.1576C112.991 18.022 113.512 17.8215 114.003 17.5605C114.451 17.3231 114.866 17.027 115.236 16.6799C115.578 16.3561 115.869 15.9827 116.099 15.572L116.088 18.9819Z" fill="var(--fill-0, #122654)"/>
<path id="Vector_2" d="M130.571 7.71621H125.338V20.6845H122.567V7.71621H117.423V5.16588H130.571V7.71621Z" fill="var(--fill-0, #122654)"/>
<path id="Vector_3" d="M135.772 15.8515V20.6845H132.999V5.16588H138.165C140.619 5.16588 142.396 5.60561 143.496 6.48508C144.597 7.36454 145.147 8.67669 145.149 10.4215C145.149 12.2392 144.557 13.5989 143.375 14.5006C142.193 15.4024 140.456 15.8527 138.165 15.8515H135.772ZM135.772 7.71621V13.303H138.364C139.666 13.303 140.642 13.0775 141.291 12.6266C141.941 12.1758 142.266 11.4184 142.267 10.3546C142.267 9.39294 141.964 8.71309 141.358 8.31504C140.752 7.91699 139.769 7.71738 138.408 7.71621H135.772Z" fill="var(--fill-0, #122654)"/>
<path id="Vector_4" d="M161.208 20.6845H158.26L156.77 17.0052H149.658L148.194 20.6845H145.376L151.673 5.16588H154.832L161.208 20.6845ZM155.748 14.4549L153.205 8.09312L150.656 14.4549H155.748Z" fill="var(--fill-0, #122654)"/>
<path id="Vector_5" d="M167.61 12.7922L162.356 5.16588H165.682L169.65 11.0415L173.861 5.16588H177.077L171.534 12.6372L177.276 20.6845H173.972L169.56 14.4337L165.305 20.6845H162.068L167.61 12.7922Z" fill="var(--fill-0, #122654)"/>
<path id="Vector_6" d="M177.838 12.9026C177.826 11.8034 178.026 10.7121 178.426 9.6883C178.801 8.73797 179.371 7.87691 180.1 7.16087C180.849 6.43461 181.74 5.87096 182.717 5.50527C183.816 5.10024 184.981 4.90142 186.153 4.91876C187.311 4.90488 188.462 5.09261 189.556 5.47356C190.533 5.81147 191.428 6.3516 192.182 7.05871C192.92 7.76436 193.495 8.62273 193.867 9.57382C194.282 10.6479 194.486 11.7919 194.466 12.9431C194.479 14.0431 194.279 15.1351 193.878 16.1592C193.503 17.1093 192.933 17.9703 192.205 18.6867C191.453 19.4132 190.558 19.9752 189.577 20.337C188.481 20.7416 187.321 20.941 186.153 20.9253C184.996 20.9387 183.846 20.7553 182.75 20.3828C181.773 20.0504 180.877 19.5136 180.122 18.8082C179.384 18.1004 178.809 17.2403 178.437 16.2878C178.023 15.208 177.82 14.0589 177.838 12.9026ZM180.765 12.9255C180.763 13.6494 180.882 14.3686 181.118 15.0532C181.334 15.6966 181.685 16.2863 182.148 16.7827C182.626 17.2844 183.204 17.6809 183.844 17.9469C185.312 18.5105 186.935 18.5224 188.411 17.9804C189.044 17.7316 189.618 17.3537 190.097 16.8708C190.573 16.3815 190.939 15.796 191.171 15.1535C191.43 14.4397 191.558 13.6849 191.55 12.9255C191.552 12.2011 191.433 11.4814 191.197 10.7961C190.981 10.1533 190.63 9.5642 190.167 9.06833C189.689 8.56611 189.111 8.16953 188.471 7.90413C187.729 7.60193 186.933 7.45449 186.132 7.47085C185.368 7.46123 184.609 7.59815 183.897 7.87419C183.259 8.11924 182.682 8.49986 182.205 8.98974C181.729 9.47963 181.364 10.0671 181.137 10.7116C180.883 11.4229 180.757 12.1737 180.765 12.9291V12.9255Z" fill="var(--fill-0, #122654)"/>
<path id="Vector_7" d="M197.48 20.6845V5.16588H204.218C207.707 5.16588 209.451 6.45161 209.451 9.02308C209.451 9.91076 209.266 10.6499 208.896 11.2405C208.526 11.8311 207.942 12.282 207.144 12.5932C208.103 12.7552 208.808 13.1357 209.257 13.7345C209.707 14.3333 209.928 15.1429 209.921 16.1633C209.94 16.8733 209.796 17.5783 209.5 18.224C209.228 18.7916 208.812 19.2775 208.292 19.633C207.713 20.017 207.066 20.2877 206.387 20.4309C205.552 20.609 204.7 20.694 203.847 20.6845H197.48ZM203.82 11.7284C204.707 11.7284 205.405 11.5435 205.915 11.1736C206.162 10.9999 206.362 10.7668 206.496 10.4956C206.63 10.2245 206.693 9.92405 206.681 9.62191C206.695 9.35139 206.643 9.0815 206.528 8.83586C206.414 8.59022 206.242 8.37632 206.025 8.21289C205.591 7.88647 204.878 7.72384 203.887 7.72502H200.25V11.7284H203.82ZM204.019 18.1359C205.083 18.1359 205.866 17.9598 206.369 17.6075C206.871 17.2553 207.123 16.7046 207.123 15.9555C207.123 15.2016 206.857 14.6697 206.325 14.3597C205.793 14.0498 205.039 13.8948 204.063 13.8948H200.25V18.1218L204.019 18.1359Z" fill="var(--fill-0, #122654)"/>
<path id="Vector_8" d="M227.146 20.6845H224.196L222.711 17.0052H215.6L214.137 20.6845H211.319L217.615 5.16588H220.763L227.146 20.6845ZM221.686 14.4549L219.141 8.09312L216.592 14.4549H221.686Z" fill="var(--fill-0, #122654)"/>
<path id="Vector_9" d="M240.705 13.967H232.214V20.6845H229.444V5.16588H232.214V11.4184H240.705V5.16588H243.476V20.6845H240.705V13.967Z" fill="var(--fill-0, #122654)"/>
<path id="Vector_10" d="M250.395 16.7604L258.865 5.16588H261.88V20.6845H259.108V8.91388L250.595 20.6845H247.624V5.16588H250.395V16.7604Z" fill="var(--fill-0, #122654)"/>
<path id="Vector_11" d="M275.936 13.967H268.798V18.1359H277V20.6845H266.026V5.16588H276.757V7.71621H268.798V11.4149H275.936V13.967Z" fill="var(--fill-0, #122654)"/>
</g>
<path id="Vector_12" d="M75.1077 7.69417L78.6122 5.10464H66.8776V20.6233H78.6122V18.0312H70.2319V14.0704H77.3939V11.4782H70.2319V7.69417H75.1077Z" fill="var(--fill-0, #122654)"/>
<path id="Vector_13" d="M58.0137 11.1486H53.9501V7.69417H60.453L63.9575 5.10464H50.5985V20.6233H57.5839C61.4946 20.6233 63.7571 18.846 63.7571 15.7475C63.7571 12.6491 61.724 11.1513 58.0164 11.1513L58.0137 11.1486ZM57.4283 18.0312H53.9475V13.7381H57.4521C59.5854 13.7381 60.5769 14.4501 60.5769 15.8978C60.5769 17.3455 59.5089 18.0312 57.4283 18.0312Z" fill="var(--fill-0, #122654)"/>
<path id="Vector_14" d="M88.113 5.10464H81.7368V20.6233H85.0884V16.2301H88.1367C92.2003 16.2301 94.7398 14.0968 94.7398 10.6687C94.7398 7.24061 92.2003 5.10728 88.1104 5.10728L88.113 5.10464ZM88.0365 13.6379H85.0646V7.69417H88.0365C90.1962 7.69417 91.3644 8.76215 91.3644 10.6661C91.3644 12.57 90.1962 13.6379 88.0365 13.6379Z" fill="var(--fill-0, #122654)"/>
<path id="Vector_15" d="M44.855 17.2844C43.9664 17.767 42.9748 18.0201 41.9596 18.0201C38.9376 18.0201 36.7516 15.8604 36.7516 12.8886C36.7516 9.91667 38.935 7.75697 41.9596 7.75697C43.0513 7.7306 44.1193 8.06286 45.008 8.72211L47.4208 6.94478L47.2679 6.79183C45.8703 5.57355 43.9927 4.91166 41.8568 4.91166C39.5468 4.91166 37.4372 5.70012 35.913 7.12146C34.3888 8.59554 33.5265 10.6524 33.5766 12.7857C33.5503 14.9454 34.3888 17.0286 35.913 18.5502C37.5136 20.048 39.647 20.8865 41.8304 20.8364C44.2432 20.8364 46.3502 19.9979 47.7742 18.4737L45.6145 16.873L44.8524 17.2791L44.855 17.2844Z" fill="var(--fill-0, #122654)"/>
<g id="Shape">
<path id="Vector_16" d="M23.0907 5.01716C23.6991 5.80373 24.2194 6.66318 24.6354 7.57932L12.8896 16.2356L7.98195 13.1592V9.45917L12.8896 12.5356L23.0907 5.01716Z" fill="var(--fill-0, #122654)"/>
<path id="Vector_17" d="M25.7815 12.8918C25.7815 12.1032 25.7106 11.3318 25.575 10.5817L22.8002 12.6265C22.8023 12.7146 22.8043 12.8027 22.8043 12.8907C22.8043 18.3572 18.3572 22.8043 12.8907 22.8043C7.42427 22.8043 2.9772 18.3572 2.9772 12.8907C2.9772 7.42427 7.42427 2.9772 12.8907 2.9772C14.9619 2.9772 16.8873 3.61597 18.4797 4.70724L20.9872 2.85977C18.7743 1.07102 15.958 0 12.8907 0C5.77117 0 0 5.77117 0 12.8907C0 20.0103 5.77117 25.7815 12.8907 25.7815C20.0103 25.7815 25.7815 20.0113 25.7815 12.8918Z" fill="var(--fill-0, #122654)"/>
</g>
</g>
</svg>
