<svg preserveAspectRatio="none" width="100%" height="100%" overflow="visible" style="display: block;" viewBox="0 0 64.6847 64.6847" fill="none" xmlns="http://www.w3.org/2000/svg">
<path id="Star 21" d="M25.3416 8.37386C27.7463 1.87529 36.9378 1.87543 39.3426 8.37386L43.8514 20.5584C43.8984 20.6855 43.9988 20.7858 44.1258 20.8328L56.3104 25.3416C62.809 27.7463 62.809 36.9379 56.3104 39.3426L44.1258 43.8514C43.9987 43.8984 43.8984 43.9987 43.8514 44.1258L39.3426 56.3104C36.9379 62.809 27.7463 62.809 25.3416 56.3104L20.8328 44.1258C20.7858 43.9988 20.6855 43.8984 20.5584 43.8514L8.37386 39.3426C1.87538 36.9378 1.87534 27.7463 8.37386 25.3416L20.5584 20.8328C20.6855 20.7858 20.7858 20.6855 20.8328 20.5584L25.3416 8.37386Z" fill="var(--fill-0, #01D701)" stroke="var(--stroke-0, white)" stroke-width="7"/>
</svg>
