<svg preserveAspectRatio="none" width="100%" height="100%" overflow="visible" style="display: block;" viewBox="0 0 103.495 103.495" fill="none" xmlns="http://www.w3.org/2000/svg">
<path id="Star 19" d="M41.9005 10.3566C45.2832 1.21506 58.2122 1.21506 61.5948 10.3566L69.5558 31.8712C69.9103 32.8292 70.6661 33.5841 71.6241 33.9386L93.1388 41.9005C102.28 45.2832 102.28 58.2122 93.1388 61.5948L71.6241 69.5558C70.6661 69.9103 69.9103 70.6661 69.5558 71.6241L61.5948 93.1388C58.2122 102.28 45.2832 102.28 41.9005 93.1388L33.9386 71.6241C33.5841 70.6661 32.8292 69.9103 31.8712 69.5558L10.3566 61.5948C1.21506 58.2122 1.21506 45.2832 10.3566 41.9005L31.8712 33.9386C32.829 33.5841 33.5841 32.829 33.9386 31.8712L41.9005 10.3566Z" fill="var(--fill-0, #FF64A2)" stroke="var(--stroke-0, white)" stroke-width="7"/>
</svg>
