<svg preserveAspectRatio="none" width="100%" height="100%" overflow="visible" style="display: block;" viewBox="0 0 161.179 190.072" fill="none" xmlns="http://www.w3.org/2000/svg">
<path id="Vector 234257108 (Stroke)" d="M115.192 7.69475L122.429 17.269L124.539 20.061L121.746 22.1713C113.007 28.7762 110.203 41.8531 113.765 56.3237C128.409 58.5814 140.234 64.9302 147.83 72.1069C152.912 76.9084 157.77 83.7136 157.678 91.1049C157.626 95.2441 155.95 99.4213 152.275 102.365L151.913 102.646C148.347 105.329 144.044 106.115 140.18 106.115C129.377 106.115 120.031 100.698 112.955 93.5502C107.69 88.2314 103.321 81.624 100.056 74.4867C98.2941 74.5516 96.4846 74.694 94.6299 74.9262C87.4321 75.8275 82.3322 79.8862 78.6104 86.8451C75.8795 91.9513 74.0415 98.4398 73.0723 105.716C96.0112 119.98 104.951 138.195 104.05 153.993C103.573 162.351 100.215 170.151 94.4141 175.041C91.4686 177.525 87.7391 179.355 83.4775 179.717C79.129 180.087 74.8955 178.865 71.2441 176.335C67.342 173.632 64.5703 169.411 62.583 165.461C60.4832 161.289 58.7242 156.327 57.3242 151.013C54.6671 140.926 53.0949 128.763 53.2725 116.642C49.0521 114.851 45.8038 114.277 43.3047 114.344C40.4828 114.42 38.4096 115.318 36.7461 116.553C32.5123 119.697 28.8802 126.472 26.3604 136.458C21.4149 156.058 22.6475 179.619 22.6475 183.072V186.572H3.64746V183.072C3.64746 181.06 2.2563 154.328 7.93848 131.809C10.7329 120.735 15.7285 108.495 25.4189 101.299C33.7554 95.1086 43.9204 93.7559 55.2334 97.1733C56.5845 90.3701 58.7091 83.769 61.8564 77.8842C67.8233 66.7278 77.6787 57.9006 92.2695 56.0737C92.9475 55.9888 93.6222 55.9152 94.293 55.8481C91.3602 38.5908 94.4754 18.9653 110.289 7.0131L113.082 4.90275L115.192 7.69475ZM72.75 129.034C73.3186 135.195 74.3503 141.063 75.6963 146.173C76.8632 150.603 78.2082 154.246 79.5547 156.921C80.2557 158.314 80.8716 159.273 81.3447 159.899C81.662 160.318 81.8854 160.546 81.9941 160.65C82.045 160.613 82.1036 160.569 82.168 160.515L82.3643 160.336C83.3804 159.347 84.851 156.926 85.0801 152.911C85.4022 147.263 83.0539 138.279 72.75 129.034ZM126.458 80.184C129.326 83.0813 132.196 84.999 134.938 86.0688C134.886 86.0191 134.834 85.9676 134.781 85.9174C132.655 83.9083 129.813 81.8583 126.335 80.057C126.376 80.0992 126.417 80.1422 126.458 80.184Z" fill="var(--fill-0, #FF64A2)" stroke="var(--stroke-0, white)" stroke-width="7"/>
</svg>
