<svg preserveAspectRatio="none" width="100%" height="100%" overflow="visible" style="display: block;" viewBox="0 0 81.9301 81.9301" fill="none" xmlns="http://www.w3.org/2000/svg">
<path id="Star 19" d="M31.1173 10.3566C34.5 1.21506 47.43 1.21507 50.8126 10.3566L55.8614 24.0011C56.216 24.959 56.9719 25.714 57.9298 26.0685L71.5743 31.1173C80.7156 34.5 80.7155 47.4298 71.5743 50.8126L57.9298 55.8614C56.9718 56.2159 56.2159 56.9718 55.8614 57.9298L50.8126 71.5743C47.4298 80.7155 34.5 80.7156 31.1173 71.5743L26.0685 57.9298C25.714 56.9719 24.959 56.216 24.0011 55.8614L10.3566 50.8126C1.21506 47.43 1.21507 34.5 10.3566 31.1173L24.0011 26.0685C24.9588 25.714 25.714 24.9588 26.0685 24.0011L31.1173 10.3566Z" fill="var(--fill-0, #FF64A2)" stroke="var(--stroke-0, white)" stroke-width="7"/>
</svg>
