<svg preserveAspectRatio="none" width="100%" height="100%" overflow="visible" style="display: block;" viewBox="0 0 65.6508 65.6508" fill="none" xmlns="http://www.w3.org/2000/svg">
<path id="Star 20" d="M25.825 8.37386C28.2298 1.87536 37.4213 1.87536 39.826 8.37386L44.4647 20.911C44.5117 21.0379 44.6122 21.1383 44.7391 21.1854L57.2772 25.825C63.7754 28.2299 63.7754 37.4212 57.2772 39.826L44.7391 44.4647C44.6122 44.5117 44.5117 44.6121 44.4647 44.7391L39.826 57.2772C37.4212 63.7755 28.2299 63.7754 25.825 57.2772L21.1854 44.7391C21.1383 44.6122 21.0379 44.5117 20.911 44.4647L8.37386 39.826C1.87531 37.4213 1.87541 28.2298 8.37386 25.825L20.911 21.1854C21.0381 21.1384 21.1384 21.0381 21.1854 20.911L25.825 8.37386Z" fill="var(--fill-0, #01D701)" stroke="var(--stroke-0, white)" stroke-width="7"/>
</svg>
