<svg preserveAspectRatio="none" width="100%" height="100%" overflow="visible" style="display: block;" viewBox="0 0 236.424 236.43" fill="none" xmlns="http://www.w3.org/2000/svg">
<path id="Union" opacity="0.2" d="M118.212 0C134.533 0 147.765 13.2326 147.765 29.5535C147.765 34.41 145.145 44.2216 141.463 55.6153C141.069 56.8351 141.706 58.149 142.89 58.64C144.074 59.1312 145.448 58.6496 146.032 57.5077C151.481 46.8484 156.56 38.0559 160 34.6163C165.772 28.8589 173.334 25.9725 180.896 25.9725C188.458 25.9725 196.034 28.8591 201.791 34.6163C213.336 46.1607 213.336 64.8776 201.791 76.422C198.362 79.8612 189.574 84.9396 178.921 90.3882C177.779 90.9724 177.297 92.3469 177.789 93.532C178.28 94.7164 179.594 95.3534 180.814 94.9591C192.201 91.2789 202.007 88.6613 206.871 88.6613C223.192 88.6615 236.424 101.894 236.424 118.215C236.424 134.536 223.192 147.768 206.871 147.768C202.007 147.768 192.201 145.144 180.814 141.466C179.593 141.072 178.279 141.709 177.787 142.895C177.295 144.081 177.777 145.456 178.92 146.041C189.575 151.494 198.365 156.575 201.796 160.006C213.339 171.55 213.34 190.267 201.796 201.812C196.037 207.569 188.461 210.455 180.899 210.455C173.338 210.455 165.776 207.569 160.004 201.812C156.573 198.373 151.49 189.578 146.037 178.917C145.452 177.774 144.077 177.292 142.891 177.783C141.706 178.274 141.068 179.59 141.462 180.811C145.145 192.206 147.765 202.019 147.765 206.876C147.765 223.197 134.533 236.43 118.212 236.43C101.891 236.43 88.6593 223.197 88.6592 206.876C88.6592 202.017 91.2805 192.199 94.9655 180.799C95.3593 179.58 94.7232 178.268 93.5405 177.778C92.357 177.287 90.9845 177.768 90.4009 178.908C84.9454 189.571 79.8562 198.371 76.4244 201.812C70.6524 207.569 63.0899 210.455 55.5281 210.455C47.9664 210.455 40.3898 207.569 34.6326 201.812C23.0811 190.267 23.0811 171.55 34.6326 160.006C38.065 156.575 46.8632 151.483 57.5274 146.022C58.6659 145.439 59.1456 144.069 58.6559 142.887C58.1664 141.706 56.8561 141.071 55.6394 141.464C44.2395 145.145 34.4215 147.768 29.5528 147.768C13.2322 147.768 0 134.536 0 118.215C0 101.894 13.2322 88.6615 29.5528 88.6613C34.4125 88.6613 44.2339 91.2835 55.637 94.9654C56.8536 95.3582 58.1638 94.7228 58.6534 93.5419C59.1432 92.3607 58.6635 90.9908 57.5253 90.408C46.8612 84.9478 38.0633 79.8562 34.6309 76.4237C23.0794 64.8793 23.0794 46.1633 34.6309 34.6189C40.39 28.8615 47.9645 25.9742 55.5264 25.9742C63.0882 25.9742 70.6498 28.8614 76.4219 34.6189C79.8613 38.0596 84.9482 46.8566 90.4035 57.5175C90.9866 58.6569 92.3578 59.1371 93.5401 58.6469C94.7217 58.157 95.3571 56.846 94.9638 55.6288C91.2801 44.2291 88.6592 34.4119 88.6592 29.5535C88.6593 13.2326 101.891 0 118.212 0Z" fill="var(--fill-0, white)"/>
</svg>
