<svg preserveAspectRatio="none" width="100%" height="100%" overflow="visible" style="display: block;" viewBox="0 0 100.754 100.754" fill="none" xmlns="http://www.w3.org/2000/svg">
<g id="Vector">
<path fill-rule="evenodd" clip-rule="evenodd" d="M67.8899 43.4083C67.9097 43.4619 67.9295 43.5155 67.9492 43.5691C67.9294 43.5152 67.9098 43.4622 67.8899 43.4083Z" fill="var(--fill-0, #21A038)"/>
<path d="M100.754 50.3772C100.754 57.3324 95.1153 62.9715 88.1601 62.9715C84.8518 62.9715 76.1806 60.1244 67.9667 57.1474C67.9509 57.1895 67.9351 57.2317 67.9192 57.274C67.8239 57.5284 67.7273 57.7862 67.622 58.0393C75.5304 61.7357 83.6663 65.8556 85.9971 68.1864C90.9167 73.106 90.9167 81.0821 85.9971 86.0018C83.5428 88.4553 80.3147 89.6856 77.0921 89.6856C73.8695 89.6856 70.647 88.4553 68.1871 86.0018C65.8564 83.6655 61.7357 75.5296 58.0401 67.6149C57.8238 67.7141 57.6076 67.7934 57.3864 67.8745C57.3058 67.9041 57.2241 67.9341 57.1419 67.9652C60.1307 76.1806 62.9715 84.8581 62.9715 88.1601C62.9715 95.1153 57.3324 100.754 50.3772 100.754C43.422 100.754 37.7829 95.1153 37.7829 88.1601C37.7829 84.8581 40.6237 76.1806 43.6141 67.9652C43.5043 67.9225 43.3946 67.8823 43.2851 67.8422C43.0939 67.7722 42.9037 67.7025 42.7159 67.6204C39.0258 75.5288 34.8996 83.6648 32.5689 86.0018C30.109 88.4553 26.8865 89.6856 23.6639 89.6856C20.4413 89.6856 17.2125 88.4553 14.759 86.0018C9.83615 81.0821 9.83615 73.106 14.759 68.1864C17.0897 65.8564 25.2256 61.7294 33.134 58.0338C33.0347 57.8128 32.9505 57.5844 32.8668 57.3571C32.841 57.2873 32.8153 57.2176 32.7893 57.1482C24.5738 60.1307 15.9027 62.9715 12.5943 62.9715C5.6391 62.9715 0 57.3324 0 50.3772C0 43.422 5.6391 37.7829 12.5943 37.7829C15.8964 37.7829 24.5738 40.6237 32.7885 43.6062C32.8139 43.5387 32.839 43.4708 32.8641 43.4028C32.9486 43.1738 33.0338 42.9433 33.1333 42.7207C25.2248 39.025 17.0889 34.8988 14.7582 32.5681C9.83537 27.6484 9.83537 19.6723 14.7582 14.7527C17.2125 12.2991 20.4406 11.0688 23.6631 11.0688C26.8857 11.0688 30.1083 12.2991 32.5681 14.7527C34.9043 17.0897 39.025 25.2256 42.7207 33.134C42.9552 33.0286 43.198 32.9403 43.4424 32.8514C43.4991 32.8308 43.5558 32.8102 43.6125 32.7893C40.6237 24.5738 37.7829 15.8964 37.7829 12.5943C37.7829 5.6391 43.422 0 50.3772 0C57.3324 0 62.9715 5.6391 62.9715 12.5943C62.9715 15.8964 60.1307 24.5738 57.1404 32.7885C57.2226 32.8196 57.3039 32.8494 57.3845 32.879C57.6058 32.9602 57.8222 33.0395 58.0385 33.1388C61.7349 25.2248 65.8485 17.0889 68.1856 14.7519C70.6454 12.2983 73.868 11.068 77.0905 11.068C80.3131 11.068 83.542 12.2983 85.9955 14.7519C90.9151 19.6715 90.9151 27.6476 85.9955 32.5673C83.6648 34.9043 75.5288 39.0187 67.6204 42.7144C67.7381 42.9954 67.8436 43.2821 67.9492 43.5691L67.9652 43.6125C76.1806 40.6237 84.8518 37.7829 88.1601 37.7829C95.1153 37.7829 100.754 43.422 100.754 50.3772Z" fill="var(--fill-0, #21A038)"/>
</g>
</svg>
