<svg preserveAspectRatio="none" width="100%" height="100%" overflow="visible" style="display: block;" viewBox="0 0 137.633 137.633" fill="none" xmlns="http://www.w3.org/2000/svg">
<g id="Group 2131329259">
<circle id="Ellipse 28726" cx="68.8256" cy="68.8181" r="27.4703" transform="rotate(30 68.8256 68.8181)" fill="var(--fill-0, #21A038)"/>
<g id="Vector">
<path fill-rule="evenodd" clip-rule="evenodd" d="M87.4675 71.5377C87.4578 71.594 87.4481 71.6502 87.4384 71.7065C87.4482 71.65 87.4578 71.5942 87.4675 71.5377Z" fill="var(--fill-0, #21A038)"/>
<path d="M112.445 94.0052C108.967 100.029 101.264 102.093 95.2404 98.615C92.3752 96.9608 86.2893 90.1596 80.6644 83.4745C80.6297 83.503 80.5949 83.5317 80.56 83.5604C80.3502 83.733 80.1377 83.9079 79.9199 84.0745C84.9206 91.2299 89.9066 98.8658 90.7597 102.05C92.5604 108.77 88.5723 115.678 81.852 117.478C78.4997 118.376 75.089 117.827 72.2981 116.216C69.5073 114.605 67.3316 111.928 66.4281 108.573C65.5778 105.385 66.0771 96.2784 66.8339 87.5762C66.597 87.554 66.3702 87.5146 66.138 87.4742C66.0534 87.4595 65.9678 87.4447 65.881 87.4305C64.3617 96.0397 62.4831 104.975 60.8321 107.835C57.3545 113.858 49.6513 115.922 43.628 112.445C37.6046 108.967 35.5405 101.264 39.0181 95.2404C40.6692 92.3807 47.4681 86.2862 54.1655 80.6666C54.0918 80.5747 54.0169 80.4851 53.9421 80.3956C53.8116 80.2394 53.6816 80.0839 53.5601 79.919C46.4102 84.9228 38.7688 89.9056 35.5818 90.7642C32.2248 91.6591 28.8188 91.1133 26.028 89.502C23.2371 87.8907 21.056 85.2108 20.158 81.8592C18.3545 75.1373 22.3426 68.2297 29.0657 66.4306C32.2491 65.5782 41.3585 66.072 50.0553 66.8257C50.0797 66.5847 50.121 66.3448 50.1621 66.1061C50.1747 66.0327 50.1874 65.9595 50.1994 65.8865C41.5934 64.3617 32.6636 62.4863 29.7984 60.8321C23.7751 57.3545 21.711 49.6513 25.1886 43.628C28.6662 37.6046 36.3694 35.5405 42.3928 39.0181C45.2524 40.6692 51.3469 47.4681 56.9698 54.1583C57.0256 54.1125 57.0812 54.0663 57.1369 54.0199C57.3247 53.8639 57.5136 53.7069 57.7111 53.5638C52.71 46.4091 47.7272 38.7677 46.8741 35.5839C45.0707 28.8619 49.0587 21.9544 55.7818 20.1553C59.1341 19.2576 62.5449 19.8062 65.3357 21.4174C68.1265 23.0287 70.3022 25.7055 71.2057 29.0602C72.0604 32.2523 71.5611 41.3585 70.8074 50.0553C71.0632 50.0812 71.3177 50.1261 71.5738 50.1713C71.6331 50.1818 71.6926 50.1923 71.7521 50.2026C73.2715 41.5934 75.15 32.6581 76.801 29.7984C80.2786 23.7751 87.9818 21.711 94.0052 25.1886C100.029 28.6662 102.093 36.3694 98.615 42.3928C96.964 45.2524 90.165 51.3469 83.468 56.9658C83.5236 57.0339 83.5791 57.1004 83.6342 57.1663C83.7852 57.3473 83.9329 57.5242 84.0706 57.7183C91.2288 52.7128 98.8593 47.7237 102.052 46.8683C105.409 45.9734 108.815 46.5192 111.606 48.1305C114.396 49.7417 116.578 52.4217 117.476 55.7732C119.276 62.4936 115.288 69.4011 108.568 71.2019C105.381 72.0604 96.2777 71.5556 87.581 70.8019C87.5424 71.1041 87.4904 71.4052 87.4384 71.7065L87.4305 71.7521C96.0397 73.2715 104.97 75.1468 107.835 76.801C113.858 80.2786 115.922 87.9818 112.445 94.0052Z" fill="var(--fill-0, #21A038)"/>
</g>
</g>
</svg>
