<svg preserveAspectRatio="none" width="100%" height="100%" overflow="visible" style="display: block;" viewBox="0 0 59.3616 61.3844" fill="none" xmlns="http://www.w3.org/2000/svg">
<path id="Star 63" d="M23.7098 1.97532C27.2548 -0.658439 32.1068 -0.65844 35.6518 1.97532V1.97532C37.4076 3.27977 39.5423 3.97336 41.7295 3.95007V3.95007C46.1456 3.90304 50.0709 6.75496 51.3908 10.9694V10.9694C52.0446 13.0568 53.3639 14.8726 55.147 16.1394V16.1394C58.7474 18.6971 60.2467 23.3116 58.8373 27.497V27.497C58.1393 29.57 58.1393 31.8145 58.8373 33.8874V33.8874C60.2467 38.0728 58.7474 42.6873 55.147 45.245V45.245C53.3639 46.5118 52.0446 48.3276 51.3908 50.415V50.415C50.0709 54.6294 46.1456 57.4814 41.7295 57.4343V57.4343C39.5423 57.4111 37.4076 58.1046 35.6519 59.4091V59.4091C32.1068 62.0429 27.2548 62.0429 23.7098 59.4091V59.4091C21.954 58.1046 19.8193 57.4111 17.6321 57.4343V57.4343C13.216 57.4814 9.2907 54.6295 7.97078 50.415V50.415C7.31704 48.3276 5.99775 46.5118 4.21458 45.245V45.245C0.614247 42.6873 -0.885098 38.0728 0.524274 33.8874V33.8874C1.22231 31.8145 1.22231 29.57 0.524274 27.497V27.497C-0.885098 23.3116 0.614247 18.6971 4.21458 16.1394V16.1394C5.99775 14.8726 7.31704 13.0568 7.97078 10.9694V10.9694C9.2907 6.75496 13.216 3.90304 17.6321 3.95007V3.95007C19.8193 3.97336 21.954 3.27977 23.7098 1.97532V1.97532Z" fill="var(--fill-0, #05AEEC)"/>
</svg>
