<svg preserveAspectRatio="none" width="100%" height="100%" overflow="visible" style="display: block;" viewBox="0 0 116.213 116.213" fill="none" xmlns="http://www.w3.org/2000/svg">
<path id="Vector" d="M116.213 58.1063C116.213 66.1286 109.708 72.6329 101.686 72.6329C97.8701 72.6329 87.8685 69.349 78.3945 65.9152C78.3762 65.9638 78.358 66.0124 78.3397 66.0612C78.2297 66.3547 78.1183 66.652 77.9968 66.9439C87.1186 71.2075 96.5028 75.9595 99.1911 78.6478C104.866 84.3222 104.866 93.5221 99.1911 99.1965C96.3602 102.027 92.6369 103.446 88.9199 103.446C85.2029 103.446 81.4859 102.027 78.6487 99.1965C75.9604 96.5019 71.2075 87.1177 66.9448 77.9887C66.6954 78.1031 66.446 78.1945 66.1909 78.2881C66.0978 78.3222 66.0037 78.3568 65.9089 78.3927C69.3562 87.8685 72.6329 97.8773 72.6329 101.686C72.6329 109.708 66.1286 116.213 58.1063 116.213C50.084 116.213 43.5797 109.708 43.5797 101.686C43.5797 97.8773 46.8564 87.8685 50.3055 78.3927C50.1789 78.3434 50.0524 78.2971 49.9261 78.2508C49.7056 78.1701 49.4861 78.0897 49.2696 77.995C45.0133 87.1168 40.2541 96.501 37.5657 99.1965C34.7285 102.027 31.0115 103.446 27.2945 103.446C23.5775 103.446 19.8533 102.027 17.0233 99.1965C11.3453 93.5221 11.3453 84.3222 17.0233 78.6478C19.7117 75.9604 29.0958 71.2002 38.2176 66.9375C38.103 66.6826 38.0059 66.4192 37.9093 66.157C37.8796 66.0765 37.85 65.9961 37.8199 65.9162C28.3441 69.3562 18.3425 72.6329 14.5266 72.6329C6.50427 72.6329 0 66.1286 0 58.1063C0 50.084 6.50427 43.5797 14.5266 43.5797C18.3353 43.5797 28.3441 46.8564 37.819 50.2965C37.8483 50.2185 37.8772 50.1402 37.9062 50.0618C38.0037 49.7977 38.1019 49.5319 38.2167 49.2751C29.0949 45.0124 19.7107 40.2531 17.0224 37.5648C11.3443 31.8904 11.3443 22.6905 17.0224 17.0161C19.8533 14.1861 23.5766 12.767 27.2936 12.767C31.0106 12.767 34.7276 14.1861 37.5648 17.0161C40.2595 19.7117 45.0124 29.0958 49.2751 38.2176C49.5456 38.096 49.8257 37.9941 50.1076 37.8916C50.1729 37.8678 50.2383 37.844 50.3037 37.8199C46.8564 28.3441 43.5797 18.3353 43.5797 14.5266C43.5797 6.50427 50.084 0 58.1063 0C66.1286 0 72.6329 6.50427 72.6329 14.5266C72.6329 18.3353 69.3562 28.3441 65.9071 37.819C66.0019 37.8549 66.0957 37.8893 66.1887 37.9234C66.4439 38.0171 66.6935 38.1086 66.943 38.2231C71.2066 29.0949 75.9513 19.7107 78.6469 17.0152C81.4841 14.1852 85.2011 12.7661 88.9181 12.7661C92.6351 12.7661 96.3593 14.1852 99.1893 17.0152C104.864 22.6896 104.864 31.8895 99.1893 37.5639C96.501 40.2595 87.1168 45.0051 77.995 49.2678C78.1307 49.5919 78.2524 49.9226 78.3742 50.2536L78.3927 50.3037C87.8685 46.8564 97.8701 43.5797 101.686 43.5797C109.708 43.5797 116.213 50.084 116.213 58.1063Z" fill="var(--fill-0, #FF8FBC)"/>
</svg>
