<svg preserveAspectRatio="none" width="100%" height="100%" overflow="visible" style="display: block;" viewBox="0 0 157.092 157.092" fill="none" xmlns="http://www.w3.org/2000/svg">
<g id="Group 2131329265">
<path id="Star 5" d="M65.2072 9.90996C73.1266 4.02635 83.9655 4.02634 91.8849 9.90995L93.0587 10.782C96.981 13.6961 101.75 15.2455 106.636 15.1935L108.098 15.1779C117.963 15.0729 126.732 21.4438 129.681 30.8587L130.118 32.2541C131.578 36.9171 134.525 40.9736 138.509 43.8035L139.701 44.6503C147.744 50.364 151.093 60.6724 147.945 70.0223L147.478 71.4082C145.919 76.039 145.919 81.0531 147.478 85.6839L147.945 87.0698C151.093 96.4197 147.744 106.728 139.701 112.442L138.509 113.289C134.525 116.119 131.578 120.175 130.118 124.838L129.681 126.233C126.732 135.648 117.963 142.019 108.098 141.914L106.636 141.899C101.75 141.847 96.981 143.396 93.0587 146.31L91.8849 147.182C83.9655 153.066 73.1266 153.066 65.2072 147.182L64.0334 146.31C60.1111 143.396 55.3424 141.847 50.4564 141.899L48.9941 141.914C39.1289 142.019 30.36 135.648 27.4114 126.233L26.9744 124.838C25.514 120.175 22.5668 116.119 18.5833 113.289L17.3912 112.442C9.34831 106.728 5.99889 96.4197 9.14732 87.0698L9.61398 85.6839C11.1733 81.0531 11.1733 76.039 9.61399 71.4082L9.14732 70.0223C5.99889 60.6724 9.34831 50.364 17.3912 44.6503L18.5833 43.8035C22.5668 40.9736 25.514 36.9171 26.9744 32.2542L27.4114 30.8587C30.36 21.4438 39.1289 15.0729 48.9941 15.1779L50.4564 15.1935C55.3424 15.2455 60.1111 13.6961 64.0334 10.782L65.2072 9.90996Z" fill="var(--fill-0, #FF8FBC)"/>
</g>
</svg>
