<svg preserveAspectRatio="none" width="100%" height="100%" overflow="visible" style="display: block;" viewBox="0 0 81.9212 84.7988" fill="none" xmlns="http://www.w3.org/2000/svg">
<path id="Star 6" d="M33.2184 2.56125C37.815 -0.85375 44.1062 -0.853748 48.7028 2.56125L49.3841 3.06743C51.6607 4.75882 54.4286 5.65814 57.2646 5.62794L58.1133 5.6189C63.8393 5.55793 68.929 9.25581 70.6404 14.7204L70.8941 15.5304C71.7417 18.2369 73.4524 20.5914 75.7645 22.2339L76.4564 22.7255C81.1247 26.0418 83.0688 32.0251 81.2414 37.452L80.9705 38.2564C80.0654 40.9442 80.0654 43.8545 80.9705 46.5424L81.2414 47.3468C83.0688 52.7737 81.1247 58.757 76.4564 62.0733L75.7645 62.5649C73.4524 64.2074 71.7417 66.5619 70.8941 69.2684L70.6404 70.0784C68.929 75.543 63.8393 79.2409 58.1133 79.1799L57.2646 79.1708C54.4286 79.1406 51.6607 80.04 49.3841 81.7313L48.7028 82.2375C44.1062 85.6525 37.815 85.6525 33.2184 82.2375L32.5371 81.7313C30.2604 80.04 27.4926 79.1406 24.6566 79.1708L23.8079 79.1799C18.0819 79.2409 12.9922 75.543 11.2807 70.0784L11.0271 69.2684C10.1794 66.5619 8.46879 64.2074 6.15668 62.5649L5.46473 62.0733C0.796446 58.757 -1.14764 52.7737 0.679788 47.3468L0.950657 46.5424C1.85575 43.8545 1.85575 40.9442 0.950655 38.2564L0.679786 37.452C-1.14764 32.0251 0.796449 26.0418 5.46473 22.7255L6.15668 22.2339C8.46879 20.5914 10.1794 18.2369 11.0271 15.5304L11.2807 14.7204C12.9922 9.2558 18.0819 5.55793 23.8079 5.6189L24.6566 5.62794C27.4926 5.65814 30.2604 4.75881 32.5371 3.06743L33.2184 2.56125Z" fill="var(--fill-0, #21A038)"/>
</svg>
