<svg preserveAspectRatio="none" width="100%" height="100%" overflow="visible" style="display: block;" viewBox="0 0 22.0705 22.0703" fill="none" xmlns="http://www.w3.org/2000/svg">
<path id="Star 60" d="M8.76151 1.58302C9.54257 -0.527676 12.5279 -0.527672 13.309 1.58303L14.861 5.77715C15.1065 6.44076 15.6297 6.96396 16.2933 7.20951L20.4874 8.7614C22.5982 9.54243 22.5982 12.5278 20.4874 13.3089L16.2933 14.8608C15.6297 15.1063 15.1065 15.6295 14.861 16.2931L13.3089 20.4873C12.5279 22.598 9.54256 22.5979 8.76151 20.4873L7.2095 16.2931C6.96394 15.6295 6.44072 15.1063 5.77712 14.8608L1.58307 13.3089C-0.527687 12.5278 -0.52769 9.54243 1.58306 8.7614L5.77711 7.20951C6.44072 6.96396 6.96394 6.44075 7.2095 5.77715L8.76151 1.58302Z" fill="var(--fill-0, #05AEEC)"/>
</svg>
