<svg preserveAspectRatio="none" width="100%" height="100%" overflow="visible" style="display: block;" viewBox="0 0 28.2465 28.2461" fill="none" xmlns="http://www.w3.org/2000/svg">
<path id="Star 58" d="M11.8495 1.58302C12.6306 -0.527677 15.6159 -0.527672 16.397 1.58303L18.783 8.03105C19.0286 8.69465 19.5518 9.21786 20.2154 9.46341L26.6634 11.8493C28.7742 12.6303 28.7742 15.6158 26.6634 16.3968L20.2154 18.7827C19.5518 19.0282 19.0286 19.5515 18.783 20.2151L16.397 26.6631C15.6159 28.7738 12.6306 28.7738 11.8495 26.6631L9.46346 20.2151C9.2179 19.5515 8.69469 19.0282 8.03108 18.7827L1.58307 16.3968C-0.527686 15.6158 -0.527691 12.6303 1.58306 11.8493L8.03108 9.46341C8.69469 9.21786 9.2179 8.69465 9.46347 8.03105L11.8495 1.58302Z" fill="var(--fill-0, #05AEEC)"/>
</svg>
