<svg preserveAspectRatio="none" width="100%" height="100%" overflow="visible" style="display: block;" viewBox="0 0 82.437 82.437" fill="none" xmlns="http://www.w3.org/2000/svg">
<path id="Vector" d="M82.437 41.2185C82.437 46.9092 77.8231 51.5231 72.1324 51.5231C69.4255 51.5231 62.3307 49.1936 55.6102 46.7579C55.5972 46.7923 55.5843 46.8268 55.5713 46.8614C55.4933 47.0696 55.4142 47.2805 55.3281 47.4876C61.7988 50.512 68.4556 53.8829 70.3626 55.7899C74.3878 59.8151 74.3878 66.3412 70.3626 70.3664C68.3544 72.3739 65.7132 73.3805 63.0765 73.3805C60.4398 73.3805 57.8031 72.3739 55.7905 70.3664C53.8835 68.4549 50.512 61.7981 47.4882 55.3223C47.3113 55.4035 47.1344 55.4683 46.9534 55.5347C46.8874 55.5589 46.8206 55.5834 46.7534 55.6089C49.1988 62.3307 51.5231 69.4306 51.5231 72.1324C51.5231 77.8231 46.9092 82.437 41.2185 82.437C35.5278 82.437 30.9139 77.8231 30.9139 72.1324C30.9139 69.4306 33.2382 62.3307 35.6849 55.6089C35.5951 55.574 35.5053 55.5411 35.4158 55.5083C35.2593 55.451 35.1037 55.394 34.9501 55.3268C31.9308 61.7975 28.5548 68.4543 26.6478 70.3664C24.6351 72.3739 21.9984 73.3805 19.3617 73.3805C16.725 73.3805 14.0832 72.3739 12.0757 70.3664C8.04791 66.3412 8.04791 59.8151 12.0757 55.7899C13.9827 53.8835 20.6395 50.5068 27.1102 47.4831C27.0289 47.3022 26.96 47.1154 26.8915 46.9294C26.8704 46.8723 26.8494 46.8153 26.8281 46.7585C20.1063 49.1988 13.0115 51.5231 10.3046 51.5231C4.6139 51.5231 0 46.9092 0 41.2185C0 35.5278 4.6139 30.9139 10.3046 30.9139C13.0064 30.9139 20.1063 33.2382 26.8274 35.6785C26.8482 35.6232 26.8687 35.5677 26.8893 35.512C26.9585 35.3247 27.0281 35.1361 27.1095 34.9539C20.6389 31.9302 13.9821 28.5541 12.0751 26.6471C8.04727 22.6219 8.04727 16.0958 12.0751 12.0706C14.0832 10.0631 16.7244 9.05648 19.3611 9.05648C21.9978 9.05648 24.6345 10.0631 26.6471 12.0706C28.5586 13.9827 31.9302 20.6395 34.9539 27.1102C35.1458 27.0239 35.3445 26.9516 35.5445 26.8789C35.5908 26.8621 35.6372 26.8452 35.6836 26.8281C33.2382 20.1063 30.9139 13.0064 30.9139 10.3046C30.9139 4.6139 35.5278 0 41.2185 0C46.9092 0 51.5231 4.6139 51.5231 10.3046C51.5231 13.0064 49.1988 20.1063 46.7521 26.8274C46.8193 26.8529 46.8859 26.8773 46.9519 26.9015C47.1329 26.9679 47.3099 27.0329 47.4869 27.114C50.5113 20.6389 53.8771 13.9821 55.7892 12.0699C57.8019 10.0625 60.4385 9.05583 63.0752 9.05583C65.7119 9.05583 68.3538 10.0625 70.3613 12.0699C74.3865 16.0952 74.3865 22.6212 70.3613 26.6465C68.4543 28.5586 61.7975 31.925 55.3268 34.9488C55.4231 35.1787 55.5094 35.4133 55.5958 35.6481L55.6089 35.6836C62.3307 33.2382 69.4255 30.9139 72.1324 30.9139C77.8231 30.9139 82.437 35.5278 82.437 41.2185Z" fill="var(--fill-0, #05AEEC)"/>
</svg>
