<svg preserveAspectRatio="none" width="100%" height="100%" overflow="visible" style="display: block;" viewBox="0 0 228.121 228.121" fill="none" xmlns="http://www.w3.org/2000/svg">
<g id="Group 2131329268">
<circle id="Ellipse 28726" cx="114.076" cy="114.063" r="45.5308" transform="rotate(30 114.076 114.063)" fill="var(--fill-0, #A5E329)"/>
<g id="Vector">
<path fill-rule="evenodd" clip-rule="evenodd" d="M144.974 118.571C144.958 118.664 144.942 118.757 144.926 118.851C144.942 118.757 144.958 118.664 144.974 118.571Z" fill="var(--fill-0, #A5E329)"/>
<path d="M186.372 155.81C180.608 165.793 167.84 169.214 157.857 163.45C153.108 160.709 143.021 149.436 133.698 138.355C133.64 138.403 133.583 138.45 133.525 138.498C133.177 138.784 132.825 139.074 132.464 139.35C140.752 151.21 149.016 163.866 150.43 169.143C153.415 180.282 146.805 191.731 135.666 194.715C130.11 196.203 124.457 195.294 119.831 192.623C115.205 189.953 111.599 185.516 110.102 179.956C108.692 174.671 109.52 159.577 110.775 145.154C110.382 145.117 110.006 145.052 109.621 144.985C109.481 144.961 109.339 144.936 109.195 144.912C106.677 159.182 103.563 173.992 100.827 178.731C95.0627 188.715 82.2951 192.136 72.3115 186.372C62.328 180.608 58.907 167.84 64.6709 157.857C67.4075 153.117 78.6764 143.016 89.7772 133.702C89.655 133.549 89.5308 133.401 89.4069 133.252C89.1905 132.993 88.9751 132.736 88.7737 132.462C76.9229 140.756 64.2577 149.015 58.9754 150.438C53.4112 151.921 47.766 151.016 43.1403 148.346C38.5146 145.675 34.8995 141.233 33.411 135.678C30.4219 124.537 37.0319 113.088 48.1752 110.106C53.4516 108.693 68.5501 109.512 82.9645 110.761C83.0051 110.361 83.0735 109.964 83.1417 109.568C83.1626 109.447 83.1835 109.325 83.2035 109.204C68.9394 106.677 54.1385 103.568 49.3897 100.827C39.4062 95.0627 35.9851 82.295 41.7491 72.3115C47.5131 62.328 60.2807 58.9069 70.2643 64.6709C75.004 67.4074 85.1054 78.6764 94.4251 89.7651C94.5175 89.6892 94.6097 89.6126 94.7021 89.5358C95.0133 89.2772 95.3265 89.0169 95.6538 88.7798C87.3647 76.9211 79.1059 64.2558 77.6919 58.9788C74.7028 47.8374 81.3129 36.3885 92.4561 33.4065C98.0123 31.9186 103.666 32.8279 108.291 35.4985C112.917 38.1691 116.523 42.6057 118.02 48.1661C119.437 53.4568 118.61 68.55 117.36 82.9645C117.784 83.0075 118.206 83.082 118.631 83.1569C118.729 83.1743 118.827 83.1916 118.926 83.2087C121.444 68.9394 124.558 54.1295 127.295 49.3897C133.059 39.4062 145.826 35.9851 155.81 41.749C165.793 47.513 169.214 60.2807 163.45 70.2642C160.714 75.004 149.445 85.1054 138.345 94.4185C138.437 94.5313 138.529 94.6415 138.62 94.7508C138.871 95.0507 139.115 95.3439 139.344 95.6656C151.208 87.3692 163.855 79.1 169.147 77.6822C174.711 76.1989 180.356 77.1036 184.982 79.7742C189.607 82.4448 193.222 86.8867 194.711 92.4418C197.695 103.581 191.085 115.029 179.947 118.014C174.664 119.437 159.576 118.6 145.162 117.351C145.098 117.852 145.012 118.351 144.926 118.851L144.912 118.926C159.182 121.444 173.983 124.553 178.732 127.294C188.715 133.058 192.136 145.826 186.372 155.81Z" fill="var(--fill-0, #A5E329)"/>
</g>
</g>
</svg>
