<svg preserveAspectRatio="none" width="100%" height="100%" overflow="visible" style="display: block;" viewBox="0 0 42.3185 42.3179" fill="none" xmlns="http://www.w3.org/2000/svg">
<path id="Star 62" d="M17.4178 4.17009C18.703 0.696913 23.6159 0.696907 24.9012 4.17009L28.3416 13.4689C28.4286 13.7041 28.6142 13.8897 28.8494 13.9767L38.1482 17.4172C41.6215 18.7023 41.6215 23.6154 38.1482 24.9006L28.8494 28.341C28.6142 28.428 28.4287 28.6136 28.3416 28.8488L24.9012 38.1476C23.6159 41.6208 18.703 41.6208 17.4178 38.1476L13.9764 28.8488C13.8893 28.6137 13.7037 28.428 13.4686 28.341L4.16973 24.9006C0.696615 23.6153 0.696564 18.7024 4.16973 17.4172L13.4686 13.9767C13.7037 13.8897 13.8893 13.7041 13.9764 13.4689L17.4178 4.17009Z" fill="var(--fill-0, #21A038)" stroke="var(--stroke-0, white)" stroke-width="3.12996"/>
</svg>
