<svg preserveAspectRatio="none" width="100%" height="100%" overflow="visible" style="display: block;" viewBox="0 0 162.785 162.785" fill="none" xmlns="http://www.w3.org/2000/svg">
<g id="Vector" opacity="0.7">
<path fill-rule="evenodd" clip-rule="evenodd" d="M109.687 70.1333C109.719 70.2199 109.751 70.3064 109.783 70.393C109.751 70.306 109.72 70.2203 109.687 70.1333Z" fill="var(--fill-0, #21A038)"/>
<path d="M162.785 81.3927C162.785 92.63 153.675 101.741 142.437 101.741C137.092 101.741 123.082 97.1409 109.811 92.3311C109.786 92.3991 109.76 92.4673 109.735 92.5356C109.581 92.9467 109.425 93.3631 109.254 93.772C122.032 99.7442 135.177 106.401 138.942 110.166C146.891 118.115 146.891 131.002 138.942 138.95C134.977 142.914 129.762 144.902 124.555 144.902C119.348 144.902 114.142 142.914 110.168 138.95C106.402 135.175 99.7442 122.031 93.7733 109.243C93.4239 109.403 93.0746 109.531 92.7172 109.662C92.5869 109.71 92.455 109.759 92.3222 109.809C97.1511 123.082 101.741 137.102 101.741 142.437C101.741 153.675 92.63 162.785 81.3927 162.785C70.1554 162.785 61.0445 153.675 61.0445 142.437C61.0445 137.102 65.6343 123.082 70.4657 109.809C70.2884 109.74 70.1111 109.675 69.9343 109.61C69.6253 109.497 69.3179 109.385 69.0147 109.252C63.0526 122.029 56.3861 135.174 52.6204 138.95C48.6461 142.914 43.4395 144.902 38.233 144.902C33.0264 144.902 27.8096 142.914 23.8455 138.95C15.8919 131.002 15.8919 118.115 23.8455 110.166C27.6112 106.402 40.7561 99.734 53.5335 93.7631C53.373 93.406 53.237 93.037 53.1017 92.6698C53.0601 92.557 53.0186 92.4444 52.9765 92.3324C39.7031 97.1511 25.6934 101.741 20.3482 101.741C9.1109 101.741 0 92.63 0 81.3927C0 70.1554 9.1109 61.0445 20.3482 61.0445C25.6832 61.0445 39.7031 65.6343 52.9752 70.453C53.0162 70.3439 53.0567 70.2342 53.0973 70.1244C53.2339 69.7544 53.3715 69.382 53.5322 69.0223C40.7549 63.0514 27.6099 56.3848 23.8442 52.6191C15.8907 44.6706 15.8907 31.7839 23.8442 23.8353C27.8096 19.8713 33.0251 17.8835 38.2317 17.8835C43.4383 17.8835 48.6449 19.8713 52.6191 23.8353C56.3937 27.6112 63.0514 40.7561 69.0223 53.5335C69.4012 53.3632 69.7935 53.2204 70.1884 53.0768C70.2799 53.0435 70.3715 53.0102 70.4632 52.9765C65.6343 39.7031 61.0445 25.6832 61.0445 20.3482C61.0445 9.1109 70.1554 0 81.3927 0C92.63 0 101.741 9.1109 101.741 20.3482C101.741 25.6832 97.1511 39.7031 92.3197 52.9752C92.4525 53.0255 92.5839 53.0737 92.7142 53.1215C93.0717 53.2526 93.4212 53.3808 93.7708 53.5411C99.743 40.7549 106.389 27.6099 110.165 23.8341C114.139 19.87 119.346 17.8822 124.552 17.8822C129.759 17.8822 134.976 19.87 138.94 23.8341C146.888 31.7826 146.888 44.6693 138.94 52.6178C135.174 56.3937 122.029 63.0412 109.252 69.0121C109.442 69.4662 109.612 69.9293 109.783 70.393L109.809 70.4632C123.082 65.6343 137.092 61.0445 142.437 61.0445C153.675 61.0445 162.785 70.1554 162.785 81.3927Z" fill="var(--fill-0, #21A038)"/>
</g>
</svg>
