<svg preserveAspectRatio="none" width="100%" height="100%" overflow="visible" style="display: block;" viewBox="0 0 174.552 137.447" fill="none" xmlns="http://www.w3.org/2000/svg">
<path id="Vector 234257125 (Stroke)" d="M79.588 1.57332C83.2815 1.44776 86.7497 2.76349 89.5333 5.40535L90.0177 5.88484C92.3865 8.33594 94.0003 11.5706 95.087 15.171C98.4359 26.2677 93.7259 37.8227 86.4688 46.8262C80.0765 54.7569 71.0047 61.6751 60.879 66.0831C61.2246 68.7018 61.7564 71.3124 62.4952 73.8917C64.6498 81.4133 69.1757 85.3734 75.1661 87.3126C80.6014 89.072 87.4796 89.203 95.0724 87.9512C102.397 59.4037 116.989 46.171 131.548 44.6329C138.616 43.8862 145.329 46.067 149.852 50.4512C154.498 54.9557 156.666 61.7639 153.984 68.7091C152.57 72.3722 149.634 75.7251 146.478 78.5636C143.185 81.5247 139.049 84.4582 134.444 87.1768C126.424 91.9118 116.576 96.2316 106.471 98.9698C105.688 107.4 108.1 112.235 111.348 115.295C115.522 119.229 122.381 121.489 130.917 122.31C147.934 123.946 166.666 119.527 169.437 119.048C170.288 118.901 171.098 119.472 171.245 120.323L172.964 130.266C173.035 130.675 172.94 131.095 172.701 131.435C172.462 131.774 172.098 132.004 171.689 132.074C170.028 132.361 149.579 137.169 130.556 135.551L129.651 135.469C120.042 134.545 109.633 131.844 102.281 124.916C96.2606 119.243 93.0099 111.441 93.1134 101.566C85.556 102.41 77.9438 102.106 71.0938 99.8887C61.149 96.6693 53.2195 89.5143 49.7872 77.5323C49.0798 75.0625 48.53 72.5829 48.1182 70.1095C32.0901 73.2655 14.5721 69.584 1.89364 53.2403C1.63923 52.9123 1.52521 52.4959 1.57723 52.0841C1.62934 51.6724 1.84311 51.2983 2.17098 51.044L10.1436 44.8604L10.2745 44.7686C10.9472 44.3481 11.8422 44.4975 12.339 45.1378C21.6725 57.1695 34.4854 59.8158 47.1778 56.796C47.5613 38.7854 54.3765 21.9938 62.6309 11.9278C66.9438 6.66852 72.855 1.80236 79.588 1.57332ZM140.65 59.9434C139.244 58.5804 136.548 57.3979 132.937 57.7794C126.896 58.4176 116.822 63.9986 110.014 84.0167C116.408 81.7492 122.518 78.8669 127.723 75.794C131.779 73.3995 135.156 70.9667 137.638 68.7345C140.257 66.3785 141.358 64.7098 141.652 63.9473C141.955 63.1639 141.989 62.4742 141.839 61.8604C141.687 61.2391 141.318 60.5904 140.65 59.9434ZM80.0372 14.7843C79.6812 14.7964 78.8197 15.0116 77.5186 15.8741C76.2492 16.7156 74.6556 18.1123 72.8536 20.3096C67.3272 27.0488 62.2012 38.5169 60.7735 51.3809C66.8654 47.9366 72.2316 43.4226 76.1749 38.5304C82.1348 31.1361 83.9746 24.1043 82.4317 18.9913C81.6742 16.4813 80.8483 15.3888 80.4327 14.9942C80.2614 14.8316 80.177 14.7982 80.1661 14.794C80.1648 14.7935 80.1442 14.7806 80.0372 14.7843Z" fill="var(--fill-0, #05AEEC)" stroke="var(--stroke-0, white)" stroke-width="3.12996" stroke-linejoin="round"/>
</svg>
