<svg preserveAspectRatio="none" width="100%" height="100%" overflow="visible" style="display: block;" viewBox="0 0 138.144 109.892" fill="none" xmlns="http://www.w3.org/2000/svg">
<path id="Vector 234257125 (Stroke)" d="M63.1738 2.50685C66.3435 2.39912 69.3229 3.53541 71.6914 5.78321C73.918 7.89645 75.3502 10.7353 76.2725 13.791C79.0017 22.8344 75.1281 32.0799 69.4756 39.0928C64.6655 45.0605 57.9375 50.2757 50.4092 53.7246C50.6602 55.3346 51.0073 56.9366 51.461 58.5205C52.9752 63.8068 56.0845 66.5058 60.2539 67.8555C63.9334 69.0466 68.6412 69.2116 73.96 68.4238C79.6753 46.9971 90.9306 36.5384 102.646 35.3008C108.369 34.6963 113.878 36.4549 117.631 40.0928C121.501 43.844 123.34 49.5717 121.087 55.4063C119.899 58.4821 117.482 61.2018 115.025 63.4111C112.438 65.738 109.214 68.021 105.653 70.1231C99.6883 73.6448 92.4227 76.8661 84.9219 78.9912C84.5998 84.504 86.2719 87.545 88.2988 89.4551C91.1631 92.1538 96.0346 93.8305 102.428 94.4453C115.162 95.6698 129.192 92.359 131.41 91.9756L131.664 91.9443C132.928 91.8558 134.078 92.7382 134.299 94.0137L135.607 101.584C135.72 102.237 135.57 102.908 135.188 103.45C134.805 103.992 134.224 104.36 133.57 104.473C132.391 104.676 116.112 108.503 101.213 107.07C93.7894 106.356 85.5129 104.256 79.6006 98.6846C75.0211 94.3692 72.4611 88.5575 72.2256 81.3926C66.8133 81.8599 61.3485 81.5398 56.3477 79.9209C48.3842 77.3429 42.0086 71.5784 39.2686 62.0127C38.8403 60.5174 38.485 59.0186 38.1973 57.5215C25.9623 59.5496 12.6943 56.4235 3.02443 43.958C2.6181 43.4342 2.43656 42.77 2.51955 42.1123C2.60264 41.4545 2.94396 40.8566 3.46779 40.4502L9.53811 35.7412L9.74807 35.5947C10.8226 34.9231 12.2525 35.1618 13.0459 36.1846C19.5397 44.5556 28.3261 46.6531 37.2617 44.8076C37.789 31.2022 42.9756 18.5764 49.2949 10.8701C52.6404 6.79048 57.461 2.70119 63.1738 2.50685ZM108.803 49.1992C108.039 48.4595 106.384 47.6589 103.978 47.9131C100.309 48.3006 93.6049 51.6074 88.5918 64.3643C92.4136 62.8509 96.0366 61.0728 99.2051 59.2022C102.239 57.4109 104.735 55.6082 106.545 53.9805C108.487 52.2337 109.143 51.1299 109.256 50.8369C109.4 50.4628 109.392 50.2113 109.348 50.0313C109.3 49.8389 109.168 49.5531 108.803 49.1992ZM63.2188 15.3184C63.0137 15.4075 62.7287 15.554 62.3653 15.7949C61.5291 16.3492 60.4102 17.3167 59.1026 18.9111C55.4511 23.3639 51.9799 30.7389 50.5664 39.1865C54.1067 36.8736 57.2158 34.0924 59.6006 31.1338C64.0079 25.6658 65.1275 20.7594 64.1309 17.4561C63.7892 16.324 63.4469 15.6691 63.2188 15.3184Z" fill="var(--fill-0, #FF8FBC)" stroke="var(--stroke-0, white)" stroke-width="5" stroke-linejoin="round"/>
</svg>
