<svg preserveAspectRatio="none" width="100%" height="100%" overflow="visible" style="display: block;" viewBox="0 0 71.4041 71.4028" fill="none" xmlns="http://www.w3.org/2000/svg">
<path id="Star 61" d="M30.9562 5.28969C32.5865 0.884092 38.8182 0.884092 40.4484 5.28969L47.2062 23.5534C47.3167 23.8517 47.5524 24.0865 47.8508 24.1969L66.1144 30.9557C70.5202 32.5859 70.5201 38.8167 66.1144 40.4469L47.8508 47.2057C47.5524 47.3161 47.3167 47.551 47.2062 47.8493L40.4484 66.1139C38.8181 70.5192 32.5867 70.5191 30.9562 66.1139L24.1974 47.8493C24.087 47.5511 23.852 47.3161 23.5539 47.2057L5.28924 40.4469C0.883854 38.8166 0.883835 32.586 5.28924 30.9557L23.5539 24.1969C23.8521 24.0865 24.087 23.8516 24.1974 23.5534L30.9562 5.28969Z" fill="var(--fill-0, #05AEEC)" stroke="var(--stroke-0, white)" stroke-width="3.97024"/>
</svg>
