<svg preserveAspectRatio="none" width="100%" height="100%" overflow="visible" style="display: block;" viewBox="0 0 56.2918 56.2908" fill="none" xmlns="http://www.w3.org/2000/svg">
<path id="Star 60" d="M24.4041 4.17009C25.6893 0.696912 30.6023 0.696904 31.8875 4.17009L37.2156 18.5685C37.3027 18.8037 37.4883 18.9893 37.7234 19.0763L52.1219 24.4035C55.5951 25.6887 55.5952 30.6017 52.1219 31.8869L37.7234 37.215C37.4882 37.3021 37.3027 37.4876 37.2156 37.7228L31.8875 52.1213C30.6022 55.5942 25.6894 55.5942 24.4041 52.1213L19.076 37.7228C18.9889 37.4876 18.8034 37.3021 18.5682 37.215L4.16973 31.8869C0.696655 30.6016 0.696526 25.6887 4.16973 24.4035L18.5682 19.0763C18.8033 18.9893 18.9889 18.8036 19.076 18.5685L24.4041 4.17009Z" fill="var(--fill-0, #FF8FBC)" stroke="var(--stroke-0, white)" stroke-width="3.12996"/>
</svg>
