<svg preserveAspectRatio="none" width="100%" height="100%" overflow="visible" style="display: block;" viewBox="0 0 70.3571 70.3557" fill="none" xmlns="http://www.w3.org/2000/svg">
<path id="Star 57" d="M31.4373 4.17009C32.7225 0.696916 37.6345 0.6969 38.9197 4.17009L46.1473 23.7013C46.2343 23.9365 46.4199 24.1221 46.6551 24.2091L66.1873 31.4367C69.6603 32.722 69.6604 37.6339 66.1873 38.9191L46.6551 46.1466C46.4199 46.2337 46.2343 46.4193 46.1473 46.6545L38.9197 66.1857C37.6345 69.6589 32.7225 69.6589 31.4373 66.1857L24.2098 46.6545C24.1227 46.4193 23.9371 46.2337 23.702 46.1466L4.16973 38.9191C0.696787 37.6338 0.696814 32.722 4.16973 31.4367L23.702 24.2091C23.9371 24.1221 24.1227 23.9365 24.2098 23.7013L31.4373 4.17009Z" fill="var(--fill-0, #FF85BB)" stroke="var(--stroke-0, white)" stroke-width="3.12996"/>
</svg>
