<svg preserveAspectRatio="none" width="100%" height="100%" overflow="visible" style="display: block;" viewBox="0 0 222.369 222.369" fill="none" xmlns="http://www.w3.org/2000/svg">
<g id="Group 2131329259">
<circle id="Ellipse 28726" cx="111.199" cy="111.187" r="44.3827" transform="rotate(30 111.199 111.187)" fill="var(--fill-0, #21A038)"/>
<g id="Vector">
<path fill-rule="evenodd" clip-rule="evenodd" d="M141.318 115.581C141.303 115.672 141.287 115.763 141.271 115.854C141.287 115.762 141.302 115.672 141.318 115.581Z" fill="var(--fill-0, #21A038)"/>
<path d="M181.673 151.881C176.054 161.613 163.608 164.947 153.876 159.329C149.247 156.656 139.415 145.668 130.327 134.867C130.271 134.913 130.214 134.959 130.158 135.006C129.819 135.285 129.476 135.567 129.124 135.836C137.203 147.397 145.259 159.734 146.637 164.878C149.547 175.736 143.103 186.896 132.245 189.806C126.829 191.256 121.319 190.37 116.81 187.766C112.3 185.163 108.785 180.838 107.326 175.418C105.952 170.266 106.758 155.554 107.981 141.494C107.598 141.458 107.232 141.394 106.857 141.329C106.72 141.305 106.582 141.281 106.442 141.258C103.987 155.168 100.952 169.604 98.2842 174.225C92.6656 183.956 80.2199 187.291 70.4881 181.673C60.7563 176.054 57.4215 163.608 63.0402 153.877C65.7077 149.256 76.6925 139.41 87.5133 130.33C87.3942 130.182 87.2731 130.037 87.1524 129.892C86.9414 129.64 86.7315 129.389 86.5352 129.122C74.9832 137.207 62.6373 145.257 57.4882 146.645C52.0644 148.09 46.5614 147.209 42.0524 144.605C37.5434 142.002 34.0194 137.672 32.5684 132.257C29.6547 121.397 36.0981 110.236 46.9603 107.33C52.1037 105.952 66.8215 106.75 80.8725 107.968C80.912 107.579 80.9787 107.191 81.0451 106.805C81.0655 106.687 81.0859 106.569 81.1054 106.45C67.201 103.987 52.7733 100.957 48.1443 98.2843C38.4125 92.6657 35.0777 80.2199 40.6963 70.4882C46.315 60.7564 58.7607 57.4216 68.4924 63.0402C73.1127 65.7077 82.9594 76.6926 92.044 87.5017C92.1341 87.4277 92.224 87.353 92.3141 87.2781C92.6174 87.0261 92.9227 86.7724 93.2418 86.5412C85.1617 74.9815 77.1112 62.6357 75.7328 57.4916C72.8191 46.6312 79.2624 35.471 90.1247 32.5642C95.5408 31.1138 101.051 32.0001 105.561 34.6034C110.07 37.2067 113.585 41.5315 115.044 46.9516C116.425 52.1089 115.619 66.8215 114.401 80.8725C114.814 80.9145 115.225 80.9871 115.639 81.0601C115.735 81.077 115.831 81.094 115.927 81.1106C118.382 67.2011 121.417 52.7646 124.085 48.1443C129.703 38.4126 142.149 35.0777 151.881 40.6964C161.613 46.315 164.947 58.7607 159.329 68.4925C156.661 73.1128 145.676 82.9595 134.856 92.0377C134.946 92.1477 135.036 92.2551 135.125 92.3616C135.369 92.654 135.607 92.9398 135.83 93.2534C147.395 85.1662 159.723 77.1055 164.881 75.7234C170.305 74.2776 175.808 75.1594 180.317 77.7627C184.826 80.366 188.35 84.6958 189.801 90.1109C192.71 100.969 186.267 112.129 175.409 115.038C170.26 116.425 155.553 115.61 141.502 114.392C141.439 114.88 141.355 115.367 141.271 115.854L141.258 115.927C155.168 118.382 169.596 121.412 174.225 124.085C183.956 129.703 187.291 142.149 181.673 151.881Z" fill="var(--fill-0, #21A038)"/>
</g>
<path id="Vector_2" d="M111.395 110.767L101.715 104.699V111.999L111.395 118.067L134.565 100.992C133.745 99.1842 132.719 97.4896 131.517 95.9364L111.395 110.767Z" fill="var(--fill-0, white)"/>
<path id="Vector_3" d="M136.842 111.496C136.842 109.941 136.702 108.418 136.435 106.941L130.961 110.975C130.966 111.148 130.968 111.321 130.968 111.496C130.968 122.278 122.195 131.05 111.414 131.05C100.632 131.05 91.8598 122.278 91.8598 111.496C91.8598 100.715 100.632 91.9424 111.414 91.9424C115.499 91.9424 119.297 93.2028 122.438 95.3551L127.383 91.7102C123.018 88.1831 117.463 86.0678 111.414 86.0678C97.3692 86.0678 85.9852 97.4518 85.9852 111.496C85.9852 125.541 97.3692 136.925 111.414 136.925C125.458 136.925 136.842 125.539 136.842 111.496Z" fill="var(--fill-0, white)"/>
</g>
</svg>
