<svg preserveAspectRatio="none" width="100%" height="100%" overflow="visible" style="display: block;" viewBox="0 0 297.172 297.172" fill="none" xmlns="http://www.w3.org/2000/svg">
<g id="Group 2131329269">
<circle id="Ellipse 28726" cx="148.606" cy="148.589" r="59.3127" transform="rotate(30 148.606 148.589)" fill="var(--fill-0, #21A038)"/>
<g id="Vector">
<path fill-rule="evenodd" clip-rule="evenodd" d="M188.856 154.461C188.836 154.583 188.815 154.704 188.794 154.826C188.815 154.704 188.835 154.583 188.856 154.461Z" fill="var(--fill-0, #A5E329)"/>
<path d="M242.786 202.972C235.277 215.978 218.645 220.434 205.639 212.926C199.453 209.354 186.313 194.669 174.167 180.235C174.092 180.296 174.017 180.358 173.942 180.42C173.489 180.793 173.03 181.171 172.56 181.53C183.357 196.98 194.123 213.467 195.965 220.342C199.853 234.852 191.242 249.766 176.732 253.654C169.493 255.593 162.129 254.408 156.103 250.929C150.077 247.45 145.38 241.671 143.429 234.427C141.593 227.542 142.671 207.881 144.305 189.091C143.794 189.043 143.304 188.958 142.803 188.871C142.62 188.839 142.435 188.807 142.248 188.777C138.967 207.365 134.911 226.658 131.346 232.832C123.838 245.838 107.205 250.294 94.1998 242.786C81.1943 235.277 76.7377 218.645 84.2464 205.639C87.8112 199.465 102.491 186.306 116.952 174.172C116.793 173.974 116.631 173.78 116.47 173.587C116.188 173.25 115.907 172.914 115.645 172.558C100.207 183.362 83.708 194.121 76.8268 195.974C69.5784 197.907 62.2244 196.728 56.1985 193.249C50.1727 189.77 45.4633 183.984 43.5243 176.747C39.6303 162.233 48.2412 147.319 62.7575 143.434C69.631 141.594 89.2997 142.66 108.077 144.287C108.13 143.767 108.219 143.249 108.308 142.734C108.335 142.575 108.363 142.417 108.389 142.259C89.8069 138.967 70.5259 134.918 64.3396 131.346C51.3342 123.838 46.8776 107.205 54.3863 94.1997C61.895 81.1943 78.5273 76.7377 91.5328 84.2464C97.7073 87.8112 110.866 102.491 123.007 116.937C123.127 116.838 123.247 116.738 123.368 116.638C123.773 116.301 124.181 115.962 124.608 115.653C113.809 100.205 103.051 83.7057 101.209 76.8313C97.3148 62.3175 105.926 47.4031 120.442 43.5184C127.68 41.5802 135.044 42.7647 141.07 46.2437C147.096 49.7227 151.794 55.5023 153.745 62.7457C155.59 69.6378 154.512 89.2997 152.885 108.077C153.437 108.133 153.986 108.23 154.539 108.328C154.667 108.351 154.796 108.373 154.924 108.395C158.205 89.8069 162.261 70.5141 165.826 64.3396C173.334 51.3342 189.967 46.8775 202.972 54.3862C215.978 61.8949 220.434 78.5273 212.926 91.5327C209.361 97.7072 194.681 110.866 180.221 122.998C180.341 123.145 180.461 123.289 180.58 123.431C180.906 123.822 181.225 124.204 181.522 124.623C196.978 113.815 213.453 103.043 220.346 101.196C227.594 99.2639 234.948 100.442 240.974 103.921C247 107.4 251.71 113.187 253.649 120.423C257.537 134.934 248.926 149.848 234.415 153.736C227.534 155.59 207.879 154.5 189.101 152.873C189.018 153.525 188.906 154.175 188.794 154.826L188.777 154.924C207.365 158.205 226.646 162.254 232.832 165.826C245.838 173.334 250.294 189.967 242.786 202.972Z" fill="var(--fill-0, #A5E329)"/>
</g>
</g>
</svg>
