<svg preserveAspectRatio="none" width="100%" height="100%" overflow="visible" style="display: block;" viewBox="0 0 418.742 418.742" fill="none" xmlns="http://www.w3.org/2000/svg">
<g id="Group 2131329268">
<circle id="Ellipse 28726" cx="209.399" cy="209.376" r="83.5769" transform="rotate(30 209.399 209.376)" fill="var(--fill-0, #A5E329)"/>
<g id="Vector">
<path fill-rule="evenodd" clip-rule="evenodd" d="M266.115 217.65C266.086 217.821 266.056 217.992 266.027 218.164C266.057 217.991 266.086 217.822 266.115 217.65Z" fill="var(--fill-0, #A5E329)"/>
<path d="M342.107 286.006C331.526 304.332 308.09 310.612 289.764 300.031C281.047 294.998 262.531 274.306 245.417 253.967C245.312 254.054 245.206 254.141 245.1 254.228C244.461 254.754 243.815 255.286 243.152 255.792C258.367 277.562 273.536 300.794 276.132 310.481C281.61 330.927 269.477 351.943 249.03 357.422C238.831 360.153 228.454 358.484 219.963 353.582C211.472 348.679 204.853 340.535 202.104 330.329C199.517 320.628 201.036 292.922 203.339 266.446C202.618 266.379 201.928 266.259 201.222 266.136C200.964 266.091 200.704 266.046 200.44 266.003C195.817 292.196 190.102 319.381 185.079 328.082C174.498 346.407 151.062 352.687 132.736 342.107C114.41 331.526 108.13 308.09 118.711 289.764C123.734 281.064 144.419 262.521 164.796 245.424C164.572 245.145 164.344 244.872 164.116 244.6C163.719 244.124 163.324 243.651 162.954 243.149C141.2 258.373 117.952 273.533 108.256 276.145C98.0421 278.868 87.6796 277.208 79.1887 272.305C70.6977 267.403 64.0618 259.25 61.3295 249.053C55.8426 228.601 67.9761 207.586 88.4308 202.112C98.1163 199.518 125.831 201.021 152.291 203.314C152.365 202.581 152.491 201.851 152.616 201.124C152.654 200.901 152.692 200.679 152.729 200.456C126.546 195.817 99.3772 190.111 90.6602 185.079C72.3344 174.498 66.0546 151.062 76.635 132.736C87.2154 114.41 110.652 108.13 128.978 118.711C137.678 123.734 156.22 144.419 173.328 164.774C173.497 164.635 173.667 164.494 173.836 164.353C174.407 163.878 174.982 163.401 175.583 162.965C160.368 141.197 145.208 117.949 142.612 108.262C137.125 87.811 149.259 66.7952 169.713 61.3214C179.912 58.5903 190.29 60.2593 198.78 65.1615C207.271 70.0638 213.891 78.2077 216.64 88.4143C219.24 98.1259 217.721 125.831 215.428 152.291C216.206 152.37 216.98 152.506 217.76 152.644C217.94 152.676 218.121 152.708 218.302 152.739C222.925 126.546 228.64 99.3607 233.663 90.6603C244.244 72.3345 267.68 66.0547 286.006 76.6351C304.332 87.2156 310.612 110.652 300.031 128.978C295.008 137.678 274.323 156.221 253.947 173.316C254.116 173.523 254.285 173.725 254.453 173.926C254.912 174.476 255.362 175.014 255.781 175.605C277.559 160.376 300.774 145.197 310.487 142.594C320.701 139.872 331.063 141.532 339.554 146.435C348.045 151.337 354.681 159.49 357.413 169.687C362.892 190.134 350.759 211.15 330.312 216.628C320.616 219.24 292.92 217.704 266.461 215.411C266.343 216.331 266.185 217.247 266.027 218.164L266.003 218.302C292.196 222.925 319.365 228.631 328.082 233.663C346.407 244.244 352.687 267.68 342.107 286.006Z" fill="var(--fill-0, #A5E329)"/>
</g>
</g>
</svg>
