<svg preserveAspectRatio="none" width="100%" height="100%" overflow="visible" style="display: block;" viewBox="0 0 98.3432 98.3432" fill="none" xmlns="http://www.w3.org/2000/svg">
<g id="Group 2131329261">
<path id="Star 5" d="M42.1666 5.20431C46.3255 2.11447 52.0177 2.11447 56.1766 5.20431L58.8667 7.20284C60.9265 8.73318 63.4308 9.54688 65.9968 9.51955L69.3478 9.48387C74.5286 9.4287 79.1336 12.7745 80.6821 17.7188L81.6837 20.9168C82.4506 23.3656 83.9984 25.4959 86.0904 26.982L88.8223 28.9228C93.0461 31.9234 94.8051 37.337 93.1517 42.2471L92.0822 45.4231C91.2633 47.855 91.2633 50.4882 92.0822 52.9201L93.1517 56.0961C94.8051 61.0063 93.0461 66.4199 88.8223 69.4204L86.0904 71.3612C83.9984 72.8474 82.4506 74.9776 81.6837 77.4265L80.6821 80.6245C79.1336 85.5688 74.5286 88.9145 69.3478 88.8594L65.9968 88.8237C63.4308 88.7964 60.9265 89.6101 58.8667 91.1404L56.1766 93.1389C52.0177 96.2288 46.3255 96.2288 42.1666 93.1389L39.4766 91.1404C37.4167 89.6101 34.9124 88.7964 32.3465 88.8237L28.9955 88.8594C23.8147 88.9145 19.2096 85.5688 17.6611 80.6245L16.6595 77.4265C15.8926 74.9776 14.3448 72.8474 12.2529 71.3612L9.52089 69.4204C5.29711 66.4199 3.53812 61.0063 5.19155 56.0961L6.26101 52.9201C7.07992 50.4882 7.07992 47.855 6.26101 45.4231L5.19155 42.2471C3.53813 37.337 5.29711 31.9234 9.52089 28.9228L12.2529 26.982C14.3448 25.4959 15.8926 23.3656 16.6595 20.9168L17.6611 17.7188C19.2096 12.7745 23.8147 9.4287 28.9955 9.48387L32.3465 9.51955C34.9124 9.54688 37.4167 8.73318 39.4766 7.20285L42.1666 5.20431Z" fill="var(--fill-0, #05AEEC)"/>
<path id="Vector 234256914" d="M27.4887 43.8764C25.4629 56.1002 37.4758 65.9162 49.4161 65.9162C61.3564 65.9162 71.3435 59.6191 71.3435 43.8764" stroke="var(--stroke-0, white)" stroke-width="9.24441" stroke-linecap="round"/>
</g>
</svg>
