<svg preserveAspectRatio="none" width="100%" height="100%" overflow="visible" style="display: block;" viewBox="0 0 261.568 261.568" fill="none" xmlns="http://www.w3.org/2000/svg">
<g id="Group 2131329264">
<circle id="Ellipse 28726" cx="130.801" cy="130.787" r="52.2065" transform="rotate(30 130.801 130.787)" fill="var(--fill-0, #FF8FBC)"/>
<g id="Vector">
<path fill-rule="evenodd" clip-rule="evenodd" d="M166.23 135.956C166.211 136.063 166.193 136.17 166.174 136.277C166.193 136.169 166.211 136.063 166.23 135.956Z" fill="var(--fill-0, #FF8FBC)"/>
<path d="M213.698 178.655C207.089 190.102 192.449 194.025 181.002 187.415C175.557 184.272 163.991 171.346 153.301 158.641C153.235 158.695 153.169 158.75 153.102 158.804C152.704 159.133 152.3 159.465 151.886 159.781C161.39 173.38 170.865 187.892 172.487 193.943C175.909 206.715 168.329 219.842 155.558 223.265C149.187 224.971 142.705 223.928 137.401 220.866C132.097 217.804 127.962 212.717 126.245 206.341C124.629 200.281 125.578 182.975 127.016 166.437C126.566 166.394 126.135 166.319 125.694 166.243C125.533 166.215 125.37 166.186 125.205 166.16C122.318 182.521 118.748 199.502 115.61 204.937C109.001 216.384 94.3611 220.307 82.9138 213.698C71.4665 207.089 67.5438 192.449 74.1529 181.002C77.2907 175.567 90.2119 163.985 102.94 153.305C102.8 153.13 102.658 152.96 102.516 152.79C102.268 152.493 102.021 152.198 101.79 151.884C88.2013 161.394 73.6791 170.863 67.6223 172.495C61.2423 174.196 54.7693 173.159 49.4654 170.096C44.1616 167.034 40.0164 161.941 38.3096 155.571C34.8822 142.797 42.4615 129.669 55.2385 126.25C61.2886 124.63 78.6008 125.568 95.1287 127.001C95.1752 126.543 95.2537 126.087 95.3318 125.633C95.3558 125.494 95.3798 125.355 95.4028 125.216C79.0473 122.318 62.0763 118.754 56.6312 115.61C45.1839 109.001 41.2612 94.3612 47.8703 82.9139C54.4794 71.4666 69.119 67.5439 80.5663 74.153C86.0011 77.2907 97.5836 90.212 108.27 102.927C108.376 102.84 108.481 102.752 108.587 102.664C108.944 102.367 109.303 102.069 109.679 101.797C100.174 88.1993 90.7044 73.6771 89.0831 67.6263C85.6557 54.8514 93.2349 41.7238 106.012 38.3046C112.383 36.5986 118.865 37.6411 124.169 40.7033C129.473 43.7655 133.608 48.8527 135.325 55.2282C136.949 61.2947 136 78.6009 134.568 95.1288C135.054 95.1781 135.537 95.2635 136.024 95.3494C136.137 95.3693 136.25 95.3893 136.363 95.4088C139.251 79.0473 142.821 62.066 145.958 56.6312C152.568 45.1839 167.207 41.2613 178.654 47.8704C190.102 54.4795 194.024 69.1191 187.415 80.5664C184.278 86.0011 171.356 97.5836 158.629 108.262C158.735 108.392 158.84 108.518 158.945 108.643C159.232 108.987 159.512 109.323 159.774 109.692C173.378 100.179 187.88 90.6977 193.947 89.072C200.327 87.3713 206.8 88.4086 212.104 91.4708C217.407 94.533 221.553 99.6261 223.259 105.996C226.682 118.768 219.102 131.895 206.33 135.317C200.274 136.949 182.973 135.99 166.446 134.557C166.372 135.132 166.273 135.704 166.174 136.277L166.16 136.363C182.521 139.251 199.492 142.815 204.937 145.958C216.384 152.568 220.307 167.207 213.698 178.655Z" fill="var(--fill-0, #FF8FBC)"/>
</g>
</g>
</svg>
