<svg preserveAspectRatio="none" width="100%" height="100%" overflow="visible" style="display: block;" viewBox="0 0 264.072 264.072" fill="none" xmlns="http://www.w3.org/2000/svg">
<g id="Vector">
<path fill-rule="evenodd" clip-rule="evenodd" d="M177.936 113.771C177.988 113.911 178.04 114.052 178.091 114.192C178.039 114.051 177.988 113.912 177.936 113.771Z" fill="var(--fill-0, #21A038)"/>
<path d="M264.072 132.036C264.072 150.265 249.292 165.045 231.063 165.045C222.392 165.045 199.665 157.583 178.137 149.781C178.096 149.891 178.054 150.001 178.013 150.112C177.763 150.779 177.51 151.455 177.234 152.118C197.961 161.806 219.285 172.604 225.394 178.713C238.288 191.607 238.288 212.512 225.394 225.406C218.961 231.837 210.501 235.061 202.054 235.061C193.608 235.061 185.162 231.837 178.715 225.406C172.606 219.283 161.806 197.959 152.12 177.215C151.553 177.475 150.987 177.683 150.407 177.896C150.195 177.973 149.982 178.052 149.766 178.133C157.6 199.665 165.045 222.409 165.045 231.063C165.045 249.292 150.265 264.072 132.036 264.072C113.807 264.072 99.0271 249.292 99.0271 231.063C99.0271 222.409 106.473 199.665 114.31 178.133C114.023 178.021 113.735 177.916 113.448 177.811C112.947 177.627 112.448 177.445 111.956 177.23C102.285 197.957 91.4701 219.281 85.3614 225.406C78.9143 231.837 70.4681 235.061 62.0219 235.061C53.5757 235.061 45.113 231.837 38.6825 225.406C25.7801 212.512 25.7801 191.607 38.6825 178.713C44.7912 172.606 66.115 161.79 86.8427 152.104C86.5822 151.524 86.3616 150.926 86.1421 150.33C86.0747 150.147 86.0074 149.964 85.939 149.783C64.4068 157.6 41.6801 165.045 33.009 165.045C14.7798 165.045 0 150.265 0 132.036C0 113.807 14.7798 99.0271 33.009 99.0271C41.6636 99.0271 64.4068 106.473 85.937 114.29C86.0035 114.113 86.0692 113.935 86.135 113.756C86.3567 113.156 86.5798 112.552 86.8406 111.969C66.113 102.283 44.7891 91.468 38.6804 85.3593C25.778 72.4651 25.778 51.5601 38.6804 38.666C45.113 32.2354 53.5737 29.0108 62.0198 29.0108C70.466 29.0108 78.9122 32.2354 85.3593 38.666C91.4825 44.7912 102.283 66.115 111.969 86.8427C112.583 86.5663 113.22 86.3348 113.86 86.1018C114.009 86.0478 114.157 85.9937 114.306 85.939C106.473 64.4068 99.0271 41.6636 99.0271 33.009C99.0271 14.7798 113.807 0 132.036 0C150.265 0 165.045 14.7798 165.045 33.009C165.045 41.6636 157.6 64.4068 149.762 85.937C149.977 86.0185 150.191 86.0967 150.402 86.1742C150.982 86.387 151.549 86.595 152.116 86.855C161.804 66.113 172.586 44.7891 178.711 38.6639C185.158 32.2333 193.604 29.0088 202.05 29.0088C210.497 29.0088 218.959 32.2333 225.39 38.6639C238.284 51.5581 238.284 72.4631 225.39 85.3572C219.281 91.4825 197.957 102.266 177.23 111.952C177.538 112.689 177.815 113.44 178.091 114.192L178.133 114.306C199.665 106.473 222.392 99.0271 231.063 99.0271C249.292 99.0271 264.072 113.807 264.072 132.036Z" fill="var(--fill-0, #21A038)"/>
</g>
</svg>
