<svg preserveAspectRatio="none" width="100%" height="100%" overflow="visible" style="display: block;" viewBox="0 0 726.743 882.209" fill="none" xmlns="http://www.w3.org/2000/svg">
<g id="BG Decor" opacity="0.5">
<path id="Union" opacity="0.15" d="M312.76 470.472C303.087 487.226 281.662 492.967 264.908 483.294C259.923 480.416 251.403 471.912 241.89 461.379C240.872 460.252 239.145 460.127 237.939 461.051C236.733 461.977 236.413 463.672 237.239 464.948C244.952 476.859 250.967 487.284 252.46 492.853C254.949 502.191 253.43 511.664 248.948 519.427C244.466 527.189 237.013 533.256 227.691 535.754C208.998 540.763 189.785 529.67 184.776 510.978C183.279 505.419 183.274 493.388 183.995 479.223C184.072 477.704 182.946 476.395 181.438 476.197C179.932 476 178.499 476.971 178.181 478.457C175.209 492.328 172.085 503.945 169.202 508.939C159.529 525.692 138.103 531.433 121.349 521.761C104.596 512.088 98.8549 490.662 108.527 473.908C111.411 468.915 119.916 460.404 130.44 450.895C131.568 449.875 131.693 448.148 130.768 446.941C129.842 445.733 128.145 445.412 126.867 446.238C114.954 453.945 104.528 459.957 98.9735 461.445C80.2812 466.453 61.0678 455.361 56.0593 436.669C53.5625 427.345 55.0892 417.857 59.571 410.095C64.0526 402.333 71.4974 396.281 80.8282 393.768C86.3915 392.284 98.4318 392.278 112.608 392.999C114.128 393.076 115.437 391.95 115.636 390.441C115.834 388.933 114.862 387.499 113.375 387.181C99.495 384.207 87.869 381.081 82.8832 378.202C66.1295 368.529 60.3884 347.104 70.0612 330.35C79.7339 313.596 101.16 307.855 117.913 317.528C122.901 320.407 131.426 328.917 140.945 339.457C141.962 340.583 143.686 340.708 144.891 339.784C146.096 338.86 146.416 337.166 145.591 335.891C137.879 323.972 131.862 313.532 130.364 307.97C127.874 298.633 129.394 289.159 133.875 281.396C138.357 273.634 145.81 267.567 155.132 265.069C173.829 260.053 193.042 271.146 198.047 289.845C199.535 295.403 199.547 307.452 198.832 321.636C198.756 323.15 199.878 324.454 201.381 324.652C202.884 324.849 204.313 323.881 204.63 322.399C207.608 308.515 210.734 296.882 213.62 291.884C223.292 275.13 244.718 269.389 261.472 279.062C278.226 288.734 283.966 310.16 274.294 326.914C271.414 331.903 262.901 340.431 252.363 349.954C251.239 350.97 251.115 352.692 252.037 353.894C252.959 355.097 254.649 355.417 255.922 354.594C267.848 346.883 278.288 340.869 283.846 339.38C302.543 334.363 321.755 345.456 326.76 364.156C329.256 373.48 327.731 382.966 323.249 390.729C318.768 398.492 311.322 404.543 301.991 407.056C296.421 408.547 284.376 408.556 270.199 407.837C268.684 407.761 267.378 408.884 267.181 410.388C266.983 411.891 267.952 413.32 269.435 413.638C283.32 416.613 294.951 419.741 299.938 422.62C316.692 432.293 322.433 453.719 312.76 470.472Z" fill="var(--fill-0, #00ADEE)"/>
<path id="Union_2" opacity="0.15" d="M666.31 777.536C657.967 791.987 639.486 796.939 625.034 788.596C620.734 786.113 613.386 778.778 605.18 769.692C604.301 768.72 602.812 768.612 601.772 769.41C600.731 770.208 600.455 771.67 601.168 772.771C607.821 783.045 613.009 792.037 614.297 796.841C616.444 804.895 615.133 813.067 611.268 819.763C607.402 826.458 600.973 831.692 592.932 833.846C576.808 838.167 560.235 828.598 555.915 812.475C554.623 807.68 554.619 797.302 555.241 785.084C555.307 783.774 554.336 782.645 553.036 782.474C551.736 782.303 550.5 783.141 550.226 784.423C547.663 796.388 544.968 806.408 542.481 810.716C534.137 825.167 515.656 830.119 501.205 821.776C486.753 813.432 481.801 794.951 490.145 780.5C492.632 776.192 499.968 768.851 509.046 760.649C510.019 759.769 510.127 758.279 509.329 757.238C508.53 756.196 507.066 755.919 505.964 756.632C495.688 763.28 486.695 768.466 481.904 769.749C465.78 774.069 449.207 764.501 444.887 748.378C442.733 740.335 444.05 732.152 447.916 725.456C451.782 718.76 458.204 713.54 466.252 711.372C471.051 710.093 481.436 710.087 493.665 710.709C494.975 710.776 496.105 709.805 496.276 708.503C496.447 707.203 495.609 705.966 494.326 705.691C482.354 703.126 472.325 700.429 468.025 697.946C453.573 689.603 448.621 671.121 456.965 656.67C465.308 642.219 483.789 637.267 498.241 645.61C502.543 648.094 509.896 655.434 518.107 664.525C518.984 665.497 520.472 665.604 521.511 664.808C522.55 664.011 522.826 662.55 522.114 661.45C515.462 651.168 510.272 642.163 508.98 637.366C506.833 629.311 508.143 621.14 512.009 614.444C515.875 607.748 522.304 602.515 530.345 600.36C546.472 596.034 563.045 605.602 567.362 621.732C568.645 626.525 568.656 636.919 568.039 649.153C567.974 650.459 568.941 651.585 570.238 651.755C571.534 651.925 572.767 651.09 573.041 649.812C575.609 637.836 578.305 627.801 580.794 623.49C589.138 609.039 607.619 604.087 622.07 612.43C636.522 620.774 641.474 639.255 633.13 653.706C630.646 658.009 623.303 665.365 614.213 673.58C613.244 674.457 613.137 675.942 613.932 676.979C614.727 678.016 616.186 678.292 617.283 677.582C627.57 670.931 636.576 665.743 641.37 664.459C657.497 660.132 674.069 669.7 678.386 685.83C680.54 693.873 679.224 702.056 675.358 708.751C671.492 715.447 665.07 720.667 657.021 722.834C652.217 724.121 641.827 724.128 629.598 723.509C628.291 723.442 627.165 724.411 626.995 725.709C626.824 727.005 627.66 728.238 628.939 728.512C640.916 731.078 650.949 733.776 655.25 736.26C669.702 744.603 674.654 763.084 666.31 777.536Z" fill="var(--fill-0, #00ADEE)"/>
<path id="Union_3" opacity="0.15" d="M628.948 249.092C619.734 265.052 599.322 270.522 583.362 261.307C578.613 258.565 570.497 250.464 561.434 240.43C560.464 239.355 558.819 239.236 557.67 240.117C556.521 240.998 556.216 242.614 557.003 243.829C564.351 255.177 570.081 265.108 571.503 270.413C573.874 279.309 572.427 288.334 568.157 295.729C563.888 303.124 556.787 308.903 547.907 311.283C530.099 316.055 511.796 305.487 507.024 287.68C505.598 282.384 505.593 270.923 506.28 257.428C506.353 255.981 505.281 254.735 503.844 254.546C502.409 254.358 501.044 255.283 500.741 256.699C497.91 269.913 494.934 280.98 492.187 285.737C482.972 301.697 462.561 307.167 446.6 297.952C430.64 288.737 425.171 268.326 434.386 252.365C437.132 247.608 445.235 239.5 455.261 230.441C456.336 229.47 456.454 227.824 455.573 226.674C454.691 225.524 453.074 225.218 451.857 226.006C440.508 233.348 430.575 239.074 425.284 240.492C407.477 245.263 389.173 234.696 384.402 216.889C382.023 208.006 383.477 198.968 387.747 191.573C392.016 184.178 399.109 178.413 407.998 176.019C413.298 174.606 424.768 174.6 438.273 175.287C439.721 175.36 440.968 174.288 441.157 172.85C441.347 171.414 440.421 170.048 439.004 169.744C425.781 166.911 414.705 163.933 409.955 161.191C393.995 151.976 388.526 131.564 397.741 115.604C406.955 99.6435 427.367 94.1744 443.327 103.389C448.079 106.132 456.2 114.239 465.268 124.279C466.237 125.352 467.88 125.471 469.027 124.592C470.175 123.711 470.48 122.098 469.694 120.883C462.347 109.528 456.615 99.5825 455.188 94.2836C452.816 85.3883 454.264 76.363 458.533 68.968C462.803 61.5732 469.903 55.7935 478.784 53.4138C496.596 48.6351 514.899 59.2027 519.666 77.0173C521.084 82.3114 521.096 93.7904 520.415 107.302C520.342 108.745 521.411 109.988 522.843 110.176C524.275 110.364 525.636 109.441 525.938 108.03C528.775 94.8026 531.753 83.7202 534.502 78.9589C543.717 62.9985 564.128 57.5292 580.088 66.744C596.049 75.9588 601.518 96.3701 592.303 112.331C589.56 117.083 581.45 125.207 571.411 134.28C570.34 135.248 570.222 136.888 571.1 138.034C571.979 139.18 573.589 139.484 574.802 138.7C586.162 131.354 596.109 125.625 601.404 124.206C619.215 119.427 637.518 129.994 642.285 147.809C644.664 156.692 643.211 165.729 638.941 173.124C634.671 180.519 627.579 186.284 618.689 188.678C613.383 190.099 601.908 190.107 588.402 189.423C586.959 189.35 585.715 190.419 585.527 191.852C585.339 193.285 586.262 194.646 587.675 194.949C600.902 197.782 611.982 200.762 616.734 203.505C632.694 212.72 638.163 233.131 628.948 249.092Z" fill="var(--fill-0, #00ADEE)"/>
</g>
</svg>
