<svg preserveAspectRatio="none" width="100%" height="100%" overflow="visible" style="display: block;" viewBox="0 0 74.456 74.456" fill="none" xmlns="http://www.w3.org/2000/svg">
<path id="Star 19" d="M32.5387 3.26482C34.1495 -1.08827 40.3065 -1.08827 41.9172 3.26482L49.026 22.4759C49.5324 23.8445 50.6115 24.9236 51.9801 25.43L71.1911 32.5387C75.5442 34.1495 75.5442 40.3065 71.1911 41.9172L51.9801 49.026C50.6115 49.5324 49.5324 50.6115 49.026 51.9801L41.9172 71.1911C40.3065 75.5442 34.1495 75.5442 32.5387 71.1911L25.43 51.9801C24.9236 50.6115 23.8445 49.5324 22.4759 49.026L3.26482 41.9172C-1.08827 40.3065 -1.08827 34.1495 3.26482 32.5387L22.4759 25.43C23.8445 24.9236 24.9236 23.8445 25.43 22.4759L32.5387 3.26482Z" fill="var(--fill-0, #FF64A2)"/>
</svg>
