<svg preserveAspectRatio="none" width="100%" height="100%" overflow="visible" style="display: block;" viewBox="0 0 64.2375 64.2375" fill="none" xmlns="http://www.w3.org/2000/svg">
<path id="Star 20" d="M28.0731 2.81675C29.4628 -0.938914 34.7747 -0.938918 36.1645 2.81675L42.2976 19.3913C42.7345 20.572 43.6655 21.503 44.8462 21.9399L61.4208 28.0731C65.1764 29.4628 65.1764 34.7747 61.4208 36.1645L44.8462 42.2976C43.6655 42.7345 42.7345 43.6655 42.2976 44.8462L36.1645 61.4208C34.7747 65.1764 29.4628 65.1764 28.0731 61.4208L21.9399 44.8462C21.503 43.6655 20.572 42.7345 19.3913 42.2976L2.81675 36.1645C-0.938914 34.7747 -0.938921 29.4628 2.81675 28.0731L19.3913 21.9399C20.572 21.503 21.503 20.572 21.9399 19.3913L28.0731 2.81675Z" fill="var(--fill-0, #FF64A2)"/>
</svg>
