<svg preserveAspectRatio="none" width="100%" height="100%" overflow="visible" style="display: block;" viewBox="0 0 56.4833 56.4833" fill="none" xmlns="http://www.w3.org/2000/svg">
<path id="Star 23" d="M24.4249 2.65738C25.736 -0.885789 30.7474 -0.885793 32.0585 2.65737L37.2882 16.7906C37.7004 17.9046 38.5787 18.7829 39.6927 19.1951L53.826 24.4249C57.3691 25.736 57.3691 30.7474 53.826 32.0585L39.6927 37.2882C38.5787 37.7004 37.7004 38.5787 37.2882 39.6927L32.0585 53.826C30.7474 57.3691 25.736 57.3691 24.4249 53.826L19.1951 39.6927C18.7829 38.5787 17.9046 37.7004 16.7907 37.2882L2.65738 32.0585C-0.885789 30.7474 -0.885793 25.736 2.65737 24.4249L16.7906 19.1951C17.9046 18.7829 18.7829 17.9046 19.1951 16.7907L24.4249 2.65738Z" fill="var(--fill-0, #F16DA0)"/>
</svg>
