<svg preserveAspectRatio="none" width="100%" height="100%" overflow="visible" style="display: block;" viewBox="0 0 67.6076 64.0241" fill="none" xmlns="http://www.w3.org/2000/svg">
<path id="Star 22" d="M28.6046 6.24535C30.2721 1.25207 37.3355 1.25206 39.003 6.24535L43.8019 20.6164C43.8674 20.8126 44.0511 20.9444 44.2579 20.9446H59.6114C64.9573 20.9446 67.1406 27.8156 62.7755 30.9016L50.4962 39.5823C50.323 39.7047 50.2503 39.926 50.3175 40.1272L55.0411 54.2707C56.7186 59.2942 51.0026 63.5398 46.6778 60.4827L34.0812 51.5784C33.9148 51.4609 33.6928 51.4609 33.5265 51.5784L20.9298 60.4827C16.6051 63.5398 10.889 59.2942 12.5665 54.2707L17.2901 40.1272C17.3573 39.926 17.2846 39.7047 17.1114 39.5823L4.83213 30.9016C0.467036 27.8156 2.65034 20.9446 7.99619 20.9446H23.3497C23.5565 20.9444 23.7402 20.8126 23.8058 20.6164L28.6046 6.24535Z" fill="url(#paint0_linear_5_42)" stroke="var(--stroke-0, white)" stroke-width="5"/>
<defs>
<linearGradient id="paint0_linear_5_42" x1="33.8038" y1="-1.43043" x2="33.8038" y2="70.5696" gradientUnits="userSpaceOnUse">
<stop stop-color="#57FF43"/>
<stop offset="1" stop-color="#00ADEE"/>
</linearGradient>
</defs>
</svg>
