<svg preserveAspectRatio="none" width="100%" height="100%" overflow="visible" style="display: block;" viewBox="0 0 45.5749 45.5749" fill="none" xmlns="http://www.w3.org/2000/svg">
<path id="Star 23" d="M18.9707 2.65737C20.2818 -0.885791 25.2932 -0.885791 26.6043 2.65737L30.3609 12.8096C30.7731 13.9235 31.6514 14.8018 32.7654 15.214L42.9176 18.9707C46.4607 20.2818 46.4607 25.2932 42.9176 26.6043L32.7654 30.3609C31.6514 30.7731 30.7731 31.6514 30.3609 32.7654L26.6043 42.9176C25.2932 46.4607 20.2818 46.4607 18.9707 42.9176L15.214 32.7654C14.8018 31.6514 13.9235 30.7731 12.8096 30.3609L2.65737 26.6043C-0.885791 25.2932 -0.88579 20.2818 2.65737 18.9707L12.8096 15.214C13.9235 14.8018 14.8018 13.9235 15.214 12.8096L18.9707 2.65737Z" fill="var(--fill-0, #F16DA0)"/>
</svg>
