<svg preserveAspectRatio="none" width="100%" height="100%" overflow="visible" style="display: block;" viewBox="0 0 36.0057 36.0057" fill="none" xmlns="http://www.w3.org/2000/svg">
<path id="Star 24" d="M15.5698 1.69396C16.4056 -0.564654 19.6001 -0.564654 20.4359 1.69396L23.7697 10.7033C24.0324 11.4134 24.5923 11.9733 25.3024 12.2361L34.3118 15.5698C36.5704 16.4056 36.5704 19.6001 34.3118 20.4359L25.3024 23.7697C24.5923 24.0324 24.0324 24.5923 23.7697 25.3024L20.4359 34.3118C19.6001 36.5704 16.4056 36.5704 15.5698 34.3118L12.2361 25.3024C11.9733 24.5923 11.4134 24.0324 10.7033 23.7697L1.69396 20.4359C-0.564654 19.6001 -0.564654 16.4056 1.69396 15.5698L10.7033 12.2361C11.4134 11.9733 11.9733 11.4134 12.2361 10.7033L15.5698 1.69396Z" fill="var(--fill-0, #01D701)"/>
</svg>
