<svg preserveAspectRatio="none" width="100%" height="100%" overflow="visible" style="display: block;" viewBox="0 0 66.1191 63.6713" fill="none" xmlns="http://www.w3.org/2000/svg">
<path id="Star 21" opacity="0.2" d="M27.8466 6.28717C29.4875 1.23758 36.6316 1.23755 38.2724 6.28717L42.8506 20.377C42.9149 20.5751 43.0993 20.7089 43.3076 20.709H58.123C63.4324 20.7093 65.6401 27.5041 61.3447 30.6251L49.3593 39.3331C49.1908 39.4555 49.1203 39.672 49.1845 39.8702L53.7627 53.96C55.4034 59.0098 49.6237 63.2088 45.3281 60.088L33.3427 51.3809C33.1741 51.2584 32.945 51.2584 32.7763 51.3809L20.791 60.088C16.4954 63.2088 10.7156 59.0098 12.3564 53.96L16.9345 39.8702C16.9988 39.672 16.9283 39.4555 16.7597 39.3331L4.77438 30.6251C0.478999 27.5042 2.68666 20.7093 7.99606 20.709H22.8115C23.0197 20.7089 23.2041 20.5751 23.2685 20.377L27.8466 6.28717Z" fill="url(#paint0_linear_5_11)" stroke="var(--stroke-0, white)" stroke-width="5"/>
<defs>
<linearGradient id="paint0_linear_5_11" x1="33.0595" y1="-1.66595" x2="33.0595" y2="70.334" gradientUnits="userSpaceOnUse">
<stop stop-color="#57FF43"/>
<stop offset="1" stop-color="#00ADEE"/>
</linearGradient>
</defs>
</svg>
