<svg preserveAspectRatio="none" width="100%" height="100%" overflow="visible" style="display: block;" viewBox="0 0 127.392 87.9514" fill="none" xmlns="http://www.w3.org/2000/svg">
<path id="Vector 234257648" d="M65.1396 4.86999L5.43953 0.00174515C5.15419 -0.0215225 4.90388 0.190588 4.88 0.475873L0.00180914 58.7574C-0.00508232 58.8397 0.00777701 58.9225 0.0393191 58.9989L9.73457 82.4716C9.80861 82.6509 9.9764 82.7739 10.1696 82.7906L69.7546 87.9495C69.7957 87.9531 69.837 87.9517 69.8778 87.9455L103.748 82.7745C103.796 82.7671 103.843 82.7531 103.887 82.7326L123.792 73.5458C123.962 73.4673 124.077 73.3034 124.092 73.1167L127.39 32.7745C127.417 32.4491 127.14 32.1802 126.816 32.2162L115.805 33.4397C115.776 33.4429 115.747 33.4486 115.718 33.4568L85.3294 42.2129C85.2021 42.2496 85.0657 42.2362 84.9479 42.1756L68.168 33.5314C68.0591 33.4753 67.9736 33.3826 67.9265 33.2695L65.4743 27.3843C65.4286 27.2746 65.4219 27.1526 65.4553 27.0386L69.752 12.3793C69.7931 12.2393 69.7733 12.0885 69.6976 11.9638L65.5412 5.118C65.4548 4.97574 65.3055 4.88352 65.1396 4.86999Z" fill="var(--fill-0, #D9D9D9)"/>
</svg>
