<svg preserveAspectRatio="none" width="100%" height="100%" overflow="visible" style="display: block;" viewBox="0 0 51.3756 51.3756" fill="none" xmlns="http://www.w3.org/2000/svg">
<path id="Star 19" d="M20.9986 3.26481C22.6093 -1.08828 28.7663 -1.08827 30.3771 3.26482L34.3689 14.0526C34.8754 15.4212 35.9544 16.5003 37.323 17.0067L48.1108 20.9986C52.4639 22.6093 52.4639 28.7663 48.1108 30.3771L37.323 34.3689C35.9544 34.8754 34.8753 35.9544 34.3689 37.323L30.3771 48.1108C28.7663 52.4639 22.6093 52.4639 20.9986 48.1108L17.0067 37.323C16.5003 35.9544 15.4212 34.8753 14.0526 34.3689L3.26481 30.3771C-1.08828 28.7663 -1.08827 22.6093 3.26482 20.9986L14.0526 17.0067C15.4212 16.5003 16.5003 15.4212 17.0067 14.0526L20.9986 3.26481Z" fill="var(--fill-0, #01D701)"/>
</svg>
