<svg preserveAspectRatio="none" width="100%" height="100%" overflow="visible" style="display: block;" viewBox="0 0 50.9073 50.9073" fill="none" xmlns="http://www.w3.org/2000/svg">
<path id="Star 25" d="M22.3721 2.1455C23.4306 -0.715166 27.4767 -0.715165 28.5352 2.1455L33.4739 15.4921C33.8067 16.3915 34.5158 17.1006 35.4152 17.4334L48.7618 22.3721C51.6224 23.4306 51.6224 27.4767 48.7618 28.5352L35.4152 33.4739C34.5158 33.8067 33.8067 34.5158 33.4739 35.4152L28.5352 48.7618C27.4767 51.6224 23.4306 51.6224 22.3721 48.7618L17.4334 35.4152C17.1006 34.5158 16.3915 33.8067 15.4921 33.4739L2.1455 28.5352C-0.715166 27.4767 -0.715165 23.4306 2.1455 22.3721L15.4921 17.4334C16.3915 17.1006 17.1006 16.3915 17.4334 15.4921L22.3721 2.1455Z" fill="var(--fill-0, #01D701)"/>
</svg>
