<svg preserveAspectRatio="none" width="100%" height="100%" overflow="visible" style="display: block;" viewBox="0 0 727.743 882.209" fill="none" xmlns="http://www.w3.org/2000/svg">
<g id="BG Decor" opacity="0.5">
<path id="Union" opacity="0.15" d="M312.76 496.937C303.087 513.691 281.662 519.432 264.908 509.759C259.923 506.881 251.403 498.377 241.89 487.844C240.872 486.716 239.145 486.592 237.939 487.516C236.733 488.441 236.413 490.137 237.239 491.413C244.952 503.324 250.967 513.749 252.46 519.318C254.949 528.656 253.43 538.129 248.948 545.892C244.466 553.654 237.013 559.721 227.691 562.219C208.998 567.228 189.785 556.135 184.776 537.443C183.279 531.883 183.274 519.853 183.995 505.688C184.072 504.169 182.946 502.86 181.438 502.662C179.932 502.464 178.499 503.436 178.181 504.922C175.209 518.793 172.085 530.41 169.202 535.403C159.529 552.157 138.103 557.898 121.349 548.225C104.596 538.553 98.8549 517.127 108.527 500.373C111.411 495.379 119.916 486.869 130.44 477.36C131.568 476.34 131.693 474.612 130.768 473.405C129.842 472.198 128.145 471.877 126.867 472.703C114.954 480.41 104.528 486.422 98.9735 487.91C80.2812 492.918 61.0678 481.826 56.0593 463.134C53.5625 453.809 55.0892 444.322 59.571 436.56C64.0526 428.797 71.4974 422.746 80.8282 420.233C86.3915 418.749 98.4318 418.743 112.608 419.464C114.128 419.541 115.437 418.415 115.636 416.906C115.834 415.398 114.862 413.964 113.375 413.646C99.495 410.672 87.869 407.546 82.8832 404.667C66.1295 394.994 60.3884 373.568 70.0612 356.815C79.7339 340.061 101.16 334.32 117.913 343.993C122.901 346.872 131.426 355.382 140.945 365.921C141.962 367.048 143.686 367.173 144.891 366.249C146.096 365.325 146.416 363.631 145.591 362.356C137.879 350.436 131.862 339.997 130.364 334.435C127.874 325.097 129.394 315.624 133.875 307.861C138.357 300.099 145.81 294.032 155.132 291.534C173.829 286.518 193.042 297.61 198.047 316.31C199.535 321.867 199.547 333.917 198.832 348.101C198.756 349.615 199.878 350.919 201.381 351.117C202.884 351.314 204.313 350.346 204.63 348.864C207.608 334.98 210.734 323.346 213.62 318.348C223.292 301.595 244.718 295.854 261.472 305.526C278.226 315.199 283.966 336.625 274.294 353.379C271.414 358.367 262.901 366.895 252.363 376.419C251.239 377.435 251.115 379.157 252.037 380.359C252.959 381.562 254.649 381.881 255.922 381.058C267.848 373.347 278.288 367.334 283.846 365.844C302.543 360.828 321.755 371.92 326.76 390.62C329.256 399.945 327.731 409.431 323.249 417.194C318.768 424.956 311.322 431.008 301.991 433.521C296.421 435.012 284.376 435.02 270.199 434.302C268.684 434.226 267.378 435.348 267.181 436.853C266.983 438.356 267.952 439.785 269.435 440.103C283.32 443.078 294.951 446.205 299.938 449.085C316.692 458.758 322.433 480.183 312.76 496.937Z" fill="var(--fill-0, #00ADEE)"/>
<path id="Union_2" opacity="0.15" d="M667.31 777.536C658.967 791.987 640.486 796.939 626.034 788.596C621.734 786.113 614.386 778.778 606.18 769.692C605.301 768.72 603.812 768.612 602.772 769.41C601.731 770.208 601.455 771.67 602.168 772.771C608.821 783.045 614.009 792.037 615.297 796.841C617.444 804.895 616.133 813.067 612.268 819.763C608.402 826.458 601.973 831.692 593.932 833.846C577.808 838.167 561.235 828.598 556.915 812.475C555.623 807.68 555.619 797.302 556.241 785.084C556.307 783.774 555.336 782.645 554.036 782.474C552.736 782.303 551.5 783.141 551.226 784.423C548.663 796.388 545.968 806.408 543.481 810.716C535.137 825.167 516.656 830.119 502.205 821.776C487.753 813.432 482.801 794.951 491.145 780.5C493.632 776.192 500.968 768.851 510.046 760.649C511.019 759.769 511.127 758.279 510.329 757.238C509.53 756.196 508.066 755.919 506.964 756.632C496.688 763.28 487.695 768.466 482.904 769.749C466.78 774.069 450.207 764.501 445.887 748.378C443.733 740.335 445.05 732.152 448.916 725.456C452.782 718.76 459.204 713.54 467.252 711.372C472.051 710.093 482.436 710.087 494.665 710.709C495.975 710.776 497.105 709.805 497.276 708.503C497.447 707.203 496.609 705.966 495.326 705.691C483.354 703.126 473.325 700.429 469.025 697.946C454.573 689.603 449.621 671.121 457.965 656.67C466.308 642.219 484.789 637.267 499.241 645.61C503.543 648.094 510.896 655.434 519.107 664.525C519.984 665.497 521.472 665.604 522.511 664.808C523.55 664.011 523.826 662.55 523.114 661.45C516.462 651.168 511.272 642.163 509.98 637.366C507.833 629.311 509.143 621.14 513.009 614.444C516.875 607.748 523.304 602.515 531.345 600.36C547.472 596.034 564.045 605.602 568.362 621.732C569.645 626.525 569.656 636.919 569.039 649.153C568.974 650.459 569.941 651.585 571.238 651.755C572.534 651.925 573.767 651.09 574.041 649.812C576.609 637.836 579.305 627.801 581.794 623.49C590.138 609.039 608.619 604.087 623.07 612.43C637.522 620.774 642.474 639.255 634.13 653.706C631.646 658.009 624.303 665.365 615.213 673.58C614.244 674.457 614.137 675.942 614.932 676.979C615.727 678.016 617.186 678.292 618.283 677.582C628.57 670.931 637.576 665.743 642.37 664.459C658.497 660.132 675.069 669.7 679.386 685.83C681.54 693.873 680.224 702.056 676.358 708.751C672.492 715.447 666.07 720.667 658.021 722.834C653.217 724.121 642.827 724.128 630.598 723.509C629.291 723.442 628.165 724.411 627.995 725.709C627.824 727.005 628.66 728.238 629.939 728.512C641.916 731.078 651.949 733.776 656.25 736.26C670.702 744.603 675.654 763.084 667.31 777.536Z" fill="var(--fill-0, #00ADEE)"/>
<path id="Union_3" opacity="0.15" d="M629.945 249.092C620.73 265.052 600.318 270.522 584.358 261.307C579.609 258.565 571.493 250.464 562.43 240.43C561.46 239.355 559.815 239.236 558.666 240.117C557.517 240.998 557.212 242.614 557.999 243.829C565.347 255.177 571.077 265.108 572.499 270.413C574.87 279.309 573.423 288.334 569.154 295.729C564.884 303.124 557.783 308.903 548.903 311.283C531.095 316.055 512.792 305.487 508.02 287.68C506.594 282.384 506.589 270.923 507.276 257.428C507.349 255.981 506.277 254.735 504.841 254.546C503.405 254.358 502.04 255.283 501.737 256.699C498.906 269.913 495.93 280.98 493.183 285.737C483.968 301.697 463.557 307.167 447.597 297.952C431.636 288.737 426.167 268.326 435.382 252.365C438.128 247.608 446.231 239.5 456.257 230.441C457.332 229.47 457.451 227.824 456.569 226.674C455.687 225.524 454.07 225.218 452.853 226.006C441.504 233.348 431.572 239.074 426.28 240.492C408.473 245.263 390.169 234.696 385.398 216.889C383.019 208.006 384.474 198.968 388.743 191.573C393.013 184.178 400.105 178.413 408.994 176.019C414.294 174.606 425.764 174.6 439.269 175.287C440.717 175.36 441.964 174.288 442.154 172.85C442.343 171.414 441.417 170.048 440 169.744C426.777 166.911 415.701 163.933 410.952 161.191C394.991 151.976 389.522 131.564 398.737 115.604C407.951 99.6435 428.363 94.1744 444.323 103.389C449.075 106.132 457.196 114.239 466.264 124.279C467.233 125.352 468.876 125.471 470.023 124.592C471.171 123.711 471.476 122.098 470.69 120.883C463.343 109.528 457.611 99.5825 456.184 94.2836C453.813 85.3883 455.26 76.363 459.529 68.968C463.799 61.5732 470.899 55.7935 479.78 53.4138C497.592 48.6351 515.895 59.2027 520.662 77.0173C522.08 82.3114 522.092 93.7904 521.411 107.302C521.338 108.745 522.407 109.988 523.839 110.176C525.271 110.364 526.632 109.441 526.934 108.03C529.771 94.8026 532.749 83.7202 535.498 78.9589C544.713 62.9985 565.124 57.5292 581.085 66.744C597.045 75.9588 602.514 96.3701 593.299 112.331C590.556 117.083 582.446 125.207 572.407 134.28C571.336 135.248 571.218 136.888 572.096 138.034C572.975 139.18 574.585 139.484 575.798 138.7C587.158 131.354 597.105 125.625 602.4 124.206C620.211 119.427 638.514 129.994 643.281 147.809C645.66 156.692 644.207 165.729 639.937 173.124C635.668 180.519 628.575 186.284 619.685 188.678C614.379 190.099 602.904 190.107 589.398 189.423C587.955 189.35 586.711 190.419 586.523 191.852C586.335 193.285 587.258 194.646 588.671 194.949C601.898 197.782 612.979 200.762 617.73 203.505C633.69 212.72 639.159 233.131 629.945 249.092Z" fill="var(--fill-0, #00ADEE)"/>
</g>
</svg>
