<svg preserveAspectRatio="none" width="100%" height="100%" overflow="visible" style="display: block;" viewBox="0 0 79.4677 76.645" fill="none" xmlns="http://www.w3.org/2000/svg">
<g id="Mask group">
<mask id="mask0_43_53" style="mask-type:alpha" maskUnits="userSpaceOnUse" x="0" y="0" width="80" height="77">
<path id="Vector 234257649" d="M51.117 68.3341C38.1889 67.4107 31.7249 70.181 15.1031 76.645C11.4093 72.3357 3.28312 62.0548 0.328136 55.406C-2.62685 48.7573 15.1031 18.1609 24.3374 3.69374L59.4279 0L78.82 21.239C76.7701 32.8554 83.5291 65.9956 75.1263 75.7216C69.5857 72.9513 57.5646 68.7947 51.117 68.3341Z" fill="var(--fill-0, #D9D9D9)"/>
</mask>
<g mask="url(#mask0_43_53)">
<g id="Group 2136139294">
<g id="Ellipse 28921">
<path d="M62.0701 56.2773C57.947 71.5401 47.4894 81.991 38.7124 79.62C38.6915 79.6144 38.6706 79.6087 38.6498 79.6029C37.6597 79.3283 36.7337 78.9014 35.876 78.3382C29.1692 73.9341 26.6387 61.1911 30.2856 47.6911C33.9213 34.2326 42.4823 24.5156 50.4733 24.0318C51.4747 23.9712 52.4672 24.0555 53.4399 24.2957C53.5078 24.3125 53.5757 24.33 53.6434 24.3483C62.4205 26.7194 66.1932 41.0144 62.0701 56.2773Z" fill="url(#paint0_linear_43_53)"/>
<path fill-rule="evenodd" clip-rule="evenodd" d="M35.876 78.3382C43.9052 77.9621 52.5393 68.228 56.1903 54.7126C59.8525 41.1558 57.2674 28.3614 50.4733 24.0318C42.4823 24.5156 33.9213 34.2326 30.2856 47.6911C26.6387 61.1911 29.1692 73.9341 35.876 78.3382Z" fill="url(#paint1_linear_43_53)"/>
<path d="M24.4058 46.1264C20.2889 61.3662 24.0667 75.6425 32.8438 78.0136C33.8369 78.2818 34.8515 78.3862 35.876 78.3382C29.1692 73.9341 26.6387 61.1911 30.2856 47.6911C33.9213 34.2326 42.4823 24.5156 50.4733 24.0318C49.6298 23.4943 48.7215 23.0873 47.7523 22.8254C38.9752 20.4544 28.5226 30.8866 24.4058 46.1264Z" fill="#757575"/>
<path d="M47.7523 22.8254C48.7215 23.0873 49.6298 23.4943 50.4733 24.0318C51.4747 23.9712 52.4672 24.0555 53.4399 24.2957L47.7523 22.8254Z" fill="#757575"/>
<path d="M32.8438 78.0136L38.6498 79.6029C37.6597 79.3283 36.7337 78.9014 35.876 78.3382C34.8515 78.3862 33.8369 78.2818 32.8438 78.0136Z" fill="#757575"/>
</g>
<path id="Ellipse 28922" opacity="0.2" d="M51.5403 32.1477C54.3754 32.9137 56.5721 35.6595 57.6748 39.8378C58.7701 43.9882 58.72 49.3634 57.2083 54.9592C55.6967 60.5549 53.0334 65.2242 49.9973 68.2586C46.9406 71.3133 43.6601 72.5795 40.825 71.8137C37.9898 71.0479 35.7933 68.302 34.6905 64.1236C33.5951 59.9731 33.6453 54.5981 35.157 49.0022C36.6687 43.4064 39.3318 38.7372 42.368 35.7029C45.4248 32.6481 48.7052 31.3818 51.5403 32.1477Z" fill="url(#paint2_linear_43_53)" stroke="var(--stroke-0, black)" stroke-width="1.85146"/>
</g>
</g>
</g>
<defs>
<linearGradient id="paint0_linear_43_53" x1="50.7065" y1="23.5549" x2="35.7754" y2="78.8266" gradientUnits="userSpaceOnUse">
<stop stop-color="#C8C8C8"/>
<stop offset="0.235577" stop-color="white"/>
<stop offset="0.442308" stop-color="#D5D5D5"/>
<stop offset="0.615385" stop-color="#AEAEAE"/>
<stop offset="1" stop-color="#E6E6E6"/>
</linearGradient>
<linearGradient id="paint1_linear_43_53" x1="50.7065" y1="23.5549" x2="35.7754" y2="78.8266" gradientUnits="userSpaceOnUse">
<stop stop-color="#C8C8C8"/>
<stop offset="0.235577" stop-color="white"/>
<stop offset="0.442308" stop-color="#D5D5D5"/>
<stop offset="0.615385" stop-color="#AEAEAE"/>
<stop offset="1" stop-color="#E6E6E6"/>
</linearGradient>
<linearGradient id="paint2_linear_43_53" x1="51.7815" y1="31.2539" x2="40.5832" y2="72.7076" gradientUnits="userSpaceOnUse">
<stop stop-color="#C8C8C8"/>
<stop offset="0.235577" stop-color="white"/>
<stop offset="0.442308" stop-color="#D5D5D5"/>
<stop offset="0.615385" stop-color="#AEAEAE"/>
<stop offset="1" stop-color="#E6E6E6"/>
</linearGradient>
</defs>
</svg>
