<svg preserveAspectRatio="none" width="100%" height="100%" overflow="visible" style="display: block;" viewBox="0 0 40.5541 40.5541" fill="none" xmlns="http://www.w3.org/2000/svg">
<path id="Star 23" d="M15.5878 3.26482C17.1986 -1.08827 23.3555 -1.08827 24.9663 3.26482L27.4968 10.1033C28.0032 11.4719 29.0823 12.5509 30.4509 13.0574L37.2893 15.5878C41.6424 17.1986 41.6424 23.3555 37.2893 24.9663L30.4509 27.4968C29.0823 28.0032 28.0032 29.0823 27.4968 30.4509L24.9663 37.2893C23.3555 41.6424 17.1986 41.6424 15.5878 37.2893L13.0574 30.4509C12.5509 29.0823 11.4719 28.0032 10.1033 27.4968L3.26482 24.9663C-1.08827 23.3555 -1.08827 17.1986 3.26482 15.5878L10.1033 13.0574C11.4719 12.5509 12.5509 11.4719 13.0574 10.1033L15.5878 3.26482Z" fill="var(--fill-0, #01D701)"/>
</svg>
