<svg preserveAspectRatio="none" width="100%" height="100%" overflow="visible" style="display: block;" viewBox="0 0 727.747 882.209" fill="none" xmlns="http://www.w3.org/2000/svg">
<g id="BG Decor" opacity="0.5">
<path id="Union" opacity="0.15" d="M312.76 496.937C303.087 513.691 281.662 519.432 264.908 509.759C259.923 506.881 251.403 498.377 241.89 487.844C240.872 486.716 239.145 486.592 237.939 487.516C236.733 488.441 236.413 490.137 237.239 491.413C244.952 503.324 250.967 513.749 252.46 519.318C254.949 528.656 253.43 538.129 248.948 545.892C244.466 553.654 237.013 559.721 227.691 562.219C208.998 567.228 189.785 556.135 184.776 537.443C183.279 531.883 183.274 519.853 183.995 505.688C184.072 504.169 182.946 502.86 181.438 502.662C179.932 502.464 178.499 503.436 178.181 504.922C175.209 518.793 172.085 530.41 169.202 535.403C159.529 552.157 138.103 557.898 121.349 548.225C104.596 538.553 98.8549 517.127 108.527 500.373C111.411 495.379 119.916 486.869 130.44 477.36C131.568 476.34 131.693 474.612 130.768 473.405C129.842 472.198 128.145 471.877 126.867 472.703C114.954 480.41 104.528 486.422 98.9735 487.91C80.2812 492.918 61.0678 481.826 56.0593 463.134C53.5625 453.809 55.0892 444.322 59.571 436.56C64.0526 428.797 71.4974 422.746 80.8282 420.233C86.3915 418.749 98.4318 418.743 112.608 419.464C114.128 419.541 115.437 418.415 115.636 416.906C115.834 415.398 114.862 413.964 113.375 413.646C99.495 410.672 87.869 407.546 82.8832 404.667C66.1295 394.994 60.3884 373.568 70.0612 356.815C79.7339 340.061 101.16 334.32 117.913 343.993C122.901 346.872 131.426 355.382 140.945 365.921C141.962 367.048 143.686 367.173 144.891 366.249C146.096 365.325 146.416 363.631 145.591 362.356C137.879 350.436 131.862 339.997 130.364 334.435C127.874 325.097 129.394 315.624 133.875 307.861C138.357 300.099 145.81 294.032 155.132 291.534C173.829 286.518 193.042 297.61 198.047 316.31C199.535 321.867 199.547 333.917 198.832 348.101C198.756 349.615 199.878 350.919 201.381 351.117C202.884 351.314 204.313 350.346 204.63 348.864C207.608 334.98 210.734 323.346 213.62 318.348C223.292 301.595 244.718 295.854 261.472 305.526C278.226 315.199 283.966 336.625 274.294 353.379C271.414 358.367 262.901 366.895 252.363 376.419C251.239 377.435 251.115 379.157 252.037 380.359C252.959 381.562 254.649 381.881 255.922 381.058C267.848 373.347 278.288 367.334 283.846 365.844C302.543 360.828 321.755 371.92 326.76 390.62C329.256 399.945 327.731 409.431 323.249 417.194C318.768 424.956 311.322 431.008 301.991 433.521C296.421 435.012 284.376 435.02 270.199 434.302C268.684 434.226 267.378 435.348 267.181 436.853C266.983 438.356 267.952 439.785 269.435 440.103C283.32 443.078 294.951 446.205 299.938 449.085C316.692 458.758 322.433 480.183 312.76 496.937Z" fill="var(--fill-0, #00ADEE)"/>
<path id="Union_2" opacity="0.15" d="M667.314 777.536C658.971 791.987 640.489 796.939 626.038 788.596C621.738 786.113 614.389 778.778 606.184 769.692C605.305 768.72 603.816 768.612 602.776 769.41C601.735 770.208 601.459 771.67 602.172 772.771C608.825 783.045 614.013 792.037 615.301 796.841C617.448 804.895 616.137 813.067 612.271 819.763C608.406 826.458 601.976 831.692 593.936 833.846C577.812 838.167 561.239 828.598 556.919 812.475C555.627 807.68 555.623 797.302 556.245 785.084C556.311 783.774 555.34 782.645 554.04 782.474C552.74 782.303 551.504 783.141 551.23 784.423C548.667 796.388 545.972 806.408 543.485 810.716C535.141 825.167 516.66 830.119 502.209 821.776C487.757 813.432 482.805 794.951 491.149 780.5C493.636 776.192 500.972 768.851 510.05 760.649C511.023 759.769 511.131 758.279 510.333 757.238C509.534 756.196 508.07 755.919 506.968 756.632C496.692 763.28 487.699 768.466 482.908 769.749C466.784 774.069 450.211 764.501 445.891 748.378C443.737 740.335 445.054 732.152 448.92 725.456C452.786 718.76 459.208 713.54 467.256 711.372C472.055 710.093 482.44 710.087 494.668 710.709C495.979 710.776 497.109 709.805 497.28 708.503C497.451 707.203 496.613 705.966 495.33 705.691C483.357 703.126 473.329 700.429 469.029 697.946C454.577 689.603 449.625 671.121 457.969 656.67C466.312 642.219 484.793 637.267 499.245 645.61C503.547 648.094 510.9 655.434 519.111 664.525C519.988 665.497 521.476 665.604 522.514 664.808C523.554 664.011 523.83 662.55 523.118 661.45C516.466 651.168 511.276 642.163 509.984 637.366C507.837 629.311 509.147 621.14 513.013 614.444C516.879 607.748 523.308 602.515 531.349 600.36C547.476 596.034 564.049 605.602 568.366 621.732C569.649 626.525 569.66 636.919 569.043 649.153C568.977 650.459 569.945 651.585 571.242 651.755C572.538 651.925 573.77 651.09 574.044 649.812C576.612 637.836 579.309 627.801 581.798 623.49C590.142 609.039 608.623 604.087 623.074 612.43C637.526 620.774 642.478 639.255 634.134 653.706C631.65 658.009 624.307 665.365 615.217 673.58C614.248 674.457 614.14 675.942 614.936 676.979C615.731 678.016 617.189 678.292 618.287 677.582C628.574 670.931 637.58 665.743 642.374 664.459C658.501 660.132 675.073 669.7 679.39 685.83C681.544 693.873 680.228 702.056 676.362 708.751C672.496 715.447 666.074 720.667 658.025 722.834C653.22 724.121 642.831 724.128 630.602 723.509C629.295 723.442 628.169 724.411 627.999 725.709C627.828 727.005 628.664 728.238 629.943 728.512C641.92 731.078 651.953 733.776 656.254 736.26C670.706 744.603 675.658 763.084 667.314 777.536Z" fill="var(--fill-0, #00ADEE)"/>
<path id="Union_3" opacity="0.15" d="M629.948 249.092C620.734 265.052 600.322 270.522 584.362 261.307C579.613 258.565 571.497 250.464 562.434 240.43C561.464 239.355 559.819 239.236 558.67 240.117C557.521 240.998 557.216 242.614 558.003 243.829C565.351 255.177 571.081 265.108 572.503 270.413C574.874 279.309 573.427 288.334 569.157 295.729C564.888 303.124 557.787 308.903 548.907 311.283C531.099 316.055 512.796 305.487 508.024 287.68C506.598 282.384 506.593 270.923 507.28 257.428C507.353 255.981 506.281 254.735 504.844 254.546C503.409 254.358 502.044 255.283 501.741 256.699C498.91 269.913 495.934 280.98 493.187 285.737C483.972 301.697 463.561 307.167 447.6 297.952C431.64 288.737 426.171 268.326 435.386 252.365C438.132 247.608 446.235 239.5 456.261 230.441C457.336 229.47 457.454 227.824 456.573 226.674C455.691 225.524 454.074 225.218 452.857 226.006C441.508 233.348 431.575 239.074 426.284 240.492C408.477 245.263 390.173 234.696 385.402 216.889C383.023 208.006 384.477 198.968 388.747 191.573C393.016 184.178 400.109 178.413 408.998 176.019C414.298 174.606 425.768 174.6 439.273 175.287C440.721 175.36 441.968 174.288 442.157 172.85C442.347 171.414 441.421 170.048 440.004 169.744C426.781 166.911 415.705 163.933 410.955 161.191C394.995 151.976 389.526 131.564 398.741 115.604C407.955 99.6435 428.367 94.1744 444.327 103.389C449.079 106.132 457.2 114.239 466.268 124.279C467.237 125.352 468.88 125.471 470.027 124.592C471.175 123.711 471.48 122.098 470.694 120.883C463.347 109.528 457.615 99.5825 456.188 94.2836C453.816 85.3883 455.264 76.363 459.533 68.968C463.803 61.5732 470.903 55.7935 479.784 53.4138C497.596 48.6351 515.899 59.2027 520.666 77.0173C522.084 82.3114 522.096 93.7904 521.415 107.302C521.342 108.745 522.411 109.988 523.843 110.176C525.275 110.364 526.636 109.441 526.938 108.03C529.775 94.8026 532.753 83.7202 535.502 78.9589C544.717 62.9985 565.128 57.5292 581.088 66.744C597.049 75.9588 602.518 96.3701 593.303 112.331C590.56 117.083 582.45 125.207 572.411 134.28C571.34 135.248 571.222 136.888 572.1 138.034C572.979 139.18 574.589 139.484 575.802 138.7C587.162 131.354 597.109 125.625 602.404 124.206C620.215 119.427 638.518 129.994 643.285 147.809C645.664 156.692 644.211 165.729 639.941 173.124C635.671 180.519 628.579 186.284 619.689 188.678C614.383 190.099 602.908 190.107 589.402 189.423C587.959 189.35 586.715 190.419 586.527 191.852C586.339 193.285 587.262 194.646 588.675 194.949C601.902 197.782 612.982 200.762 617.734 203.505C633.694 212.72 639.163 233.131 629.948 249.092Z" fill="var(--fill-0, #00ADEE)"/>
</g>
</svg>
