<svg preserveAspectRatio="none" width="100%" height="100%" overflow="visible" style="display: block;" viewBox="0 0 258.29 25.1491" fill="none" xmlns="http://www.w3.org/2000/svg">
<g id="&#208;&#155;&#208;&#190;&#208;&#179;&#208;&#190;" clip-path="url(#clip0_43_3)">
<path id="Vector" d="M73.3592 7.52449L76.7851 5.00195H65.3281V20.1313H76.7851V17.6088H68.5957V13.737H75.5825V11.2144H68.5957V7.51862H73.3592V7.52449Z" fill="var(--fill-0, #122654)"/>
<path id="Vector_2" d="M56.6766 10.9035H52.6992V7.52449H59.0525L62.4726 5.00195H49.4258V20.1313H56.2484C60.0791 20.1313 62.2731 18.4007 62.2731 15.3795C62.2731 12.4933 60.2903 10.8976 56.6707 10.8976L56.6766 10.9035ZM56.1076 17.6205H52.6992V13.426H56.1076C58.1843 13.426 59.1522 14.13 59.1522 15.5203C59.1522 16.9107 58.1315 17.6146 56.1076 17.6146V17.6205Z" fill="var(--fill-0, #122654)"/>
<path id="Vector_3" d="M86.0699 5.00782H79.8281V20.1372H83.0957V15.8547H86.0641C90.0473 15.8547 92.5171 13.7663 92.5171 10.4225C92.5171 7.07865 90.0473 5.00195 86.0641 5.00195L86.0699 5.00782ZM85.9995 13.3322H83.1016V7.52449H85.9995C88.0938 7.52449 89.2495 8.55697 89.2495 10.4283C89.2495 12.2997 88.0938 13.3322 85.9995 13.3322Z" fill="var(--fill-0, #122654)"/>
<path id="Vector_4" d="M43.8159 16.864C42.9477 17.3333 41.9797 17.5738 40.9942 17.5679C38.0434 17.5679 35.908 15.4678 35.908 12.5698C35.908 9.67181 38.0493 7.57165 40.9942 7.57165C42.0618 7.55405 43.1002 7.88257 43.9684 8.5044L46.315 6.77969L46.1566 6.64476C44.7838 5.44216 42.9594 4.80859 40.8651 4.80859C38.589 4.80859 36.5357 5.57122 35.0633 6.96155C33.5908 8.34601 32.7695 10.3171 32.7695 12.4935C32.7695 14.6699 33.5791 16.6645 35.0574 18.1018C36.5299 19.539 38.589 20.3369 40.8475 20.3369C43.1061 20.3369 45.2649 19.5156 46.6611 18.0255L44.5433 16.4709L43.8218 16.864H43.8159Z" fill="var(--fill-0, #122654)"/>
<path id="Vector_5" fill-rule="evenodd" clip-rule="evenodd" d="M18.0567 4.59141L20.5088 2.79043C18.2678 0.977729 15.4755 -0.00195312 12.5951 -0.00195312C10.9408 -0.00195312 9.30405 0.320697 7.7788 0.954264C6.44126 1.5057 5.2152 2.28593 4.14752 3.25388C2.83932 4.42715 1.79511 5.86441 1.08528 7.47179C0.363714 9.07331 0 10.8156 0 12.5697C0 14.2181 0.32265 15.8548 0.956217 17.3801C1.50765 18.7117 2.28788 19.9378 3.25583 21.0055C4.43497 22.3137 5.87809 23.352 7.48548 24.0677C9.04593 24.76 10.7354 25.1295 12.4426 25.1471C12.4953 25.1471 12.5423 25.1471 12.5951 25.1471C14.2494 25.1471 15.8861 24.8245 17.4114 24.1909C18.743 23.6395 19.975 22.8593 21.0426 21.8972C22.3508 20.7239 23.395 19.2808 24.1049 17.6793C24.8206 16.0719 25.1843 14.3354 25.1843 12.5755C25.1843 11.8188 25.1198 11.0679 24.9848 10.3228L22.2746 12.3174V12.5755C22.2746 13.9248 21.993 15.2623 21.4415 16.5001C20.8901 17.7321 20.0864 18.8408 19.0833 19.7442C18.262 20.4892 17.3175 21.0876 16.2909 21.51C15.1176 21.9969 13.8563 22.2433 12.5833 22.2433C11.2282 22.2433 9.89069 21.9617 8.65288 21.4103C7.41508 20.8588 6.30634 20.061 5.40292 19.0579C4.65789 18.2424 4.05952 17.2979 3.63714 16.2772C3.15024 15.1039 2.89798 13.8427 2.90385 12.5755C2.90385 12.4113 2.90385 12.2529 2.91558 12.0945C2.97425 10.9095 3.24996 9.74207 3.73687 8.6568C4.22378 7.56565 4.90428 6.5801 5.74903 5.74121C6.64659 4.84953 7.71426 4.13383 8.88754 3.64692C10.0608 3.16002 11.3221 2.90776 12.5892 2.90776C12.7535 2.90776 12.9119 2.90776 13.0703 2.91949C14.8478 3.00749 16.5725 3.58239 18.0449 4.59141H18.0567ZM22.562 4.88473C23.1604 5.65908 23.6649 6.49797 24.0697 7.3838L12.5951 15.8255L7.80226 12.8219V9.2141L12.5951 12.2118L22.5562 4.87886L22.562 4.88473Z" fill="var(--fill-0, #122654)"/>
<path id="Vector_6" d="M102.28 5.08413H99.6053V20.0668H102.474L110.693 8.70368V20.0668H113.368V5.08413H110.458L102.28 16.2771V5.08413Z" fill="var(--fill-0, #122654)"/>
<path id="Vector_7" d="M128.144 20.0667H130.819V5.08398H128.144V11.1205H119.948V5.08398H117.273V20.0667H119.948V13.5785H128.144V20.0667Z" fill="var(--fill-0, #122654)"/>
<path id="Vector_8" d="M140.869 20.0686C144.506 20.0686 146.735 18.8073 146.735 15.704C146.735 13.7564 145.902 12.5773 144.06 12.2605C145.603 11.6621 146.283 10.524 146.283 8.81694C146.283 6.33547 144.57 5.0918 141.232 5.0918H134.727V20.0745H140.869V20.0686ZM137.402 17.6047V13.5159H141.086C142.969 13.5159 144.042 14.0732 144.042 15.5046C144.042 16.936 143.098 17.6047 141.045 17.6047H137.407H137.402ZM137.402 11.4216V7.5498H140.91C142.816 7.5498 143.608 8.18924 143.608 9.39184C143.608 10.6766 142.541 11.4275 140.845 11.4275H137.402V11.4216Z" fill="var(--fill-0, #122654)"/>
<path id="Vector_9" d="M159.341 11.1205H152.448V7.54786H160.133V5.08398H149.773V20.0667H160.368V17.6028H152.448V13.5785H159.341V11.1146V11.1205Z" fill="var(--fill-0, #122654)"/>
<path id="Vector_10" d="M175.797 15.1216C174.917 16.641 173.081 17.8377 170.465 17.8377C167.021 17.7732 165.244 15.4853 165.244 12.5698C165.244 9.42538 167.256 7.30176 170.529 7.30176C172.776 7.30176 174.595 8.58649 175.498 9.91229V6.18715C174.618 5.56532 172.888 4.83789 170.529 4.83789C165.566 4.83789 162.352 8.02919 162.352 12.5463C162.352 17.386 165.607 20.2723 170.482 20.2958C173.069 20.2958 175.041 19.3102 175.791 18.4126V15.1158L175.797 15.1216Z" fill="var(--fill-0, #122654)"/>
<path id="Vector_11" d="M189.667 5.08594H176.973V7.54982H181.941V20.0686H184.617V7.54395H189.667V5.08008V5.08594Z" fill="var(--fill-0, #122654)"/>
<path id="Vector_12" d="M194.589 5.08398H191.914V20.0667H194.783L203.001 8.70353V20.0667H205.677V5.08398H202.767L194.589 16.277V5.08398Z" fill="var(--fill-0, #122654)"/>
<path id="Vector_13" d="M209.578 20.0667H221.886V22.8473H224.391V17.6028H222.654V5.08398H219.979V17.6087H212.253V5.08398H209.578V20.0667Z" fill="var(--fill-0, #122654)"/>
<path id="Vector_14" d="M229.538 5.08398H226.863V20.0667H229.732L237.951 8.70353V20.0667H240.626V5.08398H237.716L229.538 16.277V5.08398Z" fill="var(--fill-0, #122654)"/>
<path id="Vector_15" d="M247.202 5.08413H244.527V20.0668H247.396L255.615 8.70368V20.0668H258.29V5.08413H255.38L247.202 16.2771V5.08413Z" fill="var(--fill-0, #122654)"/>
</g>
<defs>
<clipPath id="clip0_43_3">
<rect width="258.29" height="25.1491" fill="white"/>
</clipPath>
</defs>
</svg>
