<svg preserveAspectRatio="none" width="100%" height="100%" overflow="visible" style="display: block;" viewBox="0 0 444.907 307.164" fill="none" xmlns="http://www.w3.org/2000/svg">
<path id="Vector 234257648" d="M227.495 17.0081L18.9972 0.00609481C18.0006 -0.0751659 17.1264 0.665614 17.043 1.66195L0.00631813 205.206C-0.0177498 205.493 0.0271625 205.783 0.137321 206.049L33.9973 288.026C34.2558 288.652 34.8418 289.082 35.5166 289.14L243.613 307.157C243.756 307.17 243.901 307.165 244.043 307.143L362.332 289.084C362.5 289.058 362.664 289.009 362.818 288.938L432.334 256.853C432.928 256.579 433.328 256.007 433.382 255.355L444.901 114.463C444.994 113.326 444.027 112.387 442.894 112.513L404.44 116.786C404.337 116.797 404.236 116.817 404.138 116.845L298.007 147.426C297.562 147.554 297.085 147.507 296.674 147.295L238.072 117.106C237.691 116.91 237.393 116.586 237.228 116.191L228.664 95.6376C228.505 95.2546 228.481 94.8284 228.598 94.4303L243.604 43.2338C243.747 42.7449 243.678 42.2183 243.414 41.7829L228.898 17.8742C228.596 17.3774 228.075 17.0553 227.495 17.0081Z" fill="var(--fill-0, #D9D9D9)"/>
</svg>
