<svg preserveAspectRatio="xMidYMid meet" viewBox="0 0 185 103.249" fill="none" xmlns="http://www.w3.org/2000/svg">
<g id="Group 2131330182">
<g id="Vector">
<path fill-rule="evenodd" clip-rule="evenodd" d="M99.586 40.9751C120.468 40.9751 123.824 48.3093 121.655 54.2733L118.121 64.2688C117.032 67.3597 119.044 68.0506 120.481 68.0509H124.393C124.778 68.0509 125.047 68.4381 124.918 68.8005L121.011 79.5505C120.872 79.9295 120.512 80.1833 120.107 80.1833H105.038C98.8606 80.183 97.117 77.5104 97.2062 75.3863C95.4487 76.8262 87.7095 81.0057 78.3308 81.0059H73.7779C63.0964 81.0059 55.7052 75.4543 58.2984 68.3235C60.8884 61.1967 66.593 57.564 80.4043 56.673L101.001 56.0548C103.063 55.8487 103.911 55.5151 104.472 53.8595C105.062 51.8753 101.314 50.7079 95.7696 50.7078H92.68C87.4112 50.708 83.1409 52.7454 81.982 53.879C81.7199 54.1381 81.3657 54.273 80.9975 54.2733L65.1874 54.2051C64.7994 54.2045 64.545 53.7995 64.7109 53.4507C67.1353 48.3112 76.0934 40.9751 95.5897 40.9751H99.586ZM100.602 62.8256C98.1283 63.1082 94.0977 63.5232 89.7387 63.9354C80.0301 64.8263 77.2548 65.7887 75.9632 67.9828C74.7384 70.3827 76.7168 71.4095 82.4705 71.4095C92.5445 71.4095 98.6135 67.8547 100.556 64.5536L101.11 63.6093C101.329 63.237 101.03 62.7757 100.602 62.8256Z" fill="#122654"/>
<path d="M178.323 42.1214C178.641 42.1214 178.896 42.38 178.896 42.6958V53.4799C178.896 53.7989 178.638 54.0542 178.323 54.0542H161.448C161.13 54.0547 160.874 54.3155 160.874 54.631V79.6527C160.874 79.9716 160.616 80.2267 160.301 80.2271H144.155C143.837 80.2264 143.581 79.9681 143.581 79.6527V54.631C143.581 54.312 143.323 54.0544 143.008 54.0542H126.131C125.812 54.0542 125.557 53.7956 125.557 53.4799V42.6958C125.557 42.3767 125.815 42.1214 126.131 42.1214H178.323Z" fill="#122654"/>
<path d="M53.9959 41.9243C54.3872 41.9245 54.7028 42.2441 54.7032 42.6325L54.7057 42.6398V79.514C54.7057 79.9063 54.3868 80.2222 53.9983 80.2222H38.3292C37.9378 80.2219 37.6218 79.9027 37.6218 79.514V68.2675C37.6217 67.8424 37.258 67.5148 36.8367 67.5642C33.46 67.9797 27.8612 68.2115 23.4817 68.2115C5.71782 68.2115 0 63.3372 0 50.4352V42.6374C0 42.2451 0.318884 41.9292 0.707366 41.9292H16.5393C16.9307 41.9296 17.2467 42.2487 17.2467 42.6374V49.1331C17.2469 55.1729 19.8788 56.4758 26.8776 56.4759C29.0524 56.4759 34.6407 56.3103 36.985 56.0743C37.3468 56.0377 37.6193 55.7316 37.6194 55.366V42.6325C37.6198 42.2406 37.9386 41.9243 38.3268 41.9243H53.9959Z" fill="#122654"/>
<path d="M33.8662 0.00730081C34.1847 0.00730081 34.4419 0.266265 34.4423 0.581674V10.548C34.4423 10.8671 34.1817 11.1248 33.8662 11.1248H17.8131C17.4946 11.125 17.2395 11.3836 17.2394 11.6992V37.5435C17.2393 37.8621 16.9806 38.1172 16.6657 38.1179H0.573675C0.255509 38.1176 0.000615823 37.8562 0 37.541V0.581674C0.000488899 0.2631 0.258737 0.00753718 0.573675 0.00730081H33.8662Z" fill="#122654"/>
<path d="M54.2608 0.00973517C54.5793 0.00973517 54.8341 0.268626 54.8345 0.584107V21.152C54.8345 21.6802 55.4814 21.9267 55.8336 21.5389L75.0662 0.199569C75.1725 0.079891 75.3289 0.00973517 75.4916 0.00973517H91.8997C92.2182 0.00973517 92.4754 0.268625 92.4758 0.584107V37.541C92.4758 37.8602 92.2151 38.1179 91.8997 38.1179H75.8101C75.4913 38.1179 75.2364 37.8569 75.2364 37.541V17.0219C75.2364 16.4969 74.5894 16.2469 74.2373 16.6349L55.0047 37.928C54.8951 38.0476 54.7419 38.1179 54.5793 38.1179H38.1712C37.8525 38.1179 37.5951 37.8569 37.5951 37.541V0.584107C37.5955 0.26531 37.856 0.00973517 38.1712 0.00973517H54.2608Z" fill="#122654"/>
<path d="M130.511 0.00730081C130.829 0.00783523 131.084 0.266591 131.085 0.581674V10.548C131.085 10.8668 130.826 11.1243 130.511 11.1248H114.455C114.137 11.1252 113.882 11.3837 113.882 11.6992V37.5435C113.881 37.8622 113.623 38.1174 113.308 38.1179H97.2159C96.8979 38.1175 96.6429 37.8561 96.6422 37.541V0.581674C96.6427 0.263202 96.9011 0.00770113 97.2159 0.00730081H130.511Z" fill="#122654"/>
<path fill-rule="evenodd" clip-rule="evenodd" d="M164.474 0C164.647 0.000259814 164.806 0.0948747 164.883 0.240944L184.949 37.4802C185.105 37.7727 184.883 38.1179 184.541 38.1179H165.427C165.248 38.1179 165.082 38.0184 165.009 37.8623L162.719 33.0994C162.643 32.9432 162.48 32.8414 162.301 32.8414H141.501C141.318 32.8414 141.154 32.9456 141.078 33.1018L138.841 37.8599C138.768 38.016 138.601 38.1179 138.418 38.1179H121.067C120.728 38.1179 120.505 37.7825 120.651 37.4899L139.507 0.250679C139.584 0.0977566 139.747 0 139.923 0H164.474ZM152.191 11.4728C152.025 11.1345 151.518 11.1345 151.355 11.4728L146.457 21.719C146.318 22.0081 146.54 22.3369 146.875 22.3372H156.761C157.096 22.3366 157.318 22.0054 157.179 21.7166L157.182 21.719L152.191 11.4728Z" fill="#122654"/>
</g>
<g id="Vector_2">
<path d="M73.9787 99.3313H75.9085V93.1618H78.1743V99.3313H80.1042V93.1618H82.4437V99.3313H83.5254V103.249H81.3764V101.349H71.6392V93.1618H73.9787V99.3313Z" fill="#122654"/>
<path fill-rule="evenodd" clip-rule="evenodd" d="M43.4667 92.9861C46.683 92.9861 47.8384 94.258 47.8385 97.255C47.8385 100.354 46.3764 101.524 43.4964 101.524C40.5724 101.524 39.1102 100.194 39.1102 97.255C39.1103 94.2435 40.499 92.9862 43.4667 92.9861ZM43.4523 94.9308C42.1366 94.9308 41.5226 95.4715 41.5225 97.255C41.5225 99.1264 42.2683 99.5797 43.5256 99.5797C44.7828 99.5796 45.4262 99.097 45.4262 97.255C45.4262 95.4423 44.7973 94.9308 43.4523 94.9308Z" fill="#122654"/>
<path fill-rule="evenodd" clip-rule="evenodd" d="M65.4831 92.9861C68.6994 92.9861 69.8543 94.258 69.8544 97.255C69.8544 100.354 68.3924 101.524 65.5123 101.524C62.5884 101.524 61.1266 100.194 61.1266 97.255C61.1267 94.2434 62.5154 92.9862 65.4831 92.9861ZM65.4687 94.9308C64.153 94.9308 63.5389 95.4715 63.5389 97.255C63.5389 99.1262 64.2843 99.5796 65.5415 99.5797C66.7988 99.5797 67.4421 99.0971 67.4421 97.255C67.442 95.4423 66.8136 94.9308 65.4687 94.9308Z" fill="#122654"/>
<path fill-rule="evenodd" clip-rule="evenodd" d="M121.981 92.9861C125.197 92.9862 126.352 94.2581 126.352 97.255C126.352 100.354 124.89 101.524 122.01 101.524C119.086 101.524 117.624 100.194 117.624 97.255C117.624 94.2434 119.013 92.9861 121.981 92.9861ZM121.966 94.9308C120.65 94.9308 120.036 95.4715 120.036 97.255C120.036 99.1264 120.782 99.5797 122.039 99.5797C123.296 99.5797 123.94 99.0971 123.94 97.255C123.94 95.4423 123.311 94.9308 121.966 94.9308Z" fill="#122654"/>
<path d="M143.479 92.9861C144.663 92.9861 145.453 93.2202 145.848 93.3518V95.6176C145.336 95.3545 144.707 95.0327 143.552 95.0327C142.061 95.0327 141.389 95.6032 141.389 97.2406C141.389 98.9365 142.076 99.4773 143.655 99.4773C144.707 99.4773 145.468 99.1848 145.906 98.8632V101.1C145.468 101.305 144.62 101.524 143.45 101.524C140.248 101.524 138.976 100.179 138.976 97.3574C138.976 94.4043 140.248 92.9862 143.479 92.9861Z" fill="#122654"/>
<path fill-rule="evenodd" clip-rule="evenodd" d="M154.121 95.1792H150.101V96.2173C150.671 96.1881 151.037 96.1881 151.461 96.1881C153.698 96.1882 154.706 96.6851 154.706 98.6588C154.706 100.413 153.8 101.407 150.817 101.407C149.867 101.407 149.034 101.393 147.762 101.349V93.1618H154.121V95.1792ZM151.139 97.7963C150.73 97.7963 150.466 97.8106 150.057 97.8399V99.3897C150.393 99.4335 150.627 99.4337 150.993 99.4337C152.045 99.4337 152.323 99.1996 152.323 98.5564C152.323 97.9716 152.075 97.7963 151.139 97.7963Z" fill="#122654"/>
<path d="M4.88792 96.9042L4.77114 98.3664L5.59007 96.9626L7.98751 93.1618H10.3854V101.349H8.04591V97.5623L8.16317 96.1001L7.37343 97.489L4.90276 101.349H2.54887V93.1618H4.88792V96.9042Z" fill="#122654"/>
<path d="M15.0037 96.9042L14.8869 98.3664L15.7059 96.9626L18.1033 93.1618H20.5012V101.349H18.1617V97.5623L18.279 96.1001L17.4892 97.489L15.0185 101.349H12.6647V93.1618H15.0037V96.9042Z" fill="#122654"/>
<path d="M37.3207 101.349H34.9816V95.1792H32.1304V101.349H29.7914V93.1618H37.3207V101.349Z" fill="#122654"/>
<path d="M54.5503 97.065L56.202 93.1618H59.36V101.349H57.1085V96.8606L57.1818 95.4276L56.6409 96.8314L55.3687 99.7113H53.6146L52.3572 96.8458L51.7867 95.4424L51.8747 96.8606V101.349H49.6233V93.1618H52.898L54.5503 97.065Z" fill="#122654"/>
<path d="M87.4784 96.1881H90.6799V93.1618H93.019V101.349H90.6799V98.2056H87.4784V101.349H85.1388V93.1618H87.4784V96.1881Z" fill="#122654"/>
<path d="M97.6368 96.9042L97.52 98.3664L98.3384 96.9626L100.736 93.1618H103.134V101.349H100.795V97.5623L100.912 96.1001L100.122 97.489L97.6516 101.349H95.2977V93.1618H97.6368V96.9042Z" fill="#122654"/>
<path d="M107.753 96.2757H108.337L110.37 93.1618H113.03L110.267 96.9922L113.279 101.349H110.53L108.367 98.118H107.753V101.349H105.413V93.1618H107.753V96.2757Z" fill="#122654"/>
<path d="M134.399 95.1792H131.986V101.349H129.647V95.1792H127.249V93.1618H134.399V95.1792Z" fill="#122654"/>
<path d="M162.836 95.1792H158.918V96.3193H162.324V98.1031H158.918V99.3313H162.836V101.349H156.578V93.1618H162.836V95.1792Z" fill="#122654"/>
<path fill-rule="evenodd" clip-rule="evenodd" d="M167.853 93.1029C170.616 93.1029 171.64 93.8635 171.64 96.0565C171.64 98.2494 170.47 99.2289 167.824 99.2289C167.531 99.2289 167.341 99.2145 167.049 99.2145V101.349H164.71V93.1618C165.923 93.1325 166.449 93.1029 167.853 93.1029ZM167.794 95.0035C167.502 95.0035 167.341 95.0035 167.049 95.0327V97.299C167.356 97.3136 167.502 97.3282 167.824 97.3282C168.891 97.3282 169.257 96.8748 169.257 96.1585C169.257 95.4276 168.979 95.0035 167.794 95.0035Z" fill="#122654"/>
<path fill-rule="evenodd" clip-rule="evenodd" d="M180.46 101.349H178.092L177.58 99.8281H174.583L174.072 101.349H171.776L174.758 93.1618H177.492L180.46 101.349ZM175.197 97.9715H176.951L176.074 95.384L175.197 97.9715Z" fill="#122654"/>
<path d="M25.0941 95.4367C26.1762 95.4367 27.0546 96.315 27.0546 97.3971C27.0546 98.4793 26.1762 99.3576 25.0941 99.3576C24.012 99.3576 23.1337 98.4793 23.1337 97.3971C23.1337 96.315 24.012 95.4367 25.0941 95.4367Z" fill="#122654"/>
</g>
</g>
</svg>
