<svg preserveAspectRatio="none" width="100%" height="100%" overflow="visible" style="display: block;" viewBox="0 0 36.346 25.0929" fill="none" xmlns="http://www.w3.org/2000/svg">
<path id="Vector 234257648" d="M18.5578 1.38281L1.60875 0.000692345C1.49555 -0.00853844 1.39625 0.0756094 1.38677 0.188788L0.00071771 16.7485C-0.00201628 16.7812 0.00308547 16.814 0.0155989 16.8443L2.76346 23.497C2.79283 23.5682 2.8594 23.617 2.93605 23.6236L19.8973 25.0921C19.9136 25.0935 19.93 25.093 19.9461 25.0905L29.5964 23.6172C29.6155 23.6143 29.6341 23.6087 29.6516 23.6006L35.2936 20.9966C35.361 20.9655 35.4065 20.9004 35.4125 20.8264L36.3453 9.41794C36.3559 9.28883 36.246 9.18215 36.1173 9.19646L33.0499 9.53728C33.0383 9.53857 33.0268 9.54084 33.0156 9.54407L24.3706 12.035C24.3201 12.0495 24.266 12.0442 24.2193 12.0202L19.4702 9.57366C19.427 9.55142 19.393 9.51462 19.3744 9.46979L18.6906 7.82874C18.6725 7.78523 18.6698 7.73683 18.6831 7.6916L19.8962 3.55252C19.9125 3.49699 19.9047 3.43717 19.8747 3.3877L18.7171 1.48119C18.6829 1.42476 18.6236 1.38817 18.5578 1.38281Z" fill="var(--fill-0, #D9D9D9)"/>
</svg>
